<svg xmlns="http://www.w3.org/2000/svg" xmlns:xlink="http://www.w3.org/1999/xlink" width="1366" zoomAndPan="magnify" viewBox="0 0 1024.5 576" height="768" preserveAspectRatio="xMidYMid meet" version="1.0">
  <defs>
    <clipPath id="c964283e70">
      <path d="M 0 0.140625 L 1024 0.140625 L 1024 575.859375 L 0 575.859375 Z M 0 0.140625 " clip-rule="nonzero" />
    </clipPath>
    <clipPath id="c89a46ce6d">
      <path d="M 394.316406 234.648438 L 500.214844 234.648438 L 500.214844 340.546875 L 394.316406 340.546875 Z M 394.316406 234.648438 " clip-rule="nonzero" />
    </clipPath>
    <clipPath id="267b42a88b">
      <path d="M 522.980469 234.648438 L 628.878906 234.648438 L 628.878906 340.546875 L 522.980469 340.546875 Z M 522.980469 234.648438 " clip-rule="nonzero" />
    </clipPath>
  </defs>
  <g clip-path="url(#c964283e70)">
    <path fill="#ffffff" d="M 0 0.140625 L 1024 0.140625 L 1024 575.859375 L 0 575.859375 Z M 0 0.140625 " fill-opacity="1" fill-rule="nonzero" />
    <path fill="#ffffff" d="M 0 0.140625 L 1024 0.140625 L 1024 575.859375 L 0 575.859375 Z M 0 0.140625 " fill-opacity="1" fill-rule="nonzero" />
  </g>
  <g clip-path="url(#267b42a88b)">
    <path fill="#dd2f2f" d="M 628.882812 287.597656 C 628.882812 289.332031 628.796875 291.0625 628.628906 292.789062 C 628.457031 294.515625 628.203125 296.230469 627.867188 297.929688 C 627.527344 299.628906 627.105469 301.3125 626.601562 302.96875 C 626.101562 304.628906 625.515625 306.261719 624.851562 307.863281 C 624.1875 309.464844 623.449219 311.03125 622.628906 312.5625 C 621.8125 314.089844 620.921875 315.574219 619.960938 317.019531 C 618.996094 318.460938 617.964844 319.851562 616.863281 321.191406 C 615.761719 322.53125 614.601562 323.816406 613.375 325.042969 C 612.148438 326.269531 610.863281 327.433594 609.523438 328.53125 C 608.183594 329.632812 606.792969 330.664062 605.351562 331.628906 C 603.90625 332.589844 602.421875 333.480469 600.894531 334.300781 C 599.363281 335.117188 597.796875 335.855469 596.195312 336.519531 C 594.59375 337.183594 592.960938 337.769531 591.300781 338.269531 C 589.644531 338.773438 587.960938 339.195312 586.261719 339.535156 C 584.5625 339.871094 582.847656 340.125 581.121094 340.296875 C 579.394531 340.464844 577.664062 340.550781 575.929688 340.550781 C 574.195312 340.550781 572.464844 340.464844 570.742188 340.296875 C 569.015625 340.125 567.300781 339.871094 565.601562 339.535156 C 563.898438 339.195312 562.21875 338.773438 560.558594 338.269531 C 558.898438 337.769531 557.269531 337.183594 555.667969 336.519531 C 554.066406 335.855469 552.5 335.117188 550.96875 334.300781 C 549.441406 333.480469 547.953125 332.589844 546.511719 331.628906 C 545.070312 330.664062 543.679688 329.632812 542.339844 328.53125 C 540.996094 327.433594 539.714844 326.269531 538.488281 325.042969 C 537.261719 323.816406 536.097656 322.53125 535 321.191406 C 533.898438 319.851562 532.867188 318.460938 531.902344 317.019531 C 530.9375 315.574219 530.050781 314.089844 529.230469 312.5625 C 528.414062 311.03125 527.671875 309.464844 527.007812 307.863281 C 526.347656 306.261719 525.761719 304.628906 525.257812 302.96875 C 524.753906 301.3125 524.335938 299.628906 523.996094 297.929688 C 523.65625 296.230469 523.402344 294.515625 523.234375 292.789062 C 523.0625 291.0625 522.980469 289.332031 522.980469 287.597656 C 522.980469 285.863281 523.0625 284.136719 523.234375 282.410156 C 523.402344 280.683594 523.65625 278.96875 523.996094 277.269531 C 524.335938 275.566406 524.753906 273.886719 525.257812 272.226562 C 525.761719 270.570312 526.347656 268.9375 527.007812 267.335938 C 527.671875 265.734375 528.414062 264.167969 529.230469 262.636719 C 530.050781 261.109375 530.9375 259.621094 531.902344 258.179688 C 532.867188 256.738281 533.898438 255.347656 535 254.007812 C 536.097656 252.667969 537.261719 251.382812 538.488281 250.15625 C 539.714844 248.929688 540.996094 247.765625 542.339844 246.667969 C 543.679688 245.566406 545.070312 244.535156 546.511719 243.570312 C 547.953125 242.609375 549.441406 241.71875 550.96875 240.898438 C 552.5 240.082031 554.066406 239.339844 555.667969 238.675781 C 557.269531 238.015625 558.898438 237.429688 560.558594 236.925781 C 562.21875 236.421875 563.898438 236.003906 565.601562 235.664062 C 567.300781 235.324219 569.015625 235.070312 570.742188 234.902344 C 572.464844 234.730469 574.195312 234.648438 575.929688 234.648438 C 577.664062 234.648438 579.394531 234.730469 581.121094 234.902344 C 582.847656 235.070312 584.5625 235.324219 586.261719 235.664062 C 587.960938 236.003906 589.644531 236.421875 591.300781 236.925781 C 592.960938 237.429688 594.59375 238.015625 596.195312 238.675781 C 597.796875 239.339844 599.363281 240.082031 600.894531 240.898438 C 602.421875 241.71875 603.90625 242.609375 605.351562 243.570312 C 606.792969 244.535156 608.183594 245.566406 609.523438 246.667969 C 610.863281 247.765625 612.148438 248.929688 613.375 250.15625 C 614.601562 251.382812 615.761719 252.667969 616.863281 254.007812 C 617.964844 255.347656 618.996094 256.738281 619.960938 258.179688 C 620.921875 259.621094 621.8125 261.109375 622.628906 262.636719 C 623.449219 264.167969 624.1875 265.734375 624.851562 267.335938 C 625.515625 268.9375 626.101562 270.570312 626.601562 272.226562 C 627.105469 273.886719 627.527344 275.566406 627.867188 277.269531 C 628.203125 278.96875 628.457031 280.683594 628.628906 282.410156 C 628.796875 284.136719 628.882812 285.863281 628.882812 287.597656 Z M 628.882812 287.597656 " fill-opacity="1" fill-rule="nonzero" />
  </g>
  <path fill="#ffffff" d="M 605.960938 272.777344 L 593.058594 258.820312 L 575.929688 274.65625 L 558.804688 258.820312 L 545.898438 272.777344 L 561.933594 287.597656 L 545.898438 302.421875 L 558.804688 316.375 L 575.929688 300.539062 L 593.058594 316.375 L 605.960938 302.421875 L 589.929688 287.597656 Z M 605.960938 272.777344 " fill-opacity="1" fill-rule="nonzero" />
</svg>