<svg xmlns="http://www.w3.org/2000/svg" xmlns:xlink="http://www.w3.org/1999/xlink" width="1366" zoomAndPan="magnify" viewBox="0 0 1024.5 576" height="768" preserveAspectRatio="xMidYMid meet" version="1.0"><defs><clipPath id="fd39c1cf58"><path d="M 0 0.140625 L 1024 0.140625 L 1024 575.859375 L 0 575.859375 Z M 0 0.140625 " clip-rule="nonzero"/></clipPath><clipPath id="7e6eff82a4"><path d="M 410.679688 186.679688 L 613.082031 186.679688 L 613.082031 389.082031 L 410.679688 389.082031 Z M 410.679688 186.679688 " clip-rule="nonzero"/></clipPath></defs><g clip-path="url(#fd39c1cf58)"><path fill="#ffffff" d="M 0 0.140625 L 1024 0.140625 L 1024 575.859375 L 0 575.859375 Z M 0 0.140625 " fill-opacity="1" fill-rule="nonzero"/><path fill="#ffffff" d="M 0 0.140625 L 1024 0.140625 L 1024 575.859375 L 0 575.859375 Z M 0 0.140625 " fill-opacity="1" fill-rule="nonzero"/></g><g clip-path="url(#7e6eff82a4)"><path fill="#1a495d" d="M 512 186.679688 C 510.339844 186.679688 508.683594 186.722656 507.027344 186.804688 C 505.371094 186.882812 503.71875 187.007812 502.066406 187.167969 C 500.417969 187.332031 498.773438 187.535156 497.132812 187.777344 C 495.492188 188.019531 493.859375 188.304688 492.234375 188.628906 C 490.605469 188.953125 488.988281 189.3125 487.378906 189.71875 C 485.773438 190.121094 484.175781 190.5625 482.585938 191.042969 C 481 191.523438 479.425781 192.046875 477.867188 192.605469 C 476.304688 193.164062 474.757812 193.757812 473.226562 194.394531 C 471.695312 195.027344 470.179688 195.699219 468.679688 196.410156 C 467.179688 197.117188 465.699219 197.863281 464.238281 198.644531 C 462.777344 199.425781 461.332031 200.242188 459.910156 201.09375 C 458.488281 201.949219 457.089844 202.835938 455.710938 203.757812 C 454.332031 204.675781 452.976562 205.632812 451.644531 206.621094 C 450.3125 207.605469 449.003906 208.628906 447.722656 209.679688 C 446.441406 210.730469 445.1875 211.8125 443.957031 212.925781 C 442.730469 214.039062 441.527344 215.183594 440.355469 216.355469 C 439.183594 217.527344 438.039062 218.730469 436.925781 219.957031 C 435.8125 221.1875 434.730469 222.441406 433.679688 223.722656 C 432.628906 225.003906 431.605469 226.3125 430.621094 227.644531 C 429.632812 228.976562 428.675781 230.332031 427.757812 231.710938 C 426.835938 233.089844 425.949219 234.488281 425.09375 235.910156 C 424.242188 237.332031 423.425781 238.777344 422.644531 240.238281 C 421.863281 241.699219 421.117188 243.179688 420.410156 244.679688 C 419.699219 246.179688 419.027344 247.695312 418.394531 249.226562 C 417.757812 250.757812 417.164062 252.304688 416.605469 253.867188 C 416.046875 255.425781 415.523438 257 415.042969 258.585938 C 414.5625 260.175781 414.121094 261.773438 413.71875 263.378906 C 413.316406 264.988281 412.953125 266.605469 412.628906 268.234375 C 412.304688 269.859375 412.019531 271.492188 411.777344 273.132812 C 411.535156 274.773438 411.332031 276.417969 411.167969 278.066406 C 411.007812 279.71875 410.882812 281.371094 410.804688 283.027344 C 410.722656 284.683594 410.679688 286.339844 410.679688 288 C 410.679688 289.65625 410.722656 291.3125 410.804688 292.96875 C 410.882812 294.625 411.007812 296.28125 411.167969 297.929688 C 411.332031 299.578125 411.535156 301.226562 411.777344 302.863281 C 412.019531 304.503906 412.304688 306.136719 412.628906 307.765625 C 412.953125 309.390625 413.316406 311.007812 413.71875 312.617188 C 414.121094 314.226562 414.5625 315.824219 415.042969 317.410156 C 415.523438 318.996094 416.046875 320.570312 416.605469 322.132812 C 417.164062 323.691406 417.757812 325.238281 418.394531 326.769531 C 419.027344 328.304688 419.699219 329.820312 420.410156 331.316406 C 421.117188 332.816406 421.863281 334.296875 422.644531 335.757812 C 423.425781 337.222656 424.242188 338.664062 425.09375 340.085938 C 425.949219 341.507812 426.835938 342.910156 427.757812 344.289062 C 428.675781 345.667969 429.632812 347.023438 430.621094 348.355469 C 431.605469 349.683594 432.628906 350.992188 433.679688 352.273438 C 434.730469 353.554688 435.8125 354.8125 436.925781 356.039062 C 438.039062 357.269531 439.183594 358.46875 440.355469 359.640625 C 441.527344 360.8125 442.730469 361.957031 443.957031 363.070312 C 445.1875 364.183594 446.441406 365.265625 447.722656 366.316406 C 449.003906 367.371094 450.3125 368.390625 451.644531 369.378906 C 452.976562 370.367188 454.332031 371.320312 455.710938 372.242188 C 457.089844 373.164062 458.488281 374.050781 459.910156 374.902344 C 461.332031 375.753906 462.777344 376.570312 464.238281 377.351562 C 465.699219 378.132812 467.179688 378.878906 468.679688 379.589844 C 470.179688 380.296875 471.695312 380.96875 473.226562 381.605469 C 474.757812 382.238281 476.304688 382.835938 477.867188 383.394531 C 479.425781 383.953125 481 384.472656 482.585938 384.953125 C 484.175781 385.433594 485.773438 385.878906 487.378906 386.28125 C 488.988281 386.683594 490.605469 387.046875 492.234375 387.371094 C 493.859375 387.691406 495.492188 387.976562 497.132812 388.21875 C 498.773438 388.464844 500.417969 388.664062 502.066406 388.828125 C 503.71875 388.992188 505.371094 389.113281 507.027344 389.195312 C 508.683594 389.277344 510.339844 389.316406 512 389.316406 C 513.65625 389.316406 515.3125 389.277344 516.96875 389.195312 C 518.625 389.113281 520.28125 388.992188 521.929688 388.828125 C 523.578125 388.664062 525.226562 388.464844 526.863281 388.21875 C 528.503906 387.976562 530.136719 387.691406 531.765625 387.371094 C 533.390625 387.046875 535.007812 386.683594 536.617188 386.28125 C 538.226562 385.878906 539.824219 385.433594 541.410156 384.953125 C 542.996094 384.472656 544.570312 383.953125 546.132812 383.394531 C 547.691406 382.835938 549.238281 382.238281 550.769531 381.605469 C 552.304688 380.96875 553.820312 380.296875 555.316406 379.589844 C 556.816406 378.878906 558.296875 378.132812 559.757812 377.351562 C 561.222656 376.570312 562.664062 375.753906 564.085938 374.902344 C 565.507812 374.050781 566.910156 373.164062 568.289062 372.242188 C 569.667969 371.320312 571.023438 370.367188 572.355469 369.378906 C 573.683594 368.390625 574.992188 367.371094 576.273438 366.316406 C 577.554688 365.265625 578.8125 364.183594 580.039062 363.070312 C 581.269531 361.957031 582.46875 360.8125 583.640625 359.640625 C 584.8125 358.46875 585.957031 357.269531 587.070312 356.039062 C 588.183594 354.8125 589.265625 353.554688 590.320312 352.273438 C 591.371094 350.992188 592.390625 349.683594 593.378906 348.355469 C 594.367188 347.023438 595.320312 345.667969 596.242188 344.289062 C 597.164062 342.910156 598.050781 341.507812 598.902344 340.085938 C 599.753906 338.664062 600.570312 337.222656 601.351562 335.757812 C 602.132812 334.296875 602.878906 332.816406 603.589844 331.316406 C 604.296875 329.820312 604.96875 328.304688 605.605469 326.769531 C 606.238281 325.238281 606.835938 323.691406 607.394531 322.132812 C 607.953125 320.570312 608.472656 318.996094 608.953125 317.410156 C 609.433594 315.824219 609.878906 314.226562 610.28125 312.617188 C 610.683594 311.007812 611.046875 309.390625 611.371094 307.765625 C 611.691406 306.136719 611.976562 304.503906 612.21875 302.863281 C 612.464844 301.226562 612.667969 299.578125 612.828125 297.929688 C 612.992188 296.28125 613.113281 294.625 613.195312 292.96875 C 613.277344 291.3125 613.316406 289.65625 613.316406 288 C 613.316406 286.339844 613.273438 284.683594 613.195312 283.027344 C 613.113281 281.371094 612.988281 279.71875 612.828125 278.066406 C 612.664062 276.417969 612.460938 274.773438 612.21875 273.132812 C 611.976562 271.492188 611.691406 269.859375 611.367188 268.234375 C 611.042969 266.605469 610.679688 264.988281 610.277344 263.382812 C 609.875 261.773438 609.433594 260.175781 608.949219 258.589844 C 608.46875 257.003906 607.949219 255.429688 607.390625 253.867188 C 606.832031 252.304688 606.234375 250.761719 605.601562 249.226562 C 604.964844 247.695312 604.292969 246.179688 603.585938 244.683594 C 602.875 243.183594 602.132812 241.703125 601.347656 240.242188 C 600.566406 238.777344 599.75 237.335938 598.898438 235.914062 C 598.046875 234.492188 597.160156 233.089844 596.238281 231.710938 C 595.316406 230.332031 594.363281 228.980469 593.375 227.648438 C 592.386719 226.316406 591.367188 225.007812 590.316406 223.726562 C 589.261719 222.445312 588.179688 221.191406 587.066406 219.960938 C 585.953125 218.734375 584.808594 217.53125 583.636719 216.359375 C 582.464844 215.1875 581.265625 214.042969 580.035156 212.929688 C 578.808594 211.816406 577.550781 210.734375 576.269531 209.683594 C 574.988281 208.632812 573.683594 207.609375 572.351562 206.625 C 571.019531 205.636719 569.664062 204.679688 568.285156 203.761719 C 566.90625 202.839844 565.503906 201.953125 564.082031 201.097656 C 562.660156 200.246094 561.21875 199.429688 559.757812 198.648438 C 558.292969 197.867188 556.8125 197.121094 555.316406 196.410156 C 553.816406 195.703125 552.300781 195.03125 550.769531 194.398438 C 549.238281 193.761719 547.691406 193.164062 546.128906 192.605469 C 544.570312 192.046875 542.996094 191.527344 541.410156 191.046875 C 539.820312 190.566406 538.222656 190.121094 536.617188 189.71875 C 535.007812 189.316406 533.390625 188.953125 531.765625 188.628906 C 530.136719 188.304688 528.503906 188.023438 526.863281 187.777344 C 525.222656 187.535156 523.578125 187.332031 521.929688 187.171875 C 520.277344 187.007812 518.625 186.886719 516.96875 186.804688 C 515.3125 186.722656 513.65625 186.679688 512 186.679688 Z M 575.039062 271.882812 C 574.859375 272.457031 574.597656 272.988281 574.246094 273.476562 C 573.898438 273.964844 573.480469 274.382812 572.996094 274.738281 C 572.511719 275.089844 571.984375 275.359375 571.414062 275.542969 C 570.839844 275.726562 570.253906 275.816406 569.65625 275.808594 L 564.019531 275.808594 L 564.019531 332.769531 C 564.019531 333.332031 563.988281 333.898438 563.933594 334.460938 C 563.878906 335.019531 563.792969 335.578125 563.683594 336.132812 C 563.574219 336.6875 563.4375 337.234375 563.273438 337.773438 C 563.105469 338.316406 562.917969 338.847656 562.699219 339.367188 C 562.484375 339.890625 562.242188 340.402344 561.976562 340.898438 C 561.710938 341.398438 561.417969 341.878906 561.105469 342.351562 C 560.789062 342.820312 560.453125 343.273438 560.097656 343.710938 C 559.738281 344.148438 559.359375 344.566406 558.960938 344.964844 C 558.558594 345.363281 558.140625 345.742188 557.703125 346.101562 C 557.269531 346.460938 556.816406 346.796875 556.34375 347.109375 C 555.875 347.425781 555.390625 347.714844 554.894531 347.980469 C 554.394531 348.246094 553.886719 348.488281 553.363281 348.707031 C 552.84375 348.921875 552.3125 349.113281 551.769531 349.277344 C 551.230469 349.441406 550.683594 349.578125 550.128906 349.6875 C 549.574219 349.800781 549.015625 349.882812 548.453125 349.9375 C 547.890625 349.996094 547.328125 350.023438 546.761719 350.023438 L 529.761719 350.023438 C 529.320312 350.019531 528.894531 349.933594 528.484375 349.761719 C 528.078125 349.589844 527.71875 349.347656 527.40625 349.03125 C 527.09375 348.71875 526.855469 348.355469 526.6875 347.945312 C 526.519531 347.535156 526.4375 347.109375 526.4375 346.667969 L 526.4375 316.875 C 526.4375 316.363281 526.386719 315.859375 526.285156 315.363281 C 526.183594 314.863281 526.039062 314.378906 525.84375 313.90625 C 525.648438 313.4375 525.410156 312.992188 525.125 312.566406 C 524.84375 312.144531 524.519531 311.753906 524.160156 311.394531 C 523.800781 311.03125 523.410156 310.710938 522.984375 310.429688 C 522.5625 310.144531 522.117188 309.90625 521.644531 309.710938 C 521.175781 309.515625 520.691406 309.367188 520.191406 309.269531 C 519.691406 309.167969 519.1875 309.117188 518.679688 309.117188 L 505.316406 309.117188 C 504.808594 309.117188 504.304688 309.167969 503.804688 309.269531 C 503.304688 309.367188 502.820312 309.515625 502.351562 309.710938 C 501.882812 309.90625 501.433594 310.144531 501.011719 310.429688 C 500.589844 310.710938 500.195312 311.03125 499.835938 311.394531 C 499.476562 311.753906 499.15625 312.144531 498.871094 312.566406 C 498.589844 312.992188 498.351562 313.4375 498.15625 313.90625 C 497.960938 314.378906 497.8125 314.863281 497.710938 315.363281 C 497.613281 315.859375 497.5625 316.363281 497.5625 316.875 L 497.5625 346.667969 C 497.5625 347.109375 497.476562 347.535156 497.308594 347.945312 C 497.140625 348.355469 496.902344 348.71875 496.589844 349.03125 C 496.277344 349.347656 495.917969 349.589844 495.511719 349.761719 C 495.105469 349.933594 494.679688 350.019531 494.238281 350.023438 L 477.234375 350.023438 C 476.667969 350.023438 476.105469 349.996094 475.542969 349.9375 C 474.980469 349.882812 474.421875 349.800781 473.867188 349.6875 C 473.316406 349.578125 472.769531 349.441406 472.226562 349.277344 C 471.6875 349.113281 471.15625 348.921875 470.632812 348.707031 C 470.113281 348.488281 469.601562 348.246094 469.105469 347.980469 C 468.605469 347.714844 468.121094 347.425781 467.652344 347.109375 C 467.183594 346.796875 466.730469 346.460938 466.292969 346.101562 C 465.855469 345.742188 465.4375 345.363281 465.039062 344.964844 C 464.640625 344.566406 464.261719 344.148438 463.902344 343.710938 C 463.542969 343.273438 463.207031 342.820312 462.894531 342.351562 C 462.578125 341.878906 462.289062 341.398438 462.023438 340.898438 C 461.753906 340.402344 461.515625 339.890625 461.296875 339.367188 C 461.082031 338.847656 460.890625 338.316406 460.726562 337.773438 C 460.5625 337.234375 460.425781 336.6875 460.3125 336.132812 C 460.203125 335.578125 460.121094 335.019531 460.0625 334.460938 C 460.007812 333.898438 459.980469 333.332031 459.976562 332.769531 L 459.976562 275.808594 L 454.34375 275.808594 C 453.746094 275.808594 453.160156 275.71875 452.59375 275.535156 C 452.023438 275.347656 451.5 275.082031 451.015625 274.730469 C 450.53125 274.378906 450.117188 273.960938 449.765625 273.476562 C 449.414062 272.992188 449.148438 272.464844 448.964844 271.898438 C 448.78125 271.328125 448.691406 270.746094 448.691406 270.148438 C 448.695312 269.550781 448.789062 268.96875 448.976562 268.398438 C 449.164062 267.832031 449.4375 267.308594 449.789062 266.824219 C 450.144531 266.34375 450.5625 265.929688 451.050781 265.582031 L 501.992188 229.203125 C 502.71875 228.683594 503.480469 228.226562 504.277344 227.824219 C 505.074219 227.425781 505.898438 227.089844 506.746094 226.816406 C 507.59375 226.546875 508.460938 226.339844 509.339844 226.203125 C 510.222656 226.066406 511.105469 225.996094 512 225.996094 C 512.890625 225.996094 513.777344 226.066406 514.65625 226.203125 C 515.539062 226.339844 516.402344 226.546875 517.25 226.816406 C 518.101562 227.089844 518.921875 227.425781 519.71875 227.824219 C 520.515625 228.226562 521.277344 228.683594 522.003906 229.203125 L 572.949219 265.582031 C 573.433594 265.925781 573.855469 266.339844 574.210938 266.820312 C 574.566406 267.300781 574.839844 267.824219 575.027344 268.390625 C 575.214844 268.957031 575.308594 269.539062 575.3125 270.136719 C 575.3125 270.730469 575.222656 271.316406 575.039062 271.882812 Z M 575.039062 271.882812 " fill-opacity="1" fill-rule="nonzero"/></g></svg>