<svg xmlns="http://www.w3.org/2000/svg" xmlns:xlink="http://www.w3.org/1999/xlink" width="1366" zoomAndPan="magnify" viewBox="0 0 1024.5 576" height="768" preserveAspectRatio="xMidYMid meet" version="1.0"><defs><clipPath id="40da9ca9e7"><path d="M 0 0.140625 L 1024 0.140625 L 1024 575.859375 L 0 575.859375 Z M 0 0.140625 " clip-rule="nonzero"/></clipPath><clipPath id="755b04213f"><path d="M 397.160156 173.160156 L 626.546875 173.160156 L 626.546875 402.546875 L 397.160156 402.546875 Z M 397.160156 173.160156 " clip-rule="nonzero"/></clipPath></defs><g clip-path="url(#40da9ca9e7)"><path fill="#ffffff" d="M 0 0.140625 L 1024 0.140625 L 1024 575.859375 L 0 575.859375 Z M 0 0.140625 " fill-opacity="1" fill-rule="nonzero"/><path fill="#ffffff" d="M 0 0.140625 L 1024 0.140625 L 1024 575.859375 L 0 575.859375 Z M 0 0.140625 " fill-opacity="1" fill-rule="nonzero"/></g><g clip-path="url(#755b04213f)"><path fill="#1a495d" d="M 593.203125 206.792969 C 571.511719 185.105469 542.675781 173.160156 512 173.160156 C 481.324219 173.160156 452.484375 185.105469 430.792969 206.792969 C 409.105469 228.484375 397.160156 257.324219 397.160156 288 C 397.160156 318.671875 409.105469 347.511719 430.792969 369.203125 C 452.484375 390.894531 481.324219 402.839844 512 402.839844 C 542.675781 402.839844 571.511719 390.894531 593.203125 369.203125 C 614.894531 347.511719 626.839844 318.675781 626.839844 288 C 626.839844 257.324219 614.894531 228.484375 593.203125 206.792969 Z M 593.203125 206.792969 " fill-opacity="1" fill-rule="nonzero"/></g><path fill="#ffffff" d="M 539.425781 233.453125 C 540.324219 234.351562 541.175781 235.292969 541.980469 236.273438 C 542.789062 237.253906 543.542969 238.273438 544.25 239.332031 C 544.953125 240.386719 545.605469 241.476562 546.207031 242.597656 C 546.804688 243.714844 547.347656 244.863281 547.832031 246.035156 C 548.320312 247.210938 548.746094 248.40625 549.117188 249.621094 C 549.484375 250.835938 549.792969 252.066406 550.039062 253.3125 C 550.289062 254.558594 550.472656 255.8125 550.597656 257.078125 C 550.722656 258.339844 550.785156 259.609375 550.785156 260.878906 C 550.785156 262.148438 550.722656 263.417969 550.597656 264.679688 C 550.472656 265.945312 550.289062 267.199219 550.039062 268.445312 C 549.792969 269.691406 549.484375 270.921875 549.117188 272.136719 C 548.746094 273.355469 548.320312 274.546875 547.832031 275.722656 C 547.347656 276.894531 546.804688 278.042969 546.207031 279.164062 C 545.605469 280.28125 544.953125 281.371094 544.25 282.425781 C 543.542969 283.484375 542.789062 284.503906 541.980469 285.484375 C 541.175781 286.464844 540.324219 287.40625 539.425781 288.304688 C 538.527344 289.203125 537.585938 290.054688 536.605469 290.859375 C 535.625 291.667969 534.605469 292.421875 533.546875 293.128906 C 532.492188 293.835938 531.402344 294.488281 530.285156 295.085938 C 529.164062 295.683594 528.015625 296.226562 526.84375 296.710938 C 525.667969 297.199219 524.472656 297.625 523.257812 297.996094 C 522.042969 298.363281 520.8125 298.671875 519.566406 298.917969 C 518.320312 299.167969 517.066406 299.355469 515.800781 299.476562 C 514.539062 299.601562 513.269531 299.664062 512 299.664062 C 510.730469 299.664062 509.460938 299.601562 508.199219 299.476562 C 506.933594 299.355469 505.679688 299.167969 504.433594 298.917969 C 503.1875 298.671875 501.957031 298.363281 500.742188 297.996094 C 499.523438 297.625 498.332031 297.199219 497.15625 296.710938 C 495.984375 296.226562 494.835938 295.683594 493.714844 295.085938 C 492.597656 294.488281 491.507812 293.835938 490.453125 293.128906 C 489.394531 292.421875 488.375 291.667969 487.394531 290.859375 C 486.414062 290.054688 485.472656 289.203125 484.574219 288.304688 C 483.675781 287.40625 482.824219 286.464844 482.019531 285.484375 C 481.210938 284.503906 480.457031 283.484375 479.75 282.425781 C 479.046875 281.371094 478.394531 280.28125 477.792969 279.164062 C 477.195312 278.042969 476.652344 276.894531 476.167969 275.722656 C 475.679688 274.546875 475.253906 273.355469 474.882812 272.136719 C 474.515625 270.921875 474.207031 269.691406 473.960938 268.445312 C 473.710938 267.199219 473.527344 265.945312 473.402344 264.679688 C 473.277344 263.417969 473.214844 262.148438 473.214844 260.878906 C 473.214844 259.609375 473.277344 258.339844 473.402344 257.078125 C 473.527344 255.8125 473.710938 254.558594 473.960938 253.3125 C 474.207031 252.066406 474.515625 250.835938 474.882812 249.621094 C 475.253906 248.40625 475.679688 247.210938 476.167969 246.035156 C 476.652344 244.863281 477.195312 243.714844 477.792969 242.597656 C 478.394531 241.476562 479.046875 240.386719 479.75 239.332031 C 480.457031 238.273438 481.210938 237.253906 482.019531 236.273438 C 482.824219 235.292969 483.675781 234.351562 484.574219 233.453125 C 485.472656 232.554688 486.414062 231.703125 487.394531 230.898438 C 488.375 230.089844 489.394531 229.335938 490.453125 228.628906 C 491.507812 227.925781 492.597656 227.273438 493.714844 226.671875 C 494.835938 226.074219 495.984375 225.53125 497.15625 225.046875 C 498.332031 224.558594 499.523438 224.132812 500.742188 223.761719 C 501.957031 223.394531 503.1875 223.085938 504.433594 222.839844 C 505.679688 222.589844 506.933594 222.40625 508.199219 222.28125 C 509.460938 222.15625 510.730469 222.09375 512 222.09375 C 513.269531 222.09375 514.539062 222.15625 515.800781 222.28125 C 517.066406 222.40625 518.320312 222.589844 519.566406 222.839844 C 520.8125 223.085938 522.042969 223.394531 523.257812 223.761719 C 524.472656 224.132812 525.667969 224.558594 526.84375 225.046875 C 528.015625 225.53125 529.164062 226.074219 530.285156 226.671875 C 531.402344 227.273438 532.492188 227.925781 533.546875 228.628906 C 534.605469 229.335938 535.625 230.089844 536.605469 230.898438 C 537.585938 231.703125 538.527344 232.554688 539.425781 233.453125 Z M 539.425781 233.453125 " fill-opacity="1" fill-rule="nonzero"/><path fill="#ffffff" d="M 513.121094 316.898438 L 510.878906 316.898438 C 479.1875 316.898438 452.5 338.296875 444.457031 367.429688 C 462.671875 382.941406 486.257812 392.316406 512 392.316406 C 537.738281 392.316406 561.328125 382.941406 579.539062 367.429688 C 571.496094 338.296875 544.8125 316.898438 513.117188 316.898438 Z M 513.121094 316.898438 " fill-opacity="1" fill-rule="nonzero"/></svg>