<svg xmlns="http://www.w3.org/2000/svg" xmlns:xlink="http://www.w3.org/1999/xlink" width="1366" zoomAndPan="magnify" viewBox="0 0 1024.5 576" height="768" preserveAspectRatio="xMidYMid meet" version="1.0"><defs><clipPath id="d44b3a26e9"><path d="M 0 0.140625 L 1024 0.140625 L 1024 575.859375 L 0 575.859375 Z M 0 0.140625 " clip-rule="nonzero"/></clipPath><clipPath id="7a797bfd8d"><path d="M 441.566406 217.566406 L 582.5 217.566406 L 582.5 358.5 L 441.566406 358.5 Z M 441.566406 217.566406 " clip-rule="nonzero"/></clipPath></defs><g clip-path="url(#d44b3a26e9)"><path fill="#ffffff" d="M 0 0.140625 L 1024 0.140625 L 1024 575.859375 L 0 575.859375 Z M 0 0.140625 " fill-opacity="1" fill-rule="nonzero"/><path fill="#ffffff" d="M 0 0.140625 L 1024 0.140625 L 1024 575.859375 L 0 575.859375 Z M 0 0.140625 " fill-opacity="1" fill-rule="nonzero"/></g><g clip-path="url(#7a797bfd8d)"><path fill="#1a495d" d="M 511.9375 217.527344 C 473.050781 217.527344 441.527344 249.050781 441.527344 287.9375 C 441.527344 326.824219 473.050781 358.347656 511.9375 358.347656 C 550.824219 358.347656 582.347656 326.824219 582.347656 287.9375 C 582.347656 249.050781 550.824219 217.527344 511.9375 217.527344 Z M 544.074219 293.203125 C 536.203125 301.949219 512.015625 321.605469 512.015625 321.605469 L 511.859375 321.605469 C 511.859375 321.605469 487.675781 301.949219 479.804688 293.203125 C 472.628906 285.230469 472.222656 273.320312 479.804688 265.738281 C 487.390625 258.152344 499.683594 258.152344 507.269531 265.738281 L 511.859375 270.328125 L 511.9375 270.253906 L 512.015625 270.328125 L 516.609375 265.738281 C 524.191406 258.152344 536.488281 258.152344 544.074219 265.738281 C 551.65625 273.320312 551.246094 285.230469 544.074219 293.203125 Z M 544.074219 293.203125 " fill-opacity="1" fill-rule="nonzero"/></g></svg>