<svg xmlns="http://www.w3.org/2000/svg" xmlns:xlink="http://www.w3.org/1999/xlink" width="1366" zoomAndPan="magnify" viewBox="0 0 1024.5 576" height="768" preserveAspectRatio="xMidYMid meet" version="1.0"><defs><clipPath id="25bc573864"><path d="M 0 0.140625 L 1024 0.140625 L 1024 575.859375 L 0 575.859375 Z M 0 0.140625 " clip-rule="nonzero"/></clipPath><clipPath id="b62f63700a"><path d="M 437.195312 213.195312 L 587 213.195312 L 587 363 L 437.195312 363 Z M 437.195312 213.195312 " clip-rule="nonzero"/></clipPath></defs><g clip-path="url(#25bc573864)"><path fill="#ffffff" d="M 0 0.140625 L 1024 0.140625 L 1024 575.859375 L 0 575.859375 Z M 0 0.140625 " fill-opacity="1" fill-rule="nonzero"/><path fill="#ffffff" d="M 0 0.140625 L 1024 0.140625 L 1024 575.859375 L 0 575.859375 Z M 0 0.140625 " fill-opacity="1" fill-rule="nonzero"/></g><g clip-path="url(#b62f63700a)"><path fill="#1a495d" d="M 512 213.195312 C 470.757812 213.195312 437.195312 246.757812 437.195312 288 C 437.195312 329.242188 470.757812 362.804688 512 362.804688 C 553.242188 362.804688 586.804688 329.242188 586.804688 288 C 586.804688 246.757812 553.242188 213.195312 512 213.195312 Z M 550.101562 326.101562 C 549.152344 327.097656 547.855469 327.59375 546.609375 327.59375 C 545.3125 327.59375 544.015625 327.097656 543.066406 326.101562 L 522.722656 305.753906 C 516.785156 310.140625 509.753906 312.386719 502.671875 312.386719 C 494.046875 312.386719 485.417969 309.09375 478.886719 302.511719 C 465.71875 289.394531 465.71875 268 478.886719 254.886719 C 492 241.71875 513.34375 241.71875 526.511719 254.886719 C 538.480469 266.804688 539.527344 285.503906 529.753906 298.71875 L 550.101562 319.066406 C 552.042969 321.011719 552.042969 324.15625 550.101562 326.101562 Z M 550.101562 326.101562 " fill-opacity="1" fill-rule="nonzero"/></g><path fill="#1a495d" d="M 502.671875 254.984375 C 496.636719 254.984375 490.554688 257.277344 485.917969 261.917969 C 476.691406 271.140625 476.691406 286.203125 485.917969 295.480469 C 495.144531 304.707031 510.203125 304.707031 519.480469 295.480469 C 528.707031 286.203125 528.707031 271.140625 519.480469 261.917969 C 514.839844 257.277344 508.757812 254.984375 502.671875 254.984375 Z M 502.671875 254.984375 " fill-opacity="1" fill-rule="nonzero"/></svg>