<svg xmlns="http://www.w3.org/2000/svg" xmlns:xlink="http://www.w3.org/1999/xlink" width="1366" zoomAndPan="magnify" viewBox="0 0 1024.5 576" height="768" preserveAspectRatio="xMidYMid meet" version="1.0"><defs><clipPath id="25d7184bda"><path d="M 0 0.140625 L 1024 0.140625 L 1024 575.859375 L 0 575.859375 Z M 0 0.140625 " clip-rule="nonzero"/></clipPath><clipPath id="e1befd131c"><path d="M 420.007812 196.007812 L 603.667969 196.007812 L 603.667969 379.667969 L 420.007812 379.667969 Z M 420.007812 196.007812 " clip-rule="nonzero"/></clipPath></defs><g clip-path="url(#25d7184bda)"><path fill="#ffffff" d="M 0 0.140625 L 1024 0.140625 L 1024 575.859375 L 0 575.859375 Z M 0 0.140625 " fill-opacity="1" fill-rule="nonzero"/><path fill="#ffffff" d="M 0 0.140625 L 1024 0.140625 L 1024 575.859375 L 0 575.859375 Z M 0 0.140625 " fill-opacity="1" fill-rule="nonzero"/></g><g clip-path="url(#e1befd131c)"><path fill="#1a495d" d="M 511.996094 196.007812 C 562.589844 196.007812 603.984375 237.402344 603.984375 287.996094 C 603.984375 338.589844 562.589844 379.984375 511.996094 379.984375 C 461.402344 379.984375 420.007812 338.589844 420.007812 287.996094 C 420.007812 237.402344 461.402344 196.007812 511.996094 196.007812 " fill-opacity="1" fill-rule="evenodd"/></g><path fill="#ffffff" d="M 510 334.359375 C 501.613281 329.695312 492.304688 327.316406 482.691406 327.90625 C 479.683594 328.089844 476.652344 328.5625 473.742188 329.359375 C 472.589844 329.671875 471.042969 330.125 469.964844 330.65625 C 469.539062 330.867188 469.085938 330.984375 468.613281 330.984375 C 466.988281 330.984375 465.671875 329.664062 465.671875 328.042969 L 465.671875 246.476562 C 465.671875 245.203125 466.46875 244.066406 467.679688 243.660156 L 469.371094 243.09375 L 469.382812 243.128906 C 476.402344 241.035156 483.671875 240.433594 490.972656 241.367188 C 496.003906 242.011719 500.914062 243.394531 505.578125 245.386719 C 507.824219 246.347656 509.910156 247.417969 511.996094 248.605469 C 514.085938 247.417969 516.167969 246.347656 518.417969 245.386719 C 523.078125 243.394531 527.992188 242.011719 533.019531 241.367188 C 540.320312 240.433594 547.589844 241.035156 554.613281 243.128906 L 554.621094 243.09375 L 556.3125 243.660156 C 557.523438 244.066406 558.320312 245.203125 558.320312 246.476562 L 558.320312 328.042969 C 558.320312 329.664062 557.003906 330.984375 555.378906 330.984375 C 554.90625 330.984375 554.453125 330.867188 554.03125 330.65625 C 552.953125 330.125 551.402344 329.671875 550.25 329.359375 C 547.339844 328.5625 544.3125 328.089844 541.304688 327.90625 C 531.6875 327.316406 522.378906 329.695312 513.992188 334.359375 L 513.457031 334.664062 C 512.996094 334.925781 512.496094 335.050781 512.003906 335.050781 L 511.964844 335.050781 C 511.480469 335.046875 510.988281 334.921875 510.539062 334.664062 Z M 474.636719 259.238281 C 474.097656 259.414062 473.800781 259.992188 473.976562 260.535156 C 474.152344 261.074219 474.730469 261.371094 475.269531 261.195312 C 476.125 260.917969 476.996094 260.707031 477.875 260.511719 C 480.0625 260.035156 482.292969 259.734375 484.53125 259.609375 C 491.152344 259.230469 497.867188 260.421875 503.644531 263.777344 C 504.132812 264.0625 504.765625 263.890625 505.046875 263.402344 C 505.332031 262.914062 505.164062 262.28125 504.675781 262 C 498.5625 258.449219 491.480469 257.179688 484.472656 257.566406 C 482.105469 257.695312 479.738281 258.011719 477.417969 258.515625 C 476.484375 258.71875 475.542969 258.941406 474.636719 259.238281 Z M 474.636719 266.335938 C 474.097656 266.515625 473.800781 267.09375 473.976562 267.632812 C 474.152344 268.171875 474.730469 268.46875 475.269531 268.292969 C 476.125 268.015625 476.996094 267.804688 477.875 267.613281 C 480.0625 267.136719 482.296875 266.835938 484.53125 266.707031 C 491.152344 266.332031 497.867188 267.519531 503.644531 270.875 C 504.132812 271.160156 504.765625 270.992188 505.046875 270.5 C 505.332031 270.011719 505.164062 269.378906 504.675781 269.097656 C 498.5625 265.546875 491.480469 264.277344 484.472656 264.664062 C 482.105469 264.796875 479.738281 265.109375 477.417969 265.613281 C 476.484375 265.816406 475.546875 266.039062 474.636719 266.335938 Z M 474.636719 273.4375 C 474.097656 273.613281 473.800781 274.191406 473.976562 274.730469 C 474.152344 275.273438 474.730469 275.566406 475.269531 275.390625 C 476.125 275.113281 476.996094 274.902344 477.875 274.710938 C 480.0625 274.234375 482.292969 273.933594 484.53125 273.804688 C 491.152344 273.429688 497.867188 274.617188 503.644531 277.972656 C 504.132812 278.257812 504.765625 278.089844 505.046875 277.601562 C 505.332031 277.113281 505.164062 276.480469 504.675781 276.195312 C 498.5625 272.644531 491.480469 271.378906 484.472656 271.765625 C 482.105469 271.894531 479.738281 272.207031 477.417969 272.710938 C 476.484375 272.914062 475.546875 273.140625 474.636719 273.4375 Z M 474.636719 280.535156 C 474.097656 280.710938 473.800781 281.292969 473.976562 281.832031 C 474.152344 282.371094 474.730469 282.667969 475.269531 282.492188 C 476.125 282.214844 476.996094 282 477.875 281.8125 C 480.0625 281.332031 482.296875 281.03125 484.53125 280.90625 C 491.152344 280.527344 497.867188 281.71875 503.644531 285.074219 C 504.132812 285.359375 504.765625 285.1875 505.046875 284.699219 C 505.332031 284.210938 505.164062 283.578125 504.675781 283.296875 C 498.5625 279.742188 491.480469 278.476562 484.472656 278.863281 C 482.105469 278.992188 479.738281 279.308594 477.417969 279.8125 C 476.484375 280.011719 475.546875 280.238281 474.636719 280.535156 Z M 474.636719 288.515625 C 474.097656 288.691406 473.800781 289.273438 473.976562 289.8125 C 474.152344 290.351562 474.730469 290.648438 475.269531 290.472656 C 476.125 290.195312 476.996094 289.984375 477.875 289.792969 C 480.0625 289.316406 482.292969 289.015625 484.53125 288.886719 C 491.152344 288.511719 497.867188 289.699219 503.644531 293.054688 C 504.132812 293.339844 504.765625 293.167969 505.046875 292.683594 C 505.332031 292.191406 505.164062 291.5625 504.675781 291.277344 C 498.5625 287.726562 491.480469 286.457031 484.472656 286.84375 C 482.105469 286.976562 479.738281 287.289062 477.417969 287.792969 C 476.484375 287.996094 475.546875 288.21875 474.636719 288.515625 Z M 474.636719 297.382812 C 474.097656 297.558594 473.800781 298.136719 473.976562 298.679688 C 474.152344 299.21875 474.730469 299.515625 475.269531 299.335938 C 476.125 299.0625 476.996094 298.847656 477.875 298.65625 C 480.0625 298.179688 482.292969 297.878906 484.53125 297.753906 C 491.152344 297.375 497.867188 298.566406 503.644531 301.921875 C 504.132812 302.203125 504.765625 302.035156 505.046875 301.546875 C 505.332031 301.058594 505.164062 300.425781 504.675781 300.144531 C 498.5625 296.589844 491.480469 295.324219 484.472656 295.710938 C 482.105469 295.839844 479.738281 296.152344 477.417969 296.65625 C 476.484375 296.859375 475.546875 297.085938 474.636719 297.382812 Z M 474.636719 306.246094 C 474.097656 306.425781 473.800781 307.003906 473.976562 307.542969 C 474.152344 308.082031 474.730469 308.378906 475.269531 308.203125 C 476.125 307.925781 476.996094 307.714844 477.875 307.523438 C 480.0625 307.042969 482.292969 306.746094 484.53125 306.617188 C 491.152344 306.242188 497.867188 307.429688 503.644531 310.785156 C 504.132812 311.070312 504.765625 310.898438 505.046875 310.414062 C 505.332031 309.921875 505.164062 309.292969 504.675781 309.007812 C 498.5625 305.457031 491.480469 304.1875 484.472656 304.574219 C 482.105469 304.703125 479.738281 305.019531 477.417969 305.523438 C 476.484375 305.726562 475.546875 305.949219 474.636719 306.246094 Z M 547.972656 261.195312 C 548.511719 261.371094 549.09375 261.074219 549.269531 260.535156 C 549.445312 259.992188 549.148438 259.414062 548.605469 259.238281 C 547.699219 258.941406 546.757812 258.71875 545.828125 258.515625 C 543.507812 258.011719 541.140625 257.695312 538.769531 257.566406 C 531.761719 257.179688 524.683594 258.449219 518.570312 262 C 518.082031 262.28125 517.910156 262.914062 518.195312 263.402344 C 518.476562 263.890625 519.109375 264.058594 519.597656 263.777344 C 525.375 260.421875 532.089844 259.230469 538.710938 259.609375 C 540.945312 259.734375 543.179688 260.035156 545.371094 260.511719 C 546.246094 260.707031 547.121094 260.917969 547.972656 261.195312 Z M 547.972656 268.292969 C 548.511719 268.46875 549.09375 268.171875 549.269531 267.632812 C 549.445312 267.089844 549.148438 266.515625 548.605469 266.335938 C 547.699219 266.039062 546.761719 265.816406 545.828125 265.613281 C 543.507812 265.109375 541.140625 264.796875 538.769531 264.664062 C 531.761719 264.277344 524.683594 265.546875 518.570312 269.097656 C 518.082031 269.378906 517.910156 270.011719 518.195312 270.5 C 518.476562 270.992188 519.109375 271.160156 519.597656 270.875 C 525.375 267.519531 532.089844 266.332031 538.710938 266.707031 C 540.945312 266.835938 543.179688 267.136719 545.367188 267.613281 C 546.246094 267.804688 547.121094 268.015625 547.972656 268.292969 Z M 547.972656 275.390625 C 548.511719 275.566406 549.09375 275.273438 549.269531 274.730469 C 549.445312 274.191406 549.148438 273.613281 548.605469 273.4375 C 547.699219 273.140625 546.757812 272.914062 545.828125 272.710938 C 543.507812 272.207031 541.140625 271.894531 538.769531 271.765625 C 531.761719 271.378906 524.683594 272.644531 518.570312 276.195312 C 518.082031 276.480469 517.910156 277.113281 518.195312 277.601562 C 518.476562 278.089844 519.109375 278.257812 519.597656 277.972656 C 525.375 274.621094 532.089844 273.429688 538.710938 273.804688 C 540.945312 273.933594 543.179688 274.234375 545.371094 274.710938 C 546.246094 274.902344 547.121094 275.113281 547.972656 275.390625 Z M 547.972656 282.492188 C 548.511719 282.667969 549.09375 282.371094 549.269531 281.832031 C 549.445312 281.289062 549.148438 280.710938 548.605469 280.535156 C 547.699219 280.238281 546.757812 280.011719 545.824219 279.8125 C 543.503906 279.304688 541.136719 278.992188 538.769531 278.863281 C 531.761719 278.476562 524.683594 279.746094 518.570312 283.296875 C 518.082031 283.578125 517.910156 284.210938 518.195312 284.699219 C 518.476562 285.1875 519.109375 285.359375 519.597656 285.074219 C 525.375 281.71875 532.089844 280.527344 538.710938 280.90625 C 540.945312 281.03125 543.179688 281.332031 545.367188 281.808594 C 546.246094 282 547.121094 282.214844 547.972656 282.492188 Z M 547.972656 290.472656 C 548.511719 290.648438 549.09375 290.351562 549.269531 289.8125 C 549.445312 289.273438 549.148438 288.691406 548.609375 288.515625 C 547.710938 288.226562 546.785156 288.003906 545.863281 287.800781 C 543.546875 287.296875 541.179688 286.980469 538.8125 286.847656 C 531.792969 286.453125 524.695312 287.71875 518.570312 291.277344 C 518.082031 291.5625 517.910156 292.191406 518.195312 292.683594 C 518.476562 293.167969 519.109375 293.339844 519.597656 293.054688 C 525.375 289.699219 532.089844 288.511719 538.710938 288.886719 C 540.945312 289.015625 543.179688 289.316406 545.371094 289.792969 C 546.246094 289.984375 547.121094 290.195312 547.972656 290.472656 Z M 547.972656 299.335938 C 548.511719 299.515625 549.09375 299.21875 549.269531 298.679688 C 549.445312 298.136719 549.148438 297.558594 548.605469 297.382812 C 547.699219 297.085938 546.757812 296.859375 545.824219 296.65625 C 543.503906 296.152344 541.136719 295.839844 538.769531 295.710938 C 531.761719 295.324219 524.683594 296.589844 518.570312 300.144531 C 518.082031 300.425781 517.910156 301.058594 518.195312 301.546875 C 518.476562 302.035156 519.109375 302.207031 519.597656 301.921875 C 525.375 298.566406 532.089844 297.375 538.710938 297.753906 C 540.945312 297.878906 543.179688 298.179688 545.371094 298.65625 C 546.246094 298.847656 547.121094 299.0625 547.972656 299.335938 Z M 547.972656 308.203125 C 548.511719 308.378906 549.09375 308.082031 549.269531 307.542969 C 549.445312 307 549.148438 306.425781 548.605469 306.246094 C 547.699219 305.949219 546.757812 305.726562 545.824219 305.523438 C 543.503906 305.019531 541.140625 304.703125 538.769531 304.574219 C 531.761719 304.1875 524.683594 305.457031 518.570312 309.007812 C 518.082031 309.292969 517.910156 309.921875 518.195312 310.414062 C 518.476562 310.898438 519.109375 311.070312 519.597656 310.785156 C 525.375 307.429688 532.089844 306.242188 538.710938 306.617188 C 540.945312 306.746094 543.179688 307.042969 545.371094 307.523438 C 546.246094 307.714844 547.121094 307.925781 547.972656 308.203125 " fill-opacity="1" fill-rule="evenodd"/><path fill="#ffffff" d="M 566.746094 247.851562 C 568.371094 247.851562 569.691406 249.167969 569.691406 250.792969 L 569.691406 340.058594 C 569.691406 341.683594 568.371094 343 566.746094 343 L 457.246094 343 C 455.621094 343 454.300781 341.683594 454.300781 340.058594 L 454.300781 250.792969 C 454.300781 249.167969 455.621094 247.851562 457.246094 247.851562 L 463.90625 247.851562 L 463.90625 328.042969 C 463.90625 330.640625 466.015625 332.75 468.613281 332.75 C 469.359375 332.75 470.078125 332.570312 470.746094 332.242188 C 471.78125 331.726562 473.089844 331.367188 474.210938 331.0625 C 477.007812 330.296875 479.90625 329.847656 482.796875 329.667969 C 492.054688 329.101562 501.082031 331.300781 509.125 335.890625 L 509.660156 336.199219 C 510.359375 336.597656 511.144531 336.808594 511.949219 336.816406 L 512.003906 336.816406 C 512.820312 336.816406 513.621094 336.605469 514.332031 336.199219 L 514.867188 335.890625 C 522.914062 331.300781 531.9375 329.105469 541.195312 329.667969 C 544.089844 329.847656 546.988281 330.296875 549.785156 331.0625 C 550.902344 331.367188 552.210938 331.726562 553.246094 332.242188 C 553.914062 332.570312 554.632812 332.75 555.378906 332.75 C 557.980469 332.75 560.089844 330.640625 560.089844 328.042969 L 560.089844 247.851562 L 566.746094 247.851562 " fill-opacity="1" fill-rule="evenodd"/></svg>