<svg xmlns="http://www.w3.org/2000/svg" xmlns:xlink="http://www.w3.org/1999/xlink" width="1366" zoomAndPan="magnify" viewBox="0 0 1024.5 576" height="768" preserveAspectRatio="xMidYMid meet" version="1.0"><defs><clipPath id="eeb32e9b74"><path d="M 0 0.140625 L 1024 0.140625 L 1024 575.859375 L 0 575.859375 Z M 0 0.140625 " clip-rule="nonzero"/></clipPath><clipPath id="1e45bb363a"><path d="M 434.710938 227.863281 L 589 227.863281 L 589 347.660156 L 434.710938 347.660156 Z M 434.710938 227.863281 " clip-rule="nonzero"/></clipPath></defs><g clip-path="url(#eeb32e9b74)"><path fill="#ffffff" d="M 0 0.140625 L 1024 0.140625 L 1024 575.859375 L 0 575.859375 Z M 0 0.140625 " fill-opacity="1" fill-rule="nonzero"/><path fill="#ffffff" d="M 0 0.140625 L 1024 0.140625 L 1024 575.859375 L 0 575.859375 Z M 0 0.140625 " fill-opacity="1" fill-rule="nonzero"/></g><g clip-path="url(#1e45bb363a)"><path fill="#1a495d" d="M 577.234375 264.058594 C 576.605469 259.394531 576.523438 251.351562 580.859375 248.660156 C 580.929688 248.613281 580.992188 248.539062 581.0625 248.480469 C 584.601562 247.34375 587.054688 245.75 585.132812 243.613281 L 532.867188 227.863281 L 448.246094 239.628906 C 448.246094 239.628906 438.5625 241.015625 439.421875 256.074219 C 439.890625 264.261719 442.464844 268.285156 444.710938 270.265625 L 437.765625 272.367188 C 435.84375 274.503906 438.296875 276.085938 441.835938 277.21875 C 441.90625 277.28125 441.957031 277.355469 442.039062 277.402344 C 446.363281 280.105469 446.28125 288.136719 445.664062 292.8125 C 430.109375 297.21875 435.6875 298.667969 435.6875 298.667969 L 439.105469 299.488281 C 436.703125 301.664062 434.3125 305.769531 434.769531 313.570312 C 435.628906 328.628906 443.585938 329.667969 443.585938 329.667969 L 498.96875 347.660156 L 582.546875 327.421875 C 582.546875 327.421875 588.128906 325.972656 572.574219 321.554688 C 571.945312 316.902344 571.859375 308.859375 576.195312 306.15625 C 576.28125 306.105469 576.328125 306.035156 576.402344 305.972656 C 579.941406 304.839844 582.390625 303.257812 580.472656 301.121094 L 576.835938 300.019531 C 579.265625 298.558594 582.898438 294.742188 583.464844 284.816406 C 583.863281 278.003906 582.078125 274.007812 580.023438 271.652344 L 587.199219 269.914062 C 587.199219 269.914062 592.789062 268.476562 577.234375 264.058594 Z M 507.324219 263.863281 L 521.371094 260.976562 L 568.878906 251.207031 L 575.953125 249.757812 C 573.683594 253.902344 573.78125 259.566406 574.15625 263.199219 C 574.238281 264.019531 574.335938 264.769531 574.421875 265.351562 L 566.679688 267.269531 L 506.734375 282.183594 Z M 446.945312 278.511719 L 454.019531 279.960938 L 499.632812 289.34375 L 503.617188 290.167969 L 515.574219 292.617188 L 516.152344 310.9375 L 454.539062 295.613281 L 448.464844 294.101562 C 448.5625 293.523438 448.648438 292.773438 448.742188 291.953125 C 449.105469 288.320312 449.203125 282.65625 446.945312 278.511719 Z M 444.191406 255.351562 C 444.105469 251.339844 444.816406 248.441406 446.265625 246.96875 C 447.183594 246.027344 448.273438 245.835938 449.007812 245.835938 C 449.40625 245.835938 449.683594 245.894531 449.710938 245.894531 L 486.167969 257.777344 L 504.355469 263.707031 L 503.761719 282.160156 L 452.726562 267.847656 L 450.035156 267.101562 C 449.9375 267.078125 449.792969 267.050781 449.695312 267.050781 C 449.480469 267.027344 444.445312 266.570312 444.191406 255.351562 Z M 499.101562 339.667969 L 445.375 324.609375 C 445.277344 324.570312 445.144531 324.558594 445.035156 324.546875 C 444.816406 324.535156 439.769531 324.078125 439.527344 312.859375 C 439.445312 308.847656 440.15625 305.949219 441.605469 304.476562 C 442.523438 303.535156 443.597656 303.339844 444.347656 303.339844 C 444.734375 303.339844 445.023438 303.402344 445.035156 303.402344 C 445.035156 303.402344 445.046875 303.402344 445.035156 303.402344 L 499.691406 321.214844 Z M 569.496094 320.707031 C 569.578125 321.527344 569.675781 322.277344 569.761719 322.855469 L 502.070312 339.691406 L 502.652344 321.371094 L 517.132812 318.390625 L 519.269531 318.90625 L 527.277344 316.3125 L 564.203125 308.714844 L 571.28125 307.265625 C 569.023438 311.398438 569.121094 317.058594 569.496094 320.707031 Z M 573.226562 295.792969 C 573.105469 295.804688 572.972656 295.816406 572.863281 295.855469 L 567.753906 297.292969 L 519.136719 310.914062 L 518.542969 292.460938 L 534.496094 287.257812 L 573.117188 274.660156 C 573.117188 274.660156 575.144531 274.214844 576.632812 275.722656 C 578.070312 277.195312 578.792969 280.09375 578.707031 284.105469 C 578.453125 295.324219 573.40625 295.78125 573.226562 295.792969 Z M 573.226562 295.792969 " fill-opacity="1" fill-rule="nonzero"/></g></svg>