<svg xmlns="http://www.w3.org/2000/svg" xmlns:xlink="http://www.w3.org/1999/xlink" width="1366" zoomAndPan="magnify" viewBox="0 0 1024.5 576" height="768" preserveAspectRatio="xMidYMid meet" version="1.0"><defs><clipPath id="1e5b7ce56e"><path d="M 0 0.140625 L 1024 0.140625 L 1024 575.859375 L 0 575.859375 Z M 0 0.140625 " clip-rule="nonzero"/></clipPath><clipPath id="d38af08a09"><path d="M 420 230 L 604 230 L 604 347.246094 L 420 347.246094 Z M 420 230 " clip-rule="nonzero"/></clipPath></defs><g clip-path="url(#1e5b7ce56e)"><path fill="#ffffff" d="M 0 0.140625 L 1024 0.140625 L 1024 575.859375 L 0 575.859375 Z M 0 0.140625 " fill-opacity="1" fill-rule="nonzero"/><path fill="#ffffff" d="M 0 0.140625 L 1024 0.140625 L 1024 575.859375 L 0 575.859375 Z M 0 0.140625 " fill-opacity="1" fill-rule="nonzero"/></g><g clip-path="url(#d38af08a09)"><path fill="#1a495d" d="M 603.34375 278.828125 C 602.226562 276.136719 599.140625 274.863281 596.457031 275.976562 C 578.613281 283.375 564.28125 283.820312 553.199219 281.34375 C 552.929688 281.257812 552.660156 281.207031 552.386719 281.167969 C 533.476562 276.636719 524.320312 263.582031 523.699219 262.667969 C 522.082031 260.25 518.808594 259.597656 516.398438 261.207031 C 513.976562 262.820312 513.3125 266.089844 514.929688 268.515625 C 515.082031 268.75 524.238281 282.042969 542.71875 289.015625 C 540.332031 295.785156 536.289062 308.796875 535.199219 321.84375 C 535.199219 321.84375 536.292969 322.054688 538.144531 322.355469 C 537.242188 331.257812 537.011719 338.046875 536.996094 338.6875 C 536.90625 341.597656 539.191406 344.027344 542.097656 344.117188 C 542.15625 344.117188 542.210938 344.121094 542.265625 344.121094 C 545.101562 344.121094 547.4375 341.867188 547.527344 339.011719 C 547.535156 338.863281 547.753906 332.285156 548.613281 323.652344 C 551.574219 323.917969 554.800781 324.117188 558.070312 324.144531 C 564.332031 338.378906 572.742188 345.453125 573.320312 345.925781 C 574.296875 346.722656 575.476562 347.109375 576.644531 347.109375 C 578.171875 347.109375 579.691406 346.449219 580.738281 345.167969 C 582.574219 342.914062 582.234375 339.59375 579.976562 337.753906 C 579.871094 337.671875 574.335938 332.988281 569.398438 323.414062 C 572.308594 322.949219 574.996094 322.230469 577.25 321.171875 C 577.25 321.171875 572.019531 305.195312 571.667969 292.949219 C 580.277344 292.289062 589.875 290.113281 600.496094 285.714844 C 603.183594 284.601562 604.460938 281.515625 603.34375 278.828125 Z M 507.40625 261.226562 C 504.996094 259.609375 501.726562 260.253906 500.101562 262.660156 C 499.511719 263.53125 490.351562 276.632812 471.402344 281.171875 C 471.128906 281.210938 470.855469 281.265625 470.585938 281.347656 C 459.503906 283.820312 445.179688 283.371094 427.335938 275.976562 C 424.648438 274.863281 421.5625 276.136719 420.453125 278.828125 C 419.335938 281.515625 420.609375 284.601562 423.300781 285.714844 C 436.316406 291.109375 447.808594 293.199219 457.808594 293.199219 C 457.925781 293.199219 458.03125 293.183594 458.148438 293.183594 C 458.804688 297.421875 459.546875 303.769531 459.410156 310.464844 C 454.542969 328.570312 444.390625 337.28125 443.796875 337.773438 C 441.558594 339.609375 441.226562 342.917969 443.058594 345.171875 C 444.101562 346.449219 445.617188 347.113281 447.148438 347.113281 C 448.320312 347.113281 449.496094 346.722656 450.472656 345.929688 C 451.152344 345.375 462.734375 335.625 468.824219 315.742188 C 470.5625 315.40625 472.375 315.148438 474.160156 315.03125 C 475.878906 327.519531 476.261719 338.816406 476.269531 339.011719 C 476.359375 341.863281 478.695312 344.121094 481.53125 344.121094 C 481.585938 344.121094 481.640625 344.117188 481.699219 344.117188 C 484.605469 344.027344 486.886719 341.597656 486.800781 338.6875 C 486.777344 337.859375 486.40625 326.789062 484.671875 314.117188 C 484.707031 308.339844 484.660156 296.90625 483.929688 287.867188 C 500.496094 280.679688 508.722656 268.738281 508.871094 268.515625 C 510.472656 266.09375 509.816406 262.84375 507.40625 261.226562 Z M 464.898438 279.691406 C 475.824219 279.691406 484.675781 270.839844 484.675781 259.914062 C 484.675781 248.992188 475.824219 240.136719 464.898438 240.136719 C 453.976562 240.136719 445.117188 248.992188 445.117188 259.914062 C 445.117188 270.839844 453.976562 279.691406 464.898438 279.691406 Z M 546.671875 244.875 C 547.058594 245.554688 546.964844 246.421875 546.453125 247.015625 C 544.375 249.425781 542.867188 252.359375 542.148438 255.722656 C 539.773438 266.835938 547.234375 277.761719 558.667969 279.4375 C 568.882812 280.929688 578.710938 274.042969 580.84375 263.945312 C 581.546875 260.621094 581.367188 257.339844 580.457031 254.304688 C 580.238281 253.5625 580.507812 252.742188 581.128906 252.273438 C 586.761719 248.03125 581.453125 267.738281 601.648438 263.273438 C 589.195312 260.359375 595.371094 248.960938 593.839844 244.359375 C 592.375 240.046875 584.6875 236.21875 577.796875 247.164062 C 577.546875 247.566406 576.988281 247.597656 576.6875 247.234375 C 573.953125 243.910156 570.167969 241.488281 565.632812 240.515625 C 561.132812 239.554688 556.65625 240.210938 552.832031 242.101562 C 552.410156 242.308594 551.917969 242.054688 551.851562 241.585938 C 550.007812 228.800781 541.417969 229.148438 538.324219 232.484375 C 535.042969 236.058594 536.015625 248.984375 523.457031 246.550781 C 540.007812 258.875 543.25 238.785156 546.671875 244.875 Z M 546.671875 244.875 " fill-opacity="1" fill-rule="nonzero"/></g></svg>