<svg xmlns="http://www.w3.org/2000/svg" xmlns:xlink="http://www.w3.org/1999/xlink" width="1366" zoomAndPan="magnify" viewBox="0 0 1024.5 576" height="768" preserveAspectRatio="xMidYMid meet" version="1.0"><defs><clipPath id="39b23f03c3"><path d="M 0 0.140625 L 1024 0.140625 L 1024 575.859375 L 0 575.859375 Z M 0 0.140625 " clip-rule="nonzero"/></clipPath><clipPath id="45993b4319"><path d="M 433.238281 231.148438 L 590.664062 231.148438 L 590.664062 345 L 433.238281 345 Z M 433.238281 231.148438 " clip-rule="nonzero"/></clipPath></defs><g clip-path="url(#39b23f03c3)"><path fill="#ffffff" d="M 0 0.140625 L 1024 0.140625 L 1024 575.859375 L 0 575.859375 Z M 0 0.140625 " fill-opacity="1" fill-rule="nonzero"/><path fill="#ffffff" d="M 0 0.140625 L 1024 0.140625 L 1024 575.859375 L 0 575.859375 Z M 0 0.140625 " fill-opacity="1" fill-rule="nonzero"/></g><g clip-path="url(#45993b4319)"><path fill="#1a495d" d="M 586.21875 248.902344 L 586.21875 242.886719 C 586.21875 242.320312 585.777344 241.878906 585.210938 241.878906 L 579.824219 241.878906 L 579.824219 237.402344 C 579.824219 236.835938 579.382812 236.394531 578.816406 236.394531 L 573.648438 236.394531 L 573.648438 232.238281 C 573.648438 231.953125 573.523438 231.671875 573.304688 231.480469 C 573.082031 231.292969 572.800781 231.199219 572.484375 231.230469 C 545.863281 234.160156 518.800781 249.5 515.96875 251.140625 L 508.027344 251.140625 C 505.160156 249.5 478.101562 234.160156 451.480469 231.230469 C 451.195312 231.199219 450.914062 231.292969 450.691406 231.480469 C 450.472656 231.671875 450.347656 231.953125 450.347656 232.238281 L 450.347656 236.394531 L 445.210938 236.394531 C 444.644531 236.394531 444.203125 236.835938 444.203125 237.402344 L 444.203125 241.847656 L 438.816406 241.847656 C 438.25 241.847656 437.808594 242.285156 437.808594 242.855469 L 437.808594 248.902344 L 434.246094 248.902344 C 433.679688 248.902344 433.238281 249.34375 433.238281 249.910156 L 433.238281 339.539062 C 433.238281 339.539062 467.765625 340.453125 507.746094 344.800781 L 516.25 344.800781 C 556.261719 340.484375 590.757812 339.539062 590.757812 339.539062 L 590.757812 249.910156 C 590.757812 249.34375 590.316406 248.902344 589.75 248.902344 Z M 584.171875 243.894531 L 584.171875 331.410156 C 584.171875 331.410156 584.171875 331.410156 584.171875 331.441406 C 578.566406 331.566406 550.652344 332.449219 525.261719 338.183594 C 537.167969 333.992188 559.285156 327.15625 578.816406 326.402344 C 579.351562 326.371094 579.792969 325.929688 579.792969 325.394531 L 579.792969 243.894531 Z M 577.777344 238.414062 L 577.777344 324.417969 C 561.300781 325.234375 543.1875 330.148438 530.804688 334.183594 C 541.609375 329.238281 557.238281 323.28125 572.703125 321.582031 C 573.210938 321.519531 573.617188 321.078125 573.617188 320.574219 L 573.617188 238.414062 Z M 517.257812 252.746094 C 521.070312 250.539062 546.398438 236.492188 571.601562 233.371094 L 571.601562 319.660156 C 547.597656 322.558594 523.464844 335.285156 517.257812 338.75 Z M 508.753906 253.15625 L 515.210938 253.15625 L 515.210938 339.476562 L 508.753906 339.476562 Z M 452.394531 233.371094 C 477.566406 236.457031 502.925781 250.539062 506.738281 252.746094 L 506.738281 338.75 C 500.53125 335.285156 476.398438 322.558594 452.394531 319.660156 Z M 446.21875 238.414062 L 450.378906 238.414062 L 450.378906 320.574219 C 450.378906 321.078125 450.753906 321.519531 451.289062 321.582031 C 466.757812 323.28125 482.386719 329.238281 493.191406 334.183594 C 480.839844 330.179688 462.695312 325.234375 446.21875 324.417969 Z M 439.824219 243.894531 L 444.203125 243.894531 L 444.203125 325.394531 C 444.203125 325.929688 444.644531 326.371094 445.179688 326.402344 C 464.710938 327.15625 486.859375 333.992188 498.734375 338.183594 C 473.3125 332.417969 445.398438 331.535156 439.824219 331.441406 C 439.824219 331.441406 439.824219 331.441406 439.824219 331.410156 Z M 439.824219 243.894531 " fill-opacity="1" fill-rule="nonzero"/></g><path fill="#1a495d" d="M 566.371094 246.351562 C 547.1875 249.941406 528.851562 259.109375 521.828125 262.890625 C 521.324219 263.140625 521.164062 263.773438 521.417969 264.246094 C 521.605469 264.589844 521.953125 264.78125 522.300781 264.78125 C 522.457031 264.78125 522.613281 264.75 522.773438 264.65625 C 529.703125 260.90625 547.816406 251.832031 566.71875 248.304688 C 567.253906 248.210938 567.632812 247.675781 567.539062 247.136719 C 567.445312 246.601562 566.910156 246.226562 566.371094 246.351562 Z M 566.371094 246.351562 " fill-opacity="1" fill-rule="nonzero"/><path fill="#1a495d" d="M 566.371094 255.140625 C 547.1875 258.730469 528.851562 267.898438 521.828125 271.679688 C 521.324219 271.933594 521.164062 272.5625 521.417969 273.035156 C 521.605469 273.382812 521.953125 273.570312 522.300781 273.570312 C 522.457031 273.570312 522.613281 273.539062 522.773438 273.445312 C 529.703125 269.695312 547.816406 260.621094 566.71875 257.09375 C 567.253906 257 567.632812 256.464844 567.539062 255.929688 C 567.445312 255.390625 566.910156 255.046875 566.371094 255.140625 Z M 566.371094 255.140625 " fill-opacity="1" fill-rule="nonzero"/><path fill="#1a495d" d="M 566.371094 263.960938 C 547.1875 267.554688 528.851562 276.71875 521.828125 280.5 C 521.324219 280.753906 521.164062 281.382812 521.417969 281.855469 C 521.605469 282.203125 521.953125 282.390625 522.300781 282.390625 C 522.457031 282.390625 522.613281 282.359375 522.773438 282.265625 C 529.703125 278.515625 547.816406 269.441406 566.71875 265.914062 C 567.253906 265.820312 567.632812 265.285156 567.539062 264.75 C 567.445312 264.214844 566.910156 263.835938 566.371094 263.960938 Z M 566.371094 263.960938 " fill-opacity="1" fill-rule="nonzero"/><path fill="#1a495d" d="M 566.371094 272.75 C 547.1875 276.34375 528.851562 285.507812 521.828125 289.289062 C 521.324219 289.542969 521.164062 290.171875 521.417969 290.644531 C 521.605469 290.992188 521.953125 291.179688 522.300781 291.179688 C 522.457031 291.179688 522.613281 291.148438 522.773438 291.054688 C 529.703125 287.304688 547.816406 278.234375 566.71875 274.703125 C 567.253906 274.609375 567.632812 274.074219 567.539062 273.539062 C 567.445312 273.003906 566.910156 272.65625 566.371094 272.75 Z M 566.371094 272.75 " fill-opacity="1" fill-rule="nonzero"/><path fill="#1a495d" d="M 566.371094 281.539062 C 547.1875 285.132812 528.851562 294.300781 521.828125 298.078125 C 521.324219 298.332031 521.164062 298.960938 521.417969 299.433594 C 521.605469 299.78125 521.953125 299.96875 522.300781 299.96875 C 522.457031 299.96875 522.613281 299.9375 522.773438 299.84375 C 529.703125 296.09375 547.816406 287.023438 566.71875 283.492188 C 567.253906 283.398438 567.632812 282.863281 567.539062 282.328125 C 567.445312 281.824219 566.910156 281.445312 566.371094 281.539062 Z M 566.371094 281.539062 " fill-opacity="1" fill-rule="nonzero"/><path fill="#1a495d" d="M 566.371094 290.359375 C 547.1875 293.953125 528.851562 303.121094 521.828125 306.902344 C 521.324219 307.152344 521.164062 307.78125 521.417969 308.253906 C 521.605469 308.601562 521.953125 308.789062 522.300781 308.789062 C 522.457031 308.789062 522.613281 308.757812 522.773438 308.664062 C 529.703125 304.914062 547.816406 295.84375 566.71875 292.3125 C 567.253906 292.21875 567.632812 291.683594 567.539062 291.148438 C 567.445312 290.613281 566.910156 290.234375 566.371094 290.359375 Z M 566.371094 290.359375 " fill-opacity="1" fill-rule="nonzero"/><path fill="#1a495d" d="M 566.371094 299.152344 C 547.1875 302.742188 528.851562 311.910156 521.828125 315.691406 C 521.324219 315.941406 521.164062 316.570312 521.417969 317.042969 C 521.605469 317.390625 521.953125 317.582031 522.300781 317.582031 C 522.457031 317.582031 522.613281 317.546875 522.773438 317.453125 C 529.703125 313.707031 547.816406 304.632812 566.71875 301.105469 C 567.253906 301.007812 567.632812 300.472656 567.539062 299.9375 C 567.445312 299.402344 566.910156 299.054688 566.371094 299.152344 Z M 566.371094 299.152344 " fill-opacity="1" fill-rule="nonzero"/><path fill="#1a495d" d="M 566.371094 307.972656 C 547.1875 311.5625 528.851562 320.730469 521.828125 324.511719 C 521.324219 324.761719 521.164062 325.394531 521.417969 325.867188 C 521.605469 326.210938 521.953125 326.402344 522.300781 326.402344 C 522.457031 326.402344 522.613281 326.371094 522.773438 326.273438 C 529.703125 322.527344 547.816406 313.453125 566.71875 309.925781 C 567.253906 309.832031 567.632812 309.292969 567.539062 308.757812 C 567.445312 308.222656 566.910156 307.84375 566.371094 307.972656 Z M 566.371094 307.972656 " fill-opacity="1" fill-rule="nonzero"/><path fill="#1a495d" d="M 502.167969 262.890625 C 495.175781 259.109375 476.808594 249.910156 457.625 246.351562 C 457.085938 246.257812 456.550781 246.601562 456.457031 247.171875 C 456.363281 247.707031 456.710938 248.242188 457.277344 248.335938 C 476.179688 251.863281 494.292969 260.9375 501.222656 264.6875 C 501.382812 264.78125 501.539062 264.8125 501.695312 264.8125 C 502.042969 264.8125 502.390625 264.621094 502.578125 264.277344 C 502.832031 263.773438 502.671875 263.140625 502.167969 262.890625 Z M 502.167969 262.890625 " fill-opacity="1" fill-rule="nonzero"/><path fill="#1a495d" d="M 502.167969 271.679688 C 495.175781 267.898438 476.808594 258.699219 457.625 255.140625 C 457.085938 255.046875 456.550781 255.390625 456.457031 255.960938 C 456.363281 256.496094 456.710938 257.03125 457.277344 257.125 C 476.179688 260.652344 494.292969 269.726562 501.222656 273.476562 C 501.382812 273.570312 501.539062 273.601562 501.695312 273.601562 C 502.042969 273.601562 502.390625 273.414062 502.578125 273.066406 C 502.832031 272.5625 502.671875 271.964844 502.167969 271.679688 Z M 502.167969 271.679688 " fill-opacity="1" fill-rule="nonzero"/><path fill="#1a495d" d="M 502.167969 280.5 C 495.175781 276.71875 476.808594 267.519531 457.625 263.960938 C 457.085938 263.867188 456.550781 264.214844 456.457031 264.78125 C 456.363281 265.316406 456.710938 265.851562 457.277344 265.945312 C 476.179688 269.472656 494.292969 278.546875 501.222656 282.296875 C 501.382812 282.390625 501.539062 282.421875 501.695312 282.421875 C 502.042969 282.421875 502.390625 282.234375 502.578125 281.886719 C 502.832031 281.382812 502.671875 280.753906 502.167969 280.5 Z M 502.167969 280.5 " fill-opacity="1" fill-rule="nonzero"/><path fill="#1a495d" d="M 502.167969 289.289062 C 495.175781 285.507812 476.808594 276.3125 457.625 272.75 C 457.085938 272.65625 456.550781 273.003906 456.457031 273.570312 C 456.363281 274.105469 456.710938 274.640625 457.277344 274.734375 C 476.179688 278.265625 494.292969 287.335938 501.222656 291.085938 C 501.382812 291.179688 501.539062 291.210938 501.695312 291.210938 C 502.042969 291.210938 502.390625 291.023438 502.578125 290.675781 C 502.832031 290.171875 502.671875 289.574219 502.167969 289.289062 Z M 502.167969 289.289062 " fill-opacity="1" fill-rule="nonzero"/><path fill="#1a495d" d="M 502.167969 298.109375 C 495.175781 294.332031 476.808594 285.132812 457.625 281.570312 C 457.085938 281.476562 456.550781 281.824219 456.457031 282.390625 C 456.363281 282.925781 456.710938 283.460938 457.277344 283.554688 C 476.179688 287.085938 494.292969 296.15625 501.222656 299.90625 C 501.382812 300 501.539062 300.03125 501.695312 300.03125 C 502.042969 300.03125 502.390625 299.84375 502.578125 299.496094 C 502.832031 298.992188 502.671875 298.363281 502.167969 298.109375 Z M 502.167969 298.109375 " fill-opacity="1" fill-rule="nonzero"/><path fill="#1a495d" d="M 502.167969 306.902344 C 495.175781 303.121094 476.808594 293.921875 457.625 290.359375 C 457.085938 290.265625 456.550781 290.613281 456.457031 291.179688 C 456.363281 291.714844 456.710938 292.25 457.277344 292.347656 C 476.179688 295.875 494.292969 304.949219 501.222656 308.695312 C 501.382812 308.789062 501.539062 308.820312 501.695312 308.820312 C 502.042969 308.820312 502.390625 308.632812 502.578125 308.285156 C 502.832031 307.78125 502.671875 307.183594 502.167969 306.902344 Z M 502.167969 306.902344 " fill-opacity="1" fill-rule="nonzero"/><path fill="#1a495d" d="M 502.167969 315.722656 C 495.175781 311.941406 476.808594 302.742188 457.625 299.183594 C 457.085938 299.085938 456.550781 299.433594 456.457031 300 C 456.363281 300.535156 456.710938 301.074219 457.277344 301.167969 C 476.179688 304.695312 494.292969 313.769531 501.222656 317.515625 C 501.382812 317.613281 501.539062 317.644531 501.695312 317.644531 C 502.042969 317.644531 502.390625 317.453125 502.578125 317.109375 C 502.832031 316.570312 502.671875 315.972656 502.167969 315.722656 Z M 502.167969 315.722656 " fill-opacity="1" fill-rule="nonzero"/><path fill="#1a495d" d="M 502.167969 324.511719 C 495.175781 320.730469 476.808594 311.53125 457.625 307.972656 C 457.085938 307.878906 456.550781 308.222656 456.457031 308.789062 C 456.363281 309.328125 456.710938 309.863281 457.277344 309.957031 C 476.179688 313.484375 494.292969 322.558594 501.222656 326.304688 C 501.382812 326.402344 501.539062 326.433594 501.695312 326.433594 C 502.042969 326.433594 502.390625 326.242188 502.578125 325.898438 C 502.832031 325.394531 502.671875 324.761719 502.167969 324.511719 Z M 502.167969 324.511719 " fill-opacity="1" fill-rule="nonzero"/></svg>