<svg xmlns="http://www.w3.org/2000/svg" xmlns:xlink="http://www.w3.org/1999/xlink" width="1366" zoomAndPan="magnify" viewBox="0 0 1024.5 576" height="768" preserveAspectRatio="xMidYMid meet" version="1.0"><defs><clipPath id="6209c97098"><path d="M 0 0.140625 L 1024 0.140625 L 1024 575.859375 L 0 575.859375 Z M 0 0.140625 " clip-rule="nonzero"/></clipPath><clipPath id="6596915fd9"><path d="M 429 217 L 595 217 L 595 361.289062 L 429 361.289062 Z M 429 217 " clip-rule="nonzero"/></clipPath></defs><g clip-path="url(#6209c97098)"><path fill="#ffffff" d="M 0 0.140625 L 1024 0.140625 L 1024 575.859375 L 0 575.859375 Z M 0 0.140625 " fill-opacity="1" fill-rule="nonzero"/><path fill="#ffffff" d="M 0 0.140625 L 1024 0.140625 L 1024 575.859375 L 0 575.859375 Z M 0 0.140625 " fill-opacity="1" fill-rule="nonzero"/></g><g clip-path="url(#6596915fd9)"><path fill="#1a495d" d="M 511.9375 361.605469 C 510.828125 361.597656 510.109375 360.972656 509.941406 360.820312 L 445.921875 296.800781 C 430.6875 283.011719 425.445312 261.996094 432.546875 244.546875 C 440.824219 224.214844 461.714844 218.90625 463.125 218.578125 C 481.074219 214.386719 500.261719 222.195312 511.957031 238.117188 C 523.648438 222.195312 542.839844 214.390625 560.789062 218.578125 C 561.691406 218.789062 582.992188 223.972656 591.363281 244.546875 C 598.519531 262.132812 593.144531 283.125 577.988281 296.800781 L 513.96875 360.820312 C 513.808594 360.96875 513.070312 361.613281 511.9375 361.605469 Z M 511.9375 361.605469 " fill-opacity="1" fill-rule="nonzero"/></g></svg>