<svg xmlns="http://www.w3.org/2000/svg" xmlns:xlink="http://www.w3.org/1999/xlink" width="1366" zoomAndPan="magnify" viewBox="0 0 1024.5 576" height="768" preserveAspectRatio="xMidYMid meet" version="1.0"><defs><clipPath id="81668dcd02"><path d="M 0 0.140625 L 1024 0.140625 L 1024 575.859375 L 0 575.859375 Z M 0 0.140625 " clip-rule="nonzero"/></clipPath><clipPath id="f8ef03fee7"><path d="M 509 316 L 517 316 L 517 363.195312 L 509 363.195312 Z M 509 316 " clip-rule="nonzero"/></clipPath></defs><g clip-path="url(#81668dcd02)"><path fill="#ffffff" d="M 0 0.140625 L 1024 0.140625 L 1024 575.859375 L 0 575.859375 Z M 0 0.140625 " fill-opacity="1" fill-rule="nonzero"/><path fill="#ffffff" d="M 0 0.140625 L 1024 0.140625 L 1024 575.859375 L 0 575.859375 Z M 0 0.140625 " fill-opacity="1" fill-rule="nonzero"/></g><path fill="#1a495d" d="M 534.804688 284.011719 C 535.757812 271.890625 525.828125 247.589844 510.144531 241.644531 C 494.460938 235.703125 484.476562 221.921875 478.773438 220.96875 C 478.03125 220.847656 484.238281 240.78125 480.910156 248.820312 C 477.585938 256.859375 469.351562 273.121094 475.867188 292.089844 C 479.800781 303.535156 486.5625 312.765625 503.671875 313.71875 C 520.785156 314.671875 533.855469 296.132812 534.804688 284.011719 Z M 534.804688 284.011719 " fill-opacity="1" fill-rule="nonzero"/><path fill="#1a495d" d="M 533.058594 312.574219 C 529.324219 313.828125 525.128906 314.460938 520.507812 314.460938 C 519.746094 314.460938 518.960938 314.441406 518.175781 314.410156 C 518.113281 314.40625 518.058594 314.398438 518 314.394531 C 524.726562 316.53125 530.214844 321.628906 531.414062 328.171875 C 531.410156 327.625 538.953125 318.0625 533.058594 312.574219 Z M 533.058594 312.574219 " fill-opacity="1" fill-rule="nonzero"/><path fill="#1a495d" d="M 507.464844 318.445312 L 506.863281 318.582031 C 506.503906 318.664062 506.144531 318.703125 505.789062 318.703125 C 505.351562 318.703125 504.925781 318.640625 504.511719 318.527344 C 504.144531 318.523438 503.773438 318.511719 503.410156 318.492188 C 500.332031 318.320312 497.484375 317.898438 494.84375 317.238281 C 491.015625 322.8125 497.539062 331.121094 497.539062 331.621094 C 498.609375 325.765625 503.121094 320.871094 508.882812 318.246094 C 508.527344 318.296875 508.175781 318.34375 507.820312 318.378906 C 507.703125 318.402344 507.582031 318.421875 507.464844 318.445312 Z M 507.464844 318.445312 " fill-opacity="1" fill-rule="nonzero"/><g clip-path="url(#f8ef03fee7)"><path fill="#1a495d" d="M 511.296875 317.789062 C 510.292969 325.15625 509.078125 336.230469 509.507812 344.277344 C 509.730469 348.425781 509.890625 354.027344 509.988281 360.929688 C 510.007812 362.238281 511.074219 363.289062 512.378906 363.289062 C 512.390625 363.289062 512.402344 363.289062 512.414062 363.289062 C 513.738281 363.269531 514.792969 362.183594 514.773438 360.863281 C 514.675781 353.898438 514.511719 348.234375 514.285156 344.027344 C 513.835938 335.554688 515.363281 323.113281 516.371094 316.109375 C 514.703125 316.820312 513.011719 317.386719 511.296875 317.789062 Z M 511.296875 317.789062 " fill-opacity="1" fill-rule="nonzero"/></g><path fill="#1a495d" d="M 543.652344 260.417969 C 537.949219 250.199219 535.808594 234.039062 540.089844 222.15625 C 540.089844 222.15625 525.417969 224.984375 516.957031 239.746094 C 523.097656 243.609375 528.65625 250.019531 532.957031 258.308594 C 537.597656 267.25 540.132812 277.242188 539.574219 284.382812 C 539.011719 291.496094 535.070312 299.964844 529.28125 306.484375 C 528.421875 307.449219 527.539062 308.363281 526.632812 309.214844 C 554.632812 304.832031 548.890625 269.808594 543.652344 260.417969 Z M 543.652344 260.417969 " fill-opacity="1" fill-rule="nonzero"/><path fill="#1a495d" d="M 499.292969 230.121094 C 498.242188 227.742188 498.578125 225.410156 500.253906 223.523438 C 503.625 219.726562 512.5 218.597656 516.28125 219.898438 C 518.941406 220.8125 521.554688 222.929688 520.90625 226.132812 C 520.777344 226.769531 520.519531 227.375 520.160156 227.925781 C 524.445312 223.816406 528.96875 221.246094 532.527344 219.683594 C 528.9375 214.257812 521.6875 214.136719 511.007812 213.363281 C 501.726562 212.695312 492.992188 218.175781 488.652344 221.460938 C 489.535156 222.1875 490.457031 222.96875 491.445312 223.800781 C 493.800781 225.796875 496.40625 228.003906 499.292969 230.121094 Z M 499.292969 230.121094 " fill-opacity="1" fill-rule="nonzero"/><path fill="#1a495d" d="M 513.367188 226.425781 C 514.945312 226.535156 516.042969 225.632812 516.203125 225.238281 C 516.089844 225.089844 515.675781 224.742188 514.730469 224.417969 C 512.425781 223.625 505.714844 224.574219 503.828125 226.695312 C 503.515625 227.046875 503.285156 227.414062 503.707031 228.28125 C 505.460938 231.925781 508.828125 233.199219 515.964844 232.613281 C 516.75 231.589844 517.566406 230.628906 518.390625 229.734375 C 516.929688 230.757812 515.011719 231.332031 513.039062 231.195312 C 511.71875 231.105469 510.722656 229.964844 510.816406 228.644531 C 510.910156 227.332031 512.046875 226.339844 513.367188 226.425781 Z M 513.367188 226.425781 " fill-opacity="1" fill-rule="nonzero"/></svg>