<svg xmlns="http://www.w3.org/2000/svg" xmlns:xlink="http://www.w3.org/1999/xlink" width="1366" zoomAndPan="magnify" viewBox="0 0 1024.5 576" height="768" preserveAspectRatio="xMidYMid meet" version="1.0"><defs><clipPath id="f6bee37ac4"><path d="M 0 0.140625 L 1024 0.140625 L 1024 575.859375 L 0 575.859375 Z M 0 0.140625 " clip-rule="nonzero"/></clipPath><clipPath id="8d327e1ed3"><path d="M 477 254 L 591.359375 254 L 591.359375 361.785156 L 477 361.785156 Z M 477 254 " clip-rule="nonzero"/></clipPath><clipPath id="6fa545f332"><path d="M 432.4375 214.105469 L 569 214.105469 L 569 340 L 432.4375 340 Z M 432.4375 214.105469 " clip-rule="nonzero"/></clipPath></defs><g clip-path="url(#f6bee37ac4)"><path fill="#ffffff" d="M 0 0.140625 L 1024 0.140625 L 1024 575.859375 L 0 575.859375 Z M 0 0.140625 " fill-opacity="1" fill-rule="nonzero"/><path fill="#ffffff" d="M 0 0.140625 L 1024 0.140625 L 1024 575.859375 L 0 575.859375 Z M 0 0.140625 " fill-opacity="1" fill-rule="nonzero"/></g><g clip-path="url(#8d327e1ed3)"><path fill="#1a495d" d="M 580.191406 254.921875 L 580.191406 299.363281 C 580.191406 300.292969 580.148438 301.222656 580.054688 302.148438 C 579.964844 303.074219 579.828125 303.996094 579.648438 304.90625 C 579.464844 305.820312 579.238281 306.722656 578.96875 307.613281 C 578.699219 308.503906 578.386719 309.378906 578.03125 310.238281 C 577.675781 311.097656 577.277344 311.9375 576.839844 312.757812 C 576.398438 313.578125 575.921875 314.375 575.40625 315.148438 C 574.886719 315.921875 574.332031 316.671875 573.742188 317.390625 C 573.152344 318.109375 572.527344 318.796875 571.871094 319.457031 C 571.210938 320.113281 570.523438 320.738281 569.804688 321.328125 C 569.085938 321.917969 568.339844 322.472656 567.566406 322.988281 C 566.792969 323.507812 565.992188 323.984375 565.171875 324.421875 C 564.351562 324.863281 563.511719 325.257812 562.652344 325.617188 C 561.792969 325.972656 560.917969 326.285156 560.027344 326.554688 C 559.136719 326.824219 558.234375 327.050781 557.320312 327.230469 C 556.410156 327.414062 555.488281 327.550781 554.5625 327.640625 C 553.636719 327.734375 552.710938 327.777344 551.777344 327.777344 L 477.902344 327.777344 L 477.902344 333.460938 C 477.902344 334.019531 477.929688 334.574219 477.988281 335.128906 C 478.042969 335.6875 478.125 336.238281 478.238281 336.785156 C 478.347656 337.332031 478.484375 337.871094 478.644531 338.40625 C 478.808594 338.9375 478.996094 339.460938 479.210938 339.976562 C 479.425781 340.492188 479.664062 340.996094 479.929688 341.488281 C 480.191406 341.980469 480.480469 342.457031 480.789062 342.921875 C 481.101562 343.382812 481.433594 343.832031 481.785156 344.261719 C 482.140625 344.695312 482.515625 345.105469 482.910156 345.5 C 483.304688 345.894531 483.714844 346.269531 484.148438 346.625 C 484.578125 346.976562 485.027344 347.3125 485.488281 347.621094 C 485.953125 347.929688 486.429688 348.21875 486.921875 348.480469 C 487.414062 348.746094 487.917969 348.984375 488.433594 349.199219 C 488.949219 349.414062 489.472656 349.601562 490.007812 349.765625 C 490.539062 349.925781 491.078125 350.0625 491.625 350.171875 C 492.175781 350.285156 492.726562 350.367188 493.28125 350.421875 C 493.835938 350.480469 494.390625 350.507812 494.949219 350.511719 L 560.472656 350.511719 C 561.375 350.519531 562.226562 350.730469 563.03125 351.136719 L 583.320312 361.25 C 584.125 361.65625 584.976562 361.863281 585.875 361.875 C 586.960938 361.875 587.964844 361.589844 588.886719 361.023438 C 589.71875 360.503906 590.375 359.8125 590.847656 358.953125 C 591.324219 358.09375 591.5625 357.175781 591.558594 356.191406 L 591.558594 270.949219 C 591.554688 270.074219 591.488281 269.207031 591.351562 268.34375 C 591.214844 267.480469 591.015625 266.632812 590.746094 265.796875 C 590.480469 264.964844 590.152344 264.160156 589.761719 263.375 C 589.371094 262.59375 588.921875 261.847656 588.417969 261.132812 C 587.910156 260.421875 587.355469 259.75 586.746094 259.125 C 586.136719 258.496094 585.484375 257.917969 584.785156 257.390625 C 584.085938 256.867188 583.355469 256.394531 582.585938 255.980469 C 581.8125 255.566406 581.015625 255.214844 580.191406 254.921875 Z M 580.191406 254.921875 " fill-opacity="1" fill-rule="nonzero"/></g><g clip-path="url(#6fa545f332)"><path fill="#1a495d" d="M 568.828125 299.363281 L 568.828125 231.167969 C 568.828125 230.609375 568.800781 230.054688 568.746094 229.496094 C 568.691406 228.941406 568.609375 228.390625 568.5 227.84375 C 568.390625 227.296875 568.253906 226.753906 568.09375 226.21875 C 567.929688 225.683594 567.742188 225.160156 567.53125 224.644531 C 567.316406 224.128906 567.078125 223.625 566.8125 223.132812 C 566.550781 222.640625 566.265625 222.160156 565.953125 221.695312 C 565.644531 221.234375 565.3125 220.785156 564.957031 220.351562 C 564.601562 219.921875 564.230469 219.507812 563.832031 219.113281 C 563.4375 218.71875 563.027344 218.34375 562.59375 217.988281 C 562.164062 217.636719 561.714844 217.304688 561.25 216.992188 C 560.785156 216.683594 560.308594 216.394531 559.816406 216.132812 C 559.324219 215.871094 558.820312 215.632812 558.304688 215.417969 C 557.785156 215.203125 557.261719 215.015625 556.726562 214.855469 C 556.191406 214.691406 555.652344 214.554688 555.105469 214.449219 C 554.558594 214.339844 554.003906 214.257812 553.449219 214.203125 C 552.894531 214.148438 552.335938 214.121094 551.777344 214.121094 L 449.484375 214.121094 C 448.929688 214.121094 448.371094 214.148438 447.816406 214.203125 C 447.257812 214.257812 446.707031 214.339844 446.160156 214.449219 C 445.613281 214.554688 445.070312 214.691406 444.539062 214.855469 C 444.003906 215.015625 443.476562 215.203125 442.960938 215.417969 C 442.445312 215.632812 441.941406 215.871094 441.449219 216.132812 C 440.957031 216.394531 440.480469 216.683594 440.015625 216.992188 C 439.550781 217.304688 439.101562 217.636719 438.671875 217.988281 C 438.238281 218.34375 437.824219 218.71875 437.429688 219.113281 C 437.035156 219.507812 436.660156 219.921875 436.308594 220.351562 C 435.953125 220.785156 435.621094 221.234375 435.3125 221.695312 C 435 222.160156 434.714844 222.640625 434.449219 223.132812 C 434.1875 223.625 433.949219 224.128906 433.734375 224.644531 C 433.519531 225.160156 433.332031 225.683594 433.171875 226.21875 C 433.007812 226.753906 432.875 227.296875 432.765625 227.84375 C 432.65625 228.390625 432.574219 228.941406 432.519531 229.496094 C 432.464844 230.054688 432.4375 230.609375 432.4375 231.167969 L 432.4375 333.460938 C 432.4375 333.996094 432.511719 334.519531 432.660156 335.035156 C 432.808594 335.550781 433.023438 336.035156 433.308594 336.488281 C 433.59375 336.941406 433.9375 337.347656 434.335938 337.703125 C 434.734375 338.058594 435.175781 338.351562 435.660156 338.585938 C 436.140625 338.816406 436.644531 338.976562 437.175781 339.066406 C 437.703125 339.15625 438.230469 339.171875 438.765625 339.109375 C 439.296875 339.050781 439.808594 338.914062 440.304688 338.710938 C 440.796875 338.503906 441.253906 338.234375 441.671875 337.898438 L 466.972656 317.65625 C 468.007812 316.828125 469.1875 316.414062 470.511719 316.414062 L 551.777344 316.414062 C 552.335938 316.414062 552.894531 316.386719 553.449219 316.332031 C 554.003906 316.277344 554.558594 316.195312 555.105469 316.085938 C 555.652344 315.976562 556.191406 315.839844 556.726562 315.679688 C 557.261719 315.515625 557.785156 315.328125 558.304688 315.113281 C 558.820312 314.902344 559.324219 314.664062 559.816406 314.398438 C 560.308594 314.136719 560.785156 313.847656 561.25 313.539062 C 561.714844 313.230469 562.164062 312.898438 562.59375 312.542969 C 563.027344 312.1875 563.4375 311.8125 563.832031 311.417969 C 564.230469 311.023438 564.601562 310.609375 564.957031 310.179688 C 565.3125 309.746094 565.644531 309.300781 565.953125 308.835938 C 566.265625 308.371094 566.550781 307.894531 566.8125 307.398438 C 567.078125 306.90625 567.316406 306.402344 567.53125 305.886719 C 567.742188 305.371094 567.929688 304.847656 568.09375 304.3125 C 568.253906 303.777344 568.390625 303.238281 568.5 302.691406 C 568.609375 302.140625 568.691406 301.589844 568.746094 301.035156 C 568.800781 300.480469 568.828125 299.921875 568.828125 299.363281 Z M 505.859375 290.15625 C 505.601562 290.871094 505.203125 291.496094 504.667969 292.035156 C 504.132812 292.570312 503.503906 292.96875 502.792969 293.226562 C 502.105469 293.527344 501.382812 293.679688 500.632812 293.679688 C 499.878906 293.679688 499.160156 293.527344 498.472656 293.226562 C 497.757812 292.96875 497.132812 292.570312 496.597656 292.035156 C 496.058594 291.496094 495.664062 290.871094 495.402344 290.15625 C 495.109375 289.46875 494.957031 288.746094 494.949219 287.996094 C 494.960938 287.246094 495.109375 286.519531 495.394531 285.824219 C 495.675781 285.128906 496.078125 284.507812 496.597656 283.964844 C 497.152344 283.457031 497.78125 283.058594 498.472656 282.769531 C 499.160156 282.457031 499.878906 282.300781 500.632812 282.300781 C 501.386719 282.300781 502.105469 282.457031 502.792969 282.769531 C 503.484375 283.058594 504.109375 283.457031 504.667969 283.964844 C 505.191406 284.503906 505.59375 285.125 505.878906 285.820312 C 506.164062 286.519531 506.308594 287.246094 506.316406 287.996094 C 506.304688 288.746094 506.15625 289.46875 505.859375 290.15625 Z M 506.945312 270.265625 C 506.632812 270.457031 506.386719 270.710938 506.214844 271.039062 C 506.042969 271.363281 505.964844 271.707031 505.984375 272.074219 C 505.984375 272.449219 505.949219 272.816406 505.875 273.183594 C 505.804688 273.550781 505.695312 273.902344 505.554688 274.25 C 505.410156 274.59375 505.234375 274.921875 505.027344 275.230469 C 504.820312 275.542969 504.585938 275.828125 504.320312 276.09375 C 504.058594 276.355469 503.769531 276.59375 503.460938 276.800781 C 503.148438 277.007812 502.820312 277.183594 502.476562 277.324219 C 502.132812 277.46875 501.777344 277.574219 501.410156 277.648438 C 501.046875 277.722656 500.675781 277.757812 500.304688 277.757812 C 499.929688 277.757812 499.558594 277.722656 499.195312 277.648438 C 498.828125 277.574219 498.472656 277.46875 498.128906 277.324219 C 497.785156 277.183594 497.457031 277.007812 497.144531 276.800781 C 496.835938 276.59375 496.546875 276.355469 496.285156 276.09375 C 496.019531 275.828125 495.785156 275.542969 495.578125 275.230469 C 495.371094 274.921875 495.195312 274.59375 495.050781 274.25 C 494.910156 273.902344 494.800781 273.550781 494.730469 273.183594 C 494.65625 272.816406 494.621094 272.449219 494.621094 272.074219 C 494.601562 270.769531 494.769531 269.492188 495.128906 268.238281 C 495.492188 266.984375 496.023438 265.8125 496.730469 264.714844 C 497.441406 263.621094 498.292969 262.652344 499.289062 261.808594 C 500.28125 260.96875 501.378906 260.289062 502.574219 259.769531 C 503.171875 259.523438 503.71875 259.1875 504.207031 258.765625 C 504.695312 258.339844 505.105469 257.851562 505.4375 257.296875 C 505.769531 256.742188 506.003906 256.148438 506.144531 255.515625 C 506.285156 254.882812 506.324219 254.246094 506.257812 253.605469 C 506.191406 252.960938 506.027344 252.34375 505.761719 251.753906 C 505.5 251.164062 505.148438 250.628906 504.710938 250.152344 C 504.273438 249.671875 503.773438 249.277344 503.210938 248.960938 C 502.644531 248.644531 502.046875 248.425781 501.410156 248.300781 C 500.703125 248.171875 499.996094 248.171875 499.285156 248.292969 C 498.574219 248.414062 497.910156 248.65625 497.285156 249.011719 C 496.660156 249.371094 496.117188 249.824219 495.652344 250.375 C 495.191406 250.929688 494.835938 251.542969 494.589844 252.21875 C 494.464844 252.566406 494.304688 252.898438 494.109375 253.214844 C 493.917969 253.535156 493.695312 253.828125 493.445312 254.101562 C 493.195312 254.375 492.921875 254.625 492.621094 254.84375 C 492.324219 255.0625 492.003906 255.25 491.667969 255.410156 C 491.332031 255.566406 490.984375 255.691406 490.625 255.78125 C 490.265625 255.871094 489.898438 255.921875 489.53125 255.941406 C 489.160156 255.960938 488.789062 255.941406 488.421875 255.886719 C 488.054688 255.832031 487.699219 255.742188 487.347656 255.617188 C 487 255.492188 486.664062 255.335938 486.34375 255.148438 C 486.027344 254.957031 485.730469 254.738281 485.453125 254.488281 C 485.179688 254.242188 484.929688 253.96875 484.707031 253.671875 C 484.484375 253.375 484.292969 253.058594 484.132812 252.722656 C 483.972656 252.390625 483.84375 252.042969 483.75 251.683594 C 483.660156 251.324219 483.601562 250.960938 483.582031 250.589844 C 483.558594 250.21875 483.574219 249.851562 483.625 249.480469 C 483.675781 249.113281 483.761719 248.753906 483.886719 248.40625 C 484.125 247.722656 484.40625 247.0625 484.730469 246.417969 C 485.054688 245.769531 485.414062 245.148438 485.816406 244.546875 C 486.21875 243.949219 486.652344 243.375 487.125 242.828125 C 487.597656 242.285156 488.101562 241.769531 488.640625 241.285156 C 489.175781 240.804688 489.738281 240.355469 490.332031 239.941406 C 490.921875 239.53125 491.539062 239.15625 492.175781 238.820312 C 492.816406 238.484375 493.472656 238.1875 494.148438 237.933594 C 494.824219 237.679688 495.511719 237.46875 496.214844 237.300781 C 496.914062 237.132812 497.625 237.007812 498.34375 236.925781 C 499.058594 236.847656 499.777344 236.8125 500.5 236.820312 C 501.222656 236.828125 501.941406 236.882812 502.65625 236.984375 C 503.371094 237.082031 504.074219 237.222656 504.773438 237.410156 C 505.46875 237.597656 506.152344 237.828125 506.820312 238.097656 C 507.488281 238.371094 508.140625 238.683594 508.769531 239.035156 C 509.398438 239.386719 510.003906 239.777344 510.585938 240.207031 C 511.164062 240.636719 511.71875 241.097656 512.242188 241.59375 C 512.765625 242.089844 513.253906 242.617188 513.714844 243.175781 C 514.171875 243.734375 514.59375 244.320312 514.976562 244.929688 C 515.363281 245.539062 515.707031 246.171875 516.015625 246.824219 C 516.320312 247.476562 516.585938 248.148438 516.808594 248.835938 C 517.03125 249.519531 517.210938 250.21875 517.347656 250.925781 C 517.480469 251.636719 517.574219 252.351562 517.621094 253.070312 C 517.667969 253.789062 517.667969 254.511719 517.628906 255.230469 C 517.585938 255.953125 517.496094 256.667969 517.367188 257.375 C 517.234375 258.085938 517.058594 258.785156 516.839844 259.472656 C 516.621094 260.160156 516.359375 260.832031 516.058594 261.488281 C 515.753906 262.140625 515.414062 262.777344 515.03125 263.386719 C 514.652344 264 514.234375 264.589844 513.777344 265.148438 C 513.324219 265.710938 512.835938 266.238281 512.316406 266.738281 C 511.796875 267.238281 511.246094 267.707031 510.667969 268.136719 C 510.089844 268.566406 509.488281 268.960938 508.859375 269.320312 C 508.230469 269.675781 507.585938 269.992188 506.917969 270.265625 Z M 506.945312 270.265625 " fill-opacity="1" fill-rule="nonzero"/></g></svg>