<svg xmlns="http://www.w3.org/2000/svg" xmlns:xlink="http://www.w3.org/1999/xlink" width="1366" zoomAndPan="magnify" viewBox="0 0 1024.5 576" height="768" preserveAspectRatio="xMidYMid meet" version="1.0"><defs><clipPath id="04092b455c"><path d="M 0 0.140625 L 1024 0.140625 L 1024 575.859375 L 0 575.859375 Z M 0 0.140625 " clip-rule="nonzero"/></clipPath><clipPath id="4d4dff1993"><path d="M 448.859375 224.859375 L 574.800781 224.859375 L 574.800781 350.800781 L 448.859375 350.800781 Z M 448.859375 224.859375 " clip-rule="nonzero"/></clipPath></defs><g clip-path="url(#04092b455c)"><path fill="#ffffff" d="M 0 0.140625 L 1024 0.140625 L 1024 575.859375 L 0 575.859375 Z M 0 0.140625 " fill-opacity="1" fill-rule="nonzero"/><path fill="#ffffff" d="M 0 0.140625 L 1024 0.140625 L 1024 575.859375 L 0 575.859375 Z M 0 0.140625 " fill-opacity="1" fill-rule="nonzero"/></g><g clip-path="url(#4d4dff1993)"><path fill="#1a495d" d="M 556.664062 243.363281 C 544.738281 231.4375 528.882812 224.867188 512.011719 224.867188 C 495.144531 224.867188 479.292969 231.4375 467.363281 243.363281 C 455.433594 255.289062 448.867188 271.144531 448.867188 288.011719 C 448.867188 304.882812 455.4375 320.734375 467.363281 332.664062 C 479.289062 344.589844 495.144531 351.15625 512.011719 351.15625 C 528.882812 351.15625 544.734375 344.589844 556.664062 332.664062 C 568.589844 320.738281 575.15625 304.882812 575.15625 288.011719 C 575.15625 271.144531 568.589844 255.292969 556.664062 243.363281 Z M 543.691406 314.15625 C 543.691406 317.171875 541.238281 319.625 538.222656 319.625 L 485.769531 319.625 C 482.753906 319.625 480.300781 317.171875 480.300781 314.15625 L 480.300781 312.824219 C 480.300781 309.804688 482.753906 307.351562 485.769531 307.351562 L 538.222656 307.351562 C 541.238281 307.351562 543.691406 309.804688 543.691406 312.824219 Z M 543.691406 288.679688 C 543.691406 291.695312 541.238281 294.148438 538.222656 294.148438 L 485.769531 294.148438 C 482.753906 294.148438 480.300781 291.695312 480.300781 288.679688 L 480.300781 287.34375 C 480.300781 284.328125 482.753906 281.875 485.769531 281.875 L 538.222656 281.875 C 541.238281 281.875 543.691406 284.328125 543.691406 287.34375 Z M 543.691406 263.199219 C 543.691406 266.21875 541.238281 268.671875 538.222656 268.671875 L 485.769531 268.671875 C 482.753906 268.671875 480.300781 266.21875 480.300781 263.199219 L 480.300781 261.867188 C 480.300781 258.851562 482.753906 256.398438 485.769531 256.398438 L 538.222656 256.398438 C 541.238281 256.398438 543.691406 258.851562 543.691406 261.867188 Z M 543.691406 263.199219 " fill-opacity="1" fill-rule="nonzero"/></g></svg>