<svg xmlns="http://www.w3.org/2000/svg" xmlns:xlink="http://www.w3.org/1999/xlink" width="1366" zoomAndPan="magnify" viewBox="0 0 1024.5 576" height="768" preserveAspectRatio="xMidYMid meet" version="1.0"><defs><clipPath id="1246c3e60b"><path d="M 0 0.140625 L 1024 0.140625 L 1024 575.859375 L 0 575.859375 Z M 0 0.140625 " clip-rule="nonzero"/></clipPath><clipPath id="c4fbb5a746"><path d="M 446.777344 234.105469 L 577.207031 234.105469 L 577.207031 255.75 L 446.777344 255.75 Z M 446.777344 234.105469 " clip-rule="nonzero"/></clipPath><clipPath id="ec0065dc16"><path d="M 446.777344 277 L 577.207031 277 L 577.207031 299 L 446.777344 299 Z M 446.777344 277 " clip-rule="nonzero"/></clipPath><clipPath id="a86cd313b9"><path d="M 446.777344 320.191406 L 577.207031 320.191406 L 577.207031 341.90625 L 446.777344 341.90625 Z M 446.777344 320.191406 " clip-rule="nonzero"/></clipPath></defs><g clip-path="url(#1246c3e60b)"><path fill="#ffffff" d="M 0 0.140625 L 1024 0.140625 L 1024 575.859375 L 0 575.859375 Z M 0 0.140625 " fill-opacity="1" fill-rule="nonzero"/><path fill="#ffffff" d="M 0 0.140625 L 1024 0.140625 L 1024 575.859375 L 0 575.859375 Z M 0 0.140625 " fill-opacity="1" fill-rule="nonzero"/></g><g clip-path="url(#c4fbb5a746)"><path fill="#1a495d" d="M 566.4375 255.664062 L 457.554688 255.664062 C 451.601562 255.664062 446.777344 250.839844 446.777344 244.882812 C 446.777344 238.933594 451.601562 234.105469 457.554688 234.105469 L 566.4375 234.105469 C 572.390625 234.105469 577.214844 238.933594 577.214844 244.882812 C 577.214844 250.839844 572.390625 255.664062 566.4375 255.664062 " fill-opacity="1" fill-rule="nonzero"/></g><g clip-path="url(#ec0065dc16)"><path fill="#1a495d" d="M 566.4375 298.785156 L 457.554688 298.785156 C 451.601562 298.785156 446.777344 293.960938 446.777344 288.007812 C 446.777344 282.050781 451.601562 277.226562 457.554688 277.226562 L 566.4375 277.226562 C 572.390625 277.226562 577.214844 282.050781 577.214844 288.007812 C 577.214844 293.960938 572.390625 298.785156 566.4375 298.785156 " fill-opacity="1" fill-rule="nonzero"/></g><g clip-path="url(#a86cd313b9)"><path fill="#1a495d" d="M 566.4375 341.90625 L 457.554688 341.90625 C 451.601562 341.90625 446.777344 337.082031 446.777344 331.128906 C 446.777344 325.171875 451.601562 320.347656 457.554688 320.347656 L 566.4375 320.347656 C 572.390625 320.347656 577.214844 325.171875 577.214844 331.128906 C 577.214844 337.082031 572.390625 341.90625 566.4375 341.90625 " fill-opacity="1" fill-rule="nonzero"/></g></svg>