<svg xmlns="http://www.w3.org/2000/svg" xmlns:xlink="http://www.w3.org/1999/xlink" width="1366" zoomAndPan="magnify" viewBox="0 0 1024.5 576" height="768" preserveAspectRatio="xMidYMid meet" version="1.0"><defs><clipPath id="784a14c229"><path d="M 0 0.140625 L 1024 0.140625 L 1024 575.859375 L 0 575.859375 Z M 0 0.140625 " clip-rule="nonzero"/></clipPath><clipPath id="b41252019d"><path d="M 438.183594 214.183594 L 585.859375 214.183594 L 585.859375 361.859375 L 438.183594 361.859375 Z M 438.183594 214.183594 " clip-rule="nonzero"/></clipPath></defs><g clip-path="url(#784a14c229)"><path fill="#ffffff" d="M 0 0.140625 L 1024 0.140625 L 1024 575.859375 L 0 575.859375 Z M 0 0.140625 " fill-opacity="1" fill-rule="nonzero"/><path fill="#ffffff" d="M 0 0.140625 L 1024 0.140625 L 1024 575.859375 L 0 575.859375 Z M 0 0.140625 " fill-opacity="1" fill-rule="nonzero"/></g><g clip-path="url(#b41252019d)"><path fill="#1a495d" d="M 512.003906 214.183594 C 471.234375 214.183594 438.183594 247.234375 438.183594 288.003906 C 438.183594 328.773438 471.234375 361.824219 512.003906 361.824219 C 552.773438 361.824219 585.824219 328.773438 585.824219 288.003906 C 585.824219 247.234375 552.773438 214.183594 512.003906 214.183594 Z M 540.472656 249.160156 C 540.472656 250.480469 539.402344 251.550781 538.078125 251.550781 L 535.003906 251.550781 L 535.003906 268.390625 C 535.003906 277.007812 529.765625 284.398438 522.296875 287.558594 L 520.992188 288.035156 L 522.296875 288.511719 C 529.765625 291.667969 535.003906 299.0625 535.003906 307.679688 L 535.003906 324.457031 L 538.078125 324.457031 C 539.398438 324.457031 540.472656 325.527344 540.472656 326.847656 L 540.472656 330.109375 C 540.472656 331.429688 539.402344 332.5 538.078125 332.5 L 485.929688 332.5 C 484.609375 332.5 483.535156 331.429688 483.535156 330.109375 L 483.535156 326.847656 C 483.535156 325.527344 484.605469 324.457031 485.929688 324.457031 L 489 324.457031 L 489 307.679688 C 489 299.0625 494.242188 291.671875 501.710938 288.511719 L 503.015625 288.035156 L 501.710938 287.558594 C 494.242188 284.402344 489 277.007812 489 268.390625 L 489 251.554688 L 485.929688 251.554688 C 484.609375 251.554688 483.535156 250.480469 483.535156 249.160156 L 483.535156 245.902344 C 483.535156 244.582031 484.605469 243.507812 485.929688 243.507812 L 538.078125 243.507812 C 539.398438 243.507812 540.472656 244.582031 540.472656 245.902344 Z M 540.472656 249.160156 " fill-opacity="1" fill-rule="nonzero"/></g><path fill="#1a495d" d="M 495.140625 266.605469 C 495.140625 275.335938 501.777344 282.515625 510.28125 283.375 L 510.683594 283.398438 L 511.765625 308.195312 L 503.140625 308.195312 C 498.722656 308.195312 495.144531 311.777344 495.144531 316.1875 L 495.144531 324.183594 L 528.871094 324.183594 L 528.871094 316.1875 C 528.871094 311.773438 525.289062 308.195312 520.875 308.195312 L 512.25 308.195312 L 513.332031 283.398438 L 513.734375 283.375 C 522.238281 282.515625 528.875 275.335938 528.875 266.605469 L 528.875 265.027344 L 495.148438 265.027344 L 495.148438 266.605469 Z M 495.140625 266.605469 " fill-opacity="1" fill-rule="nonzero"/></svg>