<svg xmlns="http://www.w3.org/2000/svg" xmlns:xlink="http://www.w3.org/1999/xlink" width="1366" zoomAndPan="magnify" viewBox="0 0 1024.5 576" height="768" preserveAspectRatio="xMidYMid meet" version="1.0"><defs><clipPath id="7202a93782"><path d="M 0 0.140625 L 1024 0.140625 L 1024 575.859375 L 0 575.859375 Z M 0 0.140625 " clip-rule="nonzero"/></clipPath></defs><g clip-path="url(#7202a93782)"><path fill="#ffffff" d="M 0 0.140625 L 1024 0.140625 L 1024 575.859375 L 0 575.859375 Z M 0 0.140625 " fill-opacity="1" fill-rule="nonzero"/><path fill="#ffffff" d="M 0 0.140625 L 1024 0.140625 L 1024 575.859375 L 0 575.859375 Z M 0 0.140625 " fill-opacity="1" fill-rule="nonzero"/></g><path fill="#1a495d" d="M 605.660156 370.222656 L 593.644531 335.082031 C 594.246094 334.027344 594.816406 332.957031 595.359375 331.871094 C 595.898438 330.785156 596.40625 329.683594 596.886719 328.570312 C 597.367188 327.453125 597.8125 326.328125 598.230469 325.1875 C 598.644531 324.046875 599.027344 322.898438 599.378906 321.734375 C 599.730469 320.574219 600.050781 319.40625 600.335938 318.226562 C 600.621094 317.046875 600.875 315.859375 601.09375 314.667969 C 601.3125 313.472656 601.5 312.273438 601.652344 311.070312 C 601.804688 309.867188 601.921875 308.660156 602.007812 307.449219 C 602.09375 306.238281 602.144531 305.027344 602.160156 303.816406 C 602.179688 302.601562 602.160156 301.390625 602.109375 300.175781 C 602.058594 298.964844 601.976562 297.753906 601.855469 296.546875 C 601.738281 295.339844 601.585938 294.136719 601.398438 292.9375 C 601.214844 291.738281 600.996094 290.546875 600.742188 289.359375 C 600.488281 288.171875 600.203125 286.992188 599.886719 285.820312 C 599.566406 284.652344 599.214844 283.488281 598.832031 282.339844 C 598.449219 281.1875 598.035156 280.046875 597.585938 278.921875 C 597.140625 277.792969 596.660156 276.679688 596.152344 275.578125 C 595.640625 274.476562 595.101562 273.390625 594.53125 272.320312 C 593.960938 271.25 593.359375 270.195312 592.730469 269.15625 C 592.101562 268.121094 591.445312 267.101562 590.757812 266.101562 C 590.070312 265.101562 589.355469 264.121094 588.617188 263.160156 C 587.875 262.199219 587.105469 261.257812 586.3125 260.339844 C 585.519531 259.425781 584.699219 258.53125 583.855469 257.65625 C 583.011719 256.785156 582.144531 255.9375 581.253906 255.117188 C 580.363281 254.292969 579.449219 253.496094 578.511719 252.722656 C 577.574219 251.949219 576.621094 251.207031 575.640625 250.488281 C 574.664062 249.769531 573.667969 249.078125 572.648438 248.414062 C 571.632812 247.753906 570.601562 247.117188 569.546875 246.511719 C 568.496094 245.910156 567.429688 245.332031 566.34375 244.789062 C 565.261719 244.242188 564.160156 243.730469 563.050781 243.246094 C 561.9375 242.761719 560.8125 242.308594 559.671875 241.890625 C 558.535156 241.46875 557.386719 241.082031 556.226562 240.722656 C 556.867188 242.132812 557.464844 243.558594 558.015625 245.003906 C 558.570312 246.449219 559.074219 247.910156 559.539062 249.386719 C 560 250.863281 560.417969 252.351562 560.789062 253.851562 C 561.160156 255.355469 561.484375 256.867188 561.761719 258.386719 C 562.039062 259.910156 562.269531 261.441406 562.453125 262.976562 C 562.636719 264.511719 562.773438 266.050781 562.863281 267.597656 C 562.953125 269.140625 562.992188 270.6875 562.988281 272.234375 C 562.980469 273.78125 562.925781 275.328125 562.824219 276.871094 C 562.722656 278.414062 562.574219 279.953125 562.375 281.488281 C 562.179688 283.023438 561.9375 284.546875 561.644531 286.066406 C 561.355469 287.585938 561.019531 289.097656 560.632812 290.59375 C 560.25 292.09375 559.820312 293.578125 559.347656 295.050781 C 558.871094 296.523438 558.351562 297.980469 557.785156 299.421875 C 557.21875 300.859375 556.613281 302.28125 555.960938 303.683594 C 555.308594 305.089844 554.613281 306.46875 553.875 307.828125 C 553.136719 309.1875 552.359375 310.523438 551.539062 311.835938 C 550.71875 313.148438 549.859375 314.433594 548.960938 315.691406 C 548.058594 316.953125 547.125 318.183594 546.148438 319.382812 C 545.171875 320.585938 544.164062 321.753906 543.113281 322.894531 C 542.066406 324.03125 540.988281 325.136719 539.871094 326.210938 C 538.757812 327.28125 537.609375 328.320312 536.429688 329.320312 C 535.25 330.324219 534.042969 331.285156 532.804688 332.214844 C 531.566406 333.140625 530.300781 334.03125 529.007812 334.878906 C 527.714844 335.726562 526.394531 336.535156 525.050781 337.304688 C 523.710938 338.070312 522.34375 338.796875 520.957031 339.480469 C 519.570312 340.164062 518.160156 340.804688 516.734375 341.402344 C 515.308594 342 513.863281 342.550781 512.402344 343.0625 C 510.941406 343.570312 509.464844 344.03125 507.976562 344.449219 C 506.484375 344.867188 504.984375 345.238281 503.472656 345.5625 C 501.960938 345.886719 500.4375 346.164062 498.90625 346.394531 C 497.378906 346.625 495.84375 346.808594 494.300781 346.945312 C 492.761719 347.082031 491.21875 347.171875 489.671875 347.210938 C 490.890625 348.519531 492.164062 349.769531 493.488281 350.972656 C 494.8125 352.171875 496.183594 353.316406 497.605469 354.402344 C 499.023438 355.492188 500.484375 356.519531 501.988281 357.484375 C 503.492188 358.453125 505.03125 359.355469 506.609375 360.195312 C 508.1875 361.039062 509.796875 361.8125 511.4375 362.519531 C 513.082031 363.226562 514.75 363.863281 516.441406 364.433594 C 518.136719 365.003906 519.851562 365.503906 521.589844 365.929688 C 523.324219 366.359375 525.074219 366.714844 526.839844 367 C 528.605469 367.285156 530.378906 367.496094 532.160156 367.632812 C 533.941406 367.769531 535.726562 367.835938 537.515625 367.824219 C 539.300781 367.816406 541.085938 367.734375 542.867188 367.578125 C 544.648438 367.421875 546.417969 367.191406 548.179688 366.886719 C 549.941406 366.585938 551.691406 366.210938 553.421875 365.765625 C 555.152344 365.316406 556.859375 364.800781 558.550781 364.214844 C 560.238281 363.625 561.898438 362.96875 563.535156 362.246094 C 565.167969 361.519531 566.769531 360.730469 568.339844 359.875 L 602.582031 373.183594 C 603.007812 373.347656 603.445312 373.382812 603.894531 373.292969 C 604.339844 373.199219 604.730469 372.996094 605.058594 372.679688 C 605.386719 372.363281 605.605469 371.980469 605.714844 371.539062 C 605.824219 371.09375 605.804688 370.65625 605.660156 370.222656 Z M 605.660156 370.222656 " fill-opacity="1" fill-rule="nonzero"/><path fill="#1a495d" d="M 552.597656 271.855469 C 552.59375 270.613281 552.554688 269.367188 552.476562 268.128906 C 552.402344 266.886719 552.289062 265.648438 552.140625 264.414062 C 551.996094 263.175781 551.8125 261.949219 551.59375 260.722656 C 551.375 259.5 551.121094 258.28125 550.835938 257.070312 C 550.546875 255.859375 550.222656 254.660156 549.867188 253.46875 C 549.507812 252.277344 549.117188 251.097656 548.691406 249.929688 C 548.269531 248.757812 547.808594 247.601562 547.316406 246.460938 C 546.828125 245.316406 546.300781 244.191406 545.746094 243.078125 C 545.191406 241.964844 544.601562 240.871094 543.984375 239.792969 C 543.363281 238.710938 542.714844 237.652344 542.035156 236.609375 C 541.351562 235.570312 540.644531 234.550781 539.90625 233.546875 C 539.164062 232.546875 538.398438 231.570312 537.601562 230.613281 C 536.808594 229.65625 535.984375 228.722656 535.136719 227.816406 C 534.289062 226.90625 533.414062 226.023438 532.511719 225.164062 C 531.613281 224.304688 530.691406 223.472656 529.742188 222.664062 C 528.796875 221.859375 527.824219 221.082031 526.832031 220.332031 C 525.839844 219.582031 524.828125 218.863281 523.792969 218.167969 C 522.757812 217.476562 521.707031 216.816406 520.636719 216.183594 C 519.5625 215.554688 518.472656 214.953125 517.367188 214.386719 C 516.261719 213.816406 515.140625 213.28125 514.003906 212.777344 C 512.867188 212.273438 511.714844 211.800781 510.550781 211.363281 C 509.386719 210.925781 508.210938 210.523438 507.023438 210.152344 C 505.835938 209.78125 504.636719 209.445312 503.429688 209.144531 C 502.226562 208.84375 501.011719 208.578125 499.789062 208.34375 C 498.566406 208.113281 497.339844 207.917969 496.105469 207.757812 C 494.871094 207.59375 493.632812 207.46875 492.394531 207.378906 C 491.152344 207.289062 489.910156 207.234375 488.667969 207.21875 C 487.425781 207.199219 486.179688 207.21875 484.9375 207.269531 C 483.695312 207.324219 482.453125 207.410156 481.21875 207.535156 C 479.980469 207.660156 478.746094 207.820312 477.519531 208.015625 C 476.289062 208.210938 475.066406 208.441406 473.851562 208.707031 C 472.636719 208.972656 471.429688 209.273438 470.234375 209.609375 C 469.035156 209.941406 467.847656 210.3125 466.671875 210.714844 C 465.496094 211.117188 464.332031 211.554688 463.179688 212.023438 C 462.027344 212.496094 460.890625 213 459.769531 213.535156 C 458.644531 214.070312 457.539062 214.636719 456.449219 215.234375 C 455.359375 215.835938 454.285156 216.464844 453.234375 217.125 C 452.179688 217.785156 451.144531 218.476562 450.132812 219.199219 C 449.117188 219.917969 448.125 220.667969 447.152344 221.445312 C 446.183594 222.222656 445.234375 223.027344 444.308594 223.859375 C 443.386719 224.691406 442.484375 225.546875 441.609375 226.429688 C 440.734375 227.316406 439.886719 228.222656 439.0625 229.15625 C 438.238281 230.085938 437.441406 231.042969 436.675781 232.019531 C 435.90625 233 435.167969 234 434.457031 235.019531 C 433.746094 236.039062 433.0625 237.082031 432.414062 238.140625 C 431.761719 239.199219 431.140625 240.277344 430.554688 241.375 C 429.964844 242.46875 429.40625 243.582031 428.882812 244.707031 C 428.355469 245.835938 427.863281 246.976562 427.40625 248.132812 C 426.945312 249.289062 426.519531 250.457031 426.128906 251.636719 C 425.734375 252.820312 425.378906 254.007812 425.054688 255.210938 C 424.730469 256.410156 424.441406 257.621094 424.1875 258.839844 C 423.933594 260.054688 423.714844 261.28125 423.53125 262.511719 C 423.347656 263.742188 423.199219 264.976562 423.085938 266.214844 C 422.972656 267.453125 422.894531 268.691406 422.851562 269.9375 C 422.8125 271.179688 422.804688 272.421875 422.835938 273.667969 C 422.867188 274.910156 422.929688 276.152344 423.03125 277.390625 C 423.132812 278.628906 423.269531 279.867188 423.445312 281.097656 C 423.617188 282.332031 423.824219 283.554688 424.066406 284.777344 C 424.308594 285.996094 424.585938 287.207031 424.898438 288.410156 C 425.210938 289.617188 425.558594 290.808594 425.941406 291.992188 C 426.320312 293.175781 426.738281 294.347656 427.1875 295.507812 C 427.632812 296.667969 428.117188 297.816406 428.628906 298.949219 C 429.144531 300.082031 429.691406 301.199219 430.269531 302.296875 C 430.851562 303.398438 431.460938 304.484375 432.101562 305.546875 L 427.957031 317.695312 L 421.300781 337.230469 C 421.15625 337.660156 421.136719 338.101562 421.246094 338.542969 C 421.355469 338.988281 421.574219 339.367188 421.902344 339.683594 C 422.234375 340 422.621094 340.207031 423.070312 340.296875 C 423.515625 340.386719 423.953125 340.351562 424.378906 340.191406 L 443.433594 332.785156 L 455.230469 328.195312 C 459.28125 330.535156 463.539062 332.414062 468 333.835938 C 472.460938 335.253906 477.023438 336.179688 481.683594 336.613281 C 483.664062 336.78125 485.675781 336.878906 487.707031 336.878906 C 488.769531 336.878906 489.832031 336.851562 490.894531 336.800781 C 491.957031 336.75 493.019531 336.671875 494.074219 336.566406 C 495.132812 336.460938 496.1875 336.332031 497.242188 336.175781 C 498.292969 336.019531 499.339844 335.835938 500.382812 335.628906 C 501.425781 335.421875 502.464844 335.1875 503.496094 334.929688 C 504.527344 334.671875 505.550781 334.386719 506.566406 334.078125 C 507.585938 333.769531 508.59375 333.433594 509.597656 333.078125 C 510.597656 332.71875 511.589844 332.335938 512.570312 331.925781 C 513.554688 331.519531 514.523438 331.089844 515.484375 330.632812 C 516.445312 330.179688 517.394531 329.699219 518.332031 329.199219 C 519.269531 328.695312 520.195312 328.171875 521.105469 327.625 C 522.019531 327.078125 522.917969 326.507812 523.800781 325.914062 C 524.683594 325.324219 525.554688 324.710938 526.40625 324.078125 C 527.261719 323.441406 528.097656 322.789062 528.917969 322.113281 C 529.742188 321.4375 530.542969 320.742188 531.332031 320.027344 C 532.117188 319.3125 532.886719 318.578125 533.640625 317.828125 C 534.390625 317.074219 535.121094 316.304688 535.835938 315.515625 C 536.550781 314.726562 537.242188 313.917969 537.917969 313.097656 C 538.589844 312.273438 539.242188 311.433594 539.875 310.582031 C 540.507812 309.726562 541.117188 308.855469 541.707031 307.972656 C 542.296875 307.085938 542.867188 306.1875 543.410156 305.273438 C 543.957031 304.363281 544.480469 303.4375 544.980469 302.496094 C 545.480469 301.558594 545.957031 300.609375 546.410156 299.644531 C 546.863281 298.683594 547.292969 297.710938 547.695312 296.730469 C 548.101562 295.746094 548.484375 294.753906 548.839844 293.75 C 549.195312 292.75 549.527344 291.738281 549.835938 290.722656 C 550.144531 289.703125 550.425781 288.679688 550.679688 287.648438 C 550.9375 286.613281 551.167969 285.578125 551.375 284.535156 C 551.578125 283.492188 551.757812 282.441406 551.914062 281.390625 C 552.066406 280.339844 552.195312 279.28125 552.296875 278.226562 C 552.398438 277.167969 552.476562 276.105469 552.527344 275.042969 C 552.578125 273.980469 552.601562 272.917969 552.597656 271.855469 Z M 495.859375 286.832031 C 495.859375 287.167969 495.828125 287.503906 495.761719 287.835938 C 495.695312 288.167969 495.597656 288.492188 495.46875 288.804688 C 495.339844 289.117188 495.179688 289.414062 494.992188 289.695312 C 494.804688 289.976562 494.589844 290.238281 494.347656 290.476562 C 494.109375 290.71875 493.847656 290.929688 493.566406 291.117188 C 493.285156 291.308594 492.988281 291.464844 492.675781 291.59375 C 492.363281 291.726562 492.039062 291.824219 491.707031 291.890625 C 491.375 291.957031 491.042969 291.988281 490.703125 291.988281 L 457.839844 291.988281 C 457.503906 291.984375 457.175781 291.945312 456.847656 291.875 C 456.519531 291.804688 456.199219 291.703125 455.890625 291.570312 C 455.585938 291.441406 455.292969 291.28125 455.015625 291.089844 C 454.738281 290.902344 454.480469 290.6875 454.246094 290.449219 C 454.011719 290.210938 453.800781 289.949219 453.617188 289.671875 C 453.433594 289.390625 453.277344 289.09375 453.152344 288.785156 C 453.023438 288.476562 452.925781 288.15625 452.863281 287.828125 C 452.796875 287.496094 452.765625 287.164062 452.765625 286.832031 L 452.765625 286.332031 C 452.765625 285.992188 452.800781 285.65625 452.863281 285.324219 C 452.929688 284.996094 453.027344 284.671875 453.160156 284.359375 C 453.289062 284.046875 453.449219 283.75 453.636719 283.46875 C 453.824219 283.1875 454.039062 282.929688 454.277344 282.691406 C 454.515625 282.449219 454.777344 282.238281 455.058594 282.050781 C 455.339844 281.863281 455.636719 281.703125 455.953125 281.578125 C 456.265625 281.449219 456.585938 281.351562 456.917969 281.285156 C 457.25 281.21875 457.585938 281.1875 457.925781 281.191406 L 490.703125 281.191406 C 491.039062 281.1875 491.375 281.21875 491.707031 281.285156 C 492.039062 281.351562 492.363281 281.449219 492.675781 281.578125 C 492.988281 281.703125 493.285156 281.863281 493.566406 282.050781 C 493.847656 282.238281 494.109375 282.449219 494.347656 282.691406 C 494.589844 282.929688 494.800781 283.1875 494.992188 283.46875 C 495.179688 283.75 495.335938 284.046875 495.46875 284.359375 C 495.597656 284.671875 495.695312 284.996094 495.761719 285.324219 C 495.828125 285.65625 495.859375 285.992188 495.859375 286.332031 Z M 520.683594 264.152344 C 520.683594 264.492188 520.652344 264.824219 520.585938 265.15625 C 520.519531 265.488281 520.421875 265.8125 520.292969 266.125 C 520.164062 266.4375 520.003906 266.734375 519.816406 267.015625 C 519.628906 267.300781 519.414062 267.558594 519.175781 267.800781 C 518.933594 268.039062 518.675781 268.253906 518.394531 268.441406 C 518.113281 268.628906 517.8125 268.789062 517.5 268.917969 C 517.1875 269.046875 516.867188 269.144531 516.535156 269.210938 C 516.203125 269.277344 515.867188 269.308594 515.527344 269.308594 L 456.757812 269.308594 C 456.421875 269.308594 456.085938 269.277344 455.753906 269.210938 C 455.421875 269.144531 455.097656 269.046875 454.785156 268.917969 C 454.472656 268.789062 454.175781 268.628906 453.894531 268.441406 C 453.613281 268.253906 453.351562 268.039062 453.113281 267.800781 C 452.871094 267.558594 452.660156 267.300781 452.46875 267.015625 C 452.28125 266.734375 452.125 266.4375 451.992188 266.125 C 451.863281 265.8125 451.765625 265.488281 451.699219 265.15625 C 451.632812 264.824219 451.601562 264.492188 451.601562 264.152344 L 451.601562 263.667969 C 451.601562 263.332031 451.636719 262.996094 451.707031 262.667969 C 451.773438 262.335938 451.871094 262.015625 452.003906 261.707031 C 452.132812 261.394531 452.292969 261.097656 452.480469 260.820312 C 452.671875 260.539062 452.882812 260.28125 453.125 260.042969 C 453.363281 259.804688 453.625 259.59375 453.902344 259.40625 C 454.183594 259.21875 454.480469 259.0625 454.792969 258.933594 C 455.105469 258.804688 455.425781 258.707031 455.757812 258.644531 C 456.089844 258.578125 456.421875 258.542969 456.757812 258.542969 L 515.527344 258.542969 C 515.867188 258.542969 516.203125 258.578125 516.535156 258.644531 C 516.867188 258.710938 517.1875 258.808594 517.5 258.9375 C 517.8125 259.066406 518.113281 259.226562 518.394531 259.414062 C 518.675781 259.601562 518.933594 259.816406 519.175781 260.054688 C 519.414062 260.292969 519.628906 260.554688 519.816406 260.835938 C 520.003906 261.117188 520.164062 261.414062 520.292969 261.726562 C 520.421875 262.042969 520.519531 262.363281 520.585938 262.695312 C 520.652344 263.027344 520.683594 263.363281 520.683594 263.703125 Z M 520.683594 264.152344 " fill-opacity="1" fill-rule="nonzero"/></svg>