<svg xmlns="http://www.w3.org/2000/svg" xmlns:xlink="http://www.w3.org/1999/xlink" width="1366" zoomAndPan="magnify" viewBox="0 0 1024.5 576" height="768" preserveAspectRatio="xMidYMid meet" version="1.0"><defs><clipPath id="1f7bec65fe"><path d="M 0 0.140625 L 1024 0.140625 L 1024 575.859375 L 0 575.859375 Z M 0 0.140625 " clip-rule="nonzero"/></clipPath><clipPath id="b10cb5fb35"><path d="M 455 229.789062 L 572.289062 229.789062 L 572.289062 345.984375 L 455 345.984375 Z M 455 229.789062 " clip-rule="nonzero"/></clipPath></defs><g clip-path="url(#1f7bec65fe)"><path fill="#ffffff" d="M 0 0.140625 L 1024 0.140625 L 1024 575.859375 L 0 575.859375 Z M 0 0.140625 " fill-opacity="1" fill-rule="nonzero"/><path fill="#ffffff" d="M 0 0.140625 L 1024 0.140625 L 1024 575.859375 L 0 575.859375 Z M 0 0.140625 " fill-opacity="1" fill-rule="nonzero"/></g><g clip-path="url(#b10cb5fb35)"><path fill="#1a495d" d="M 522.117188 229.789062 L 522.117188 240.847656 L 553.515625 240.847656 L 527.46875 266.890625 C 510.089844 253.375 484.902344 254.574219 468.929688 270.527344 C 451.648438 287.8125 451.648438 315.957031 468.929688 333.238281 C 477.578125 341.886719 488.929688 346.207031 500.277344 346.207031 C 511.625 346.207031 522.992188 341.886719 531.625 333.238281 C 540 324.863281 544.605469 313.726562 544.605469 301.890625 C 544.605469 291.917969 541.292969 282.460938 535.261719 274.714844 L 561.289062 248.6875 L 561.289062 280.082031 L 572.347656 280.082031 L 572.347656 229.789062 Z M 523.832031 325.414062 C 510.851562 338.398438 489.738281 338.398438 476.753906 325.414062 C 463.773438 312.433594 463.773438 291.320312 476.753906 278.335938 C 483.253906 271.855469 491.773438 268.605469 500.292969 268.605469 C 508.8125 268.605469 517.347656 271.855469 523.832031 278.335938 C 530.121094 284.625 533.582031 292.984375 533.582031 301.875 C 533.582031 310.769531 530.121094 319.125 523.832031 325.414062 Z M 523.832031 325.414062 " fill-opacity="1" fill-rule="nonzero"/></g></svg>