<svg xmlns="http://www.w3.org/2000/svg" xmlns:xlink="http://www.w3.org/1999/xlink" width="1366" zoomAndPan="magnify" viewBox="0 0 1024.5 576" height="768" preserveAspectRatio="xMidYMid meet" version="1.0"><defs><clipPath id="aed7bb21a0"><path d="M 0 0.140625 L 1024 0.140625 L 1024 575.859375 L 0 575.859375 Z M 0 0.140625 " clip-rule="nonzero"/></clipPath><clipPath id="c798b78f6a"><path d="M 454.042969 197.792969 L 570 197.792969 L 570 314 L 454.042969 314 Z M 454.042969 197.792969 " clip-rule="nonzero"/></clipPath><clipPath id="a0b1bac55f"><path d="M 505 300 L 519 300 L 519 378.453125 L 505 378.453125 Z M 505 300 " clip-rule="nonzero"/></clipPath></defs><g clip-path="url(#aed7bb21a0)"><path fill="#ffffff" d="M 0 0.140625 L 1024 0.140625 L 1024 575.859375 L 0 575.859375 Z M 0 0.140625 " fill-opacity="1" fill-rule="nonzero"/><path fill="#ffffff" d="M 0 0.140625 L 1024 0.140625 L 1024 575.859375 L 0 575.859375 Z M 0 0.140625 " fill-opacity="1" fill-rule="nonzero"/></g><g clip-path="url(#c798b78f6a)"><path fill="#d41b5d" d="M 511.996094 313.753906 C 480.042969 313.753906 454.042969 287.753906 454.042969 255.796875 C 454.042969 223.835938 480.042969 197.839844 511.996094 197.839844 C 543.953125 197.839844 569.953125 223.835938 569.953125 255.796875 C 569.953125 287.753906 543.953125 313.753906 511.996094 313.753906 Z M 511.996094 210.71875 C 487.140625 210.71875 466.921875 230.945312 466.921875 255.796875 C 466.921875 280.648438 487.140625 300.875 511.996094 300.875 C 536.855469 300.875 557.074219 280.648438 557.074219 255.796875 C 557.074219 230.945312 536.855469 210.71875 511.996094 210.71875 Z M 511.996094 210.71875 " fill-opacity="1" fill-rule="nonzero"/></g><g clip-path="url(#a0b1bac55f)"><path fill="#d41b5d" d="M 511.996094 378.148438 C 508.441406 378.148438 505.558594 375.269531 505.558594 371.707031 L 505.558594 307.3125 C 505.558594 303.753906 508.441406 300.875 511.996094 300.875 C 515.554688 300.875 518.4375 303.753906 518.4375 307.3125 L 518.4375 371.707031 C 518.4375 375.269531 515.554688 378.148438 511.996094 378.148438 Z M 511.996094 378.148438 " fill-opacity="1" fill-rule="nonzero"/></g><path fill="#d41b5d" d="M 531.316406 352.390625 L 492.679688 352.390625 C 489.121094 352.390625 486.238281 349.511719 486.238281 345.949219 C 486.238281 342.390625 489.121094 339.511719 492.679688 339.511719 L 531.316406 339.511719 C 534.871094 339.511719 537.757812 342.390625 537.757812 345.949219 C 537.757812 349.511719 534.871094 352.390625 531.316406 352.390625 Z M 531.316406 352.390625 " fill-opacity="1" fill-rule="nonzero"/></svg>