<svg xmlns="http://www.w3.org/2000/svg" xmlns:xlink="http://www.w3.org/1999/xlink" width="1366" zoomAndPan="magnify" viewBox="0 0 1024.5 576" height="768" preserveAspectRatio="xMidYMid meet" version="1.0"><defs><clipPath id="bc4e98381b"><path d="M 0 0.140625 L 1024 0.140625 L 1024 575.859375 L 0 575.859375 Z M 0 0.140625 " clip-rule="nonzero"/></clipPath><clipPath id="9a693baa0a"><path d="M 423 198.484375 L 601 198.484375 L 601 377.644531 L 423 377.644531 Z M 423 198.484375 " clip-rule="nonzero"/></clipPath></defs><g clip-path="url(#bc4e98381b)"><path fill="#ffffff" d="M 0 0.140625 L 1024 0.140625 L 1024 575.859375 L 0 575.859375 Z M 0 0.140625 " fill-opacity="1" fill-rule="nonzero"/><path fill="#ffffff" d="M 0 0.140625 L 1024 0.140625 L 1024 575.859375 L 0 575.859375 Z M 0 0.140625 " fill-opacity="1" fill-rule="nonzero"/></g><g clip-path="url(#9a693baa0a)"><path fill="#1a495d" d="M 463.289062 247.527344 C 463.289062 245.925781 463.367188 244.324219 463.527344 242.730469 C 463.6875 241.136719 463.921875 239.550781 464.238281 237.980469 C 464.550781 236.40625 464.941406 234.855469 465.40625 233.320312 C 465.871094 231.785156 466.414062 230.28125 467.027344 228.796875 C 467.640625 227.316406 468.328125 225.871094 469.082031 224.457031 C 469.839844 223.042969 470.664062 221.671875 471.554688 220.335938 C 472.445312 219.003906 473.398438 217.71875 474.414062 216.480469 C 475.433594 215.242188 476.507812 214.054688 477.640625 212.921875 C 478.773438 211.789062 479.960938 210.710938 481.199219 209.695312 C 482.4375 208.675781 483.726562 207.722656 485.058594 206.832031 C 486.390625 205.941406 487.761719 205.117188 489.175781 204.359375 C 490.589844 203.605469 492.035156 202.917969 493.519531 202.304688 C 495 201.691406 496.503906 201.148438 498.039062 200.683594 C 499.574219 200.214844 501.125 199.828125 502.699219 199.511719 C 504.269531 199.199219 505.851562 198.960938 507.449219 198.800781 C 509.042969 198.644531 510.644531 198.5625 512.246094 198.5625 C 576.957031 200.851562 577.085938 294 512.410156 296.484375 C 510.804688 296.488281 509.203125 296.414062 507.605469 296.261719 C 506.003906 296.105469 504.417969 295.875 502.839844 295.566406 C 501.265625 295.253906 499.707031 294.867188 498.167969 294.40625 C 496.628906 293.941406 495.117188 293.40625 493.632812 292.792969 C 492.148438 292.183594 490.695312 291.5 489.277344 290.742188 C 487.859375 289.988281 486.480469 289.167969 485.144531 288.277344 C 483.804688 287.386719 482.515625 286.433594 481.273438 285.417969 C 480.027344 284.398438 478.839844 283.324219 477.699219 282.191406 C 476.5625 281.054688 475.484375 279.871094 474.460938 278.628906 C 473.441406 277.390625 472.484375 276.101562 471.589844 274.765625 C 470.695312 273.433594 469.867188 272.058594 469.105469 270.640625 C 468.347656 269.226562 467.660156 267.777344 467.042969 266.292969 C 466.425781 264.808594 465.882812 263.300781 465.414062 261.765625 C 464.949219 260.226562 464.554688 258.671875 464.242188 257.097656 C 463.925781 255.519531 463.6875 253.933594 463.527344 252.335938 C 463.371094 250.738281 463.289062 249.132812 463.289062 247.527344 Z M 561.800781 296.507812 C 561.148438 296.109375 560.453125 295.808594 559.714844 295.609375 C 558.976562 295.410156 558.222656 295.320312 557.460938 295.339844 C 556.695312 295.359375 555.949219 295.488281 555.21875 295.722656 C 554.492188 295.957031 553.8125 296.289062 553.179688 296.722656 C 551.722656 297.90625 550.214844 299.023438 548.660156 300.078125 C 547.105469 301.132812 545.511719 302.117188 543.871094 303.035156 C 542.230469 303.953125 540.554688 304.796875 538.84375 305.570312 C 537.128906 306.339844 535.386719 307.039062 533.613281 307.660156 C 531.839844 308.28125 530.046875 308.828125 528.226562 309.292969 C 526.40625 309.761719 524.570312 310.148438 522.71875 310.460938 C 520.863281 310.769531 519 310.996094 517.128906 311.144531 C 515.257812 311.292969 513.378906 311.363281 511.503906 311.347656 C 509.625 311.335938 507.75 311.242188 505.878906 311.066406 C 504.007812 310.890625 502.148438 310.636719 500.300781 310.300781 C 498.453125 309.964844 496.621094 309.554688 494.808594 309.058594 C 492.996094 308.566406 491.207031 307.996094 489.445312 307.351562 C 487.679688 306.703125 485.949219 305.980469 484.246094 305.1875 C 482.542969 304.390625 480.878906 303.523438 479.253906 302.582031 C 477.628906 301.640625 476.042969 300.632812 474.503906 299.558594 C 472.964844 298.480469 471.472656 297.34375 470.03125 296.136719 C 468.929688 295.628906 467.769531 295.40625 466.558594 295.472656 C 465.34375 295.535156 464.214844 295.878906 463.171875 296.496094 C 460.160156 298.5 457.28125 300.683594 454.539062 303.039062 C 451.796875 305.398438 449.207031 307.917969 446.773438 310.59375 C 444.34375 313.273438 442.085938 316.089844 440 319.046875 C 437.914062 322.003906 436.019531 325.074219 434.3125 328.265625 C 432.605469 331.457031 431.101562 334.738281 429.800781 338.113281 C 428.5 341.488281 427.410156 344.933594 426.535156 348.441406 C 425.660156 351.953125 425 355.503906 424.5625 359.09375 C 424.125 362.683594 423.910156 366.289062 423.914062 369.90625 C 423.914062 370.398438 423.960938 370.890625 424.058594 371.375 C 424.15625 371.859375 424.296875 372.328125 424.484375 372.785156 C 424.675781 373.242188 424.90625 373.675781 425.179688 374.085938 C 425.457031 374.496094 425.765625 374.875 426.117188 375.226562 C 426.464844 375.574219 426.847656 375.886719 427.257812 376.160156 C 427.667969 376.4375 428.101562 376.667969 428.558594 376.855469 C 429.015625 377.046875 429.484375 377.1875 429.96875 377.285156 C 430.453125 377.378906 430.941406 377.429688 431.4375 377.429688 L 593.304688 377.429688 C 593.800781 377.429688 594.289062 377.378906 594.773438 377.285156 C 595.257812 377.1875 595.726562 377.046875 596.183594 376.855469 C 596.640625 376.667969 597.074219 376.4375 597.484375 376.160156 C 597.894531 375.886719 598.277344 375.574219 598.625 375.226562 C 598.972656 374.875 599.285156 374.496094 599.5625 374.085938 C 599.835938 373.675781 600.066406 373.242188 600.253906 372.785156 C 600.445312 372.328125 600.585938 371.859375 600.683594 371.375 C 600.78125 370.890625 600.828125 370.398438 600.828125 369.90625 C 600.824219 366.296875 600.601562 362.699219 600.160156 359.117188 C 599.71875 355.535156 599.058594 351.992188 598.1875 348.492188 C 597.3125 344.988281 596.226562 341.554688 594.933594 338.183594 C 593.636719 334.816406 592.144531 331.535156 590.449219 328.347656 C 588.753906 325.164062 586.871094 322.089844 584.800781 319.132812 C 582.734375 316.175781 580.492188 313.355469 578.078125 310.671875 C 575.660156 307.988281 573.09375 305.464844 570.371094 303.09375 C 567.648438 300.722656 564.789062 298.527344 561.800781 296.507812 Z M 561.800781 296.507812 " fill-opacity="1" fill-rule="nonzero"/></g></svg>