<svg xmlns="http://www.w3.org/2000/svg" xmlns:xlink="http://www.w3.org/1999/xlink" width="1366" zoomAndPan="magnify" viewBox="0 0 1024.5 576" height="768" preserveAspectRatio="xMidYMid meet" version="1.0"><defs><clipPath id="36859c2a6a"><path d="M 0 0.140625 L 1024 0.140625 L 1024 575.859375 L 0 575.859375 Z M 0 0.140625 " clip-rule="nonzero"/></clipPath><clipPath id="6b816371bc"><path d="M 674 255 L 686.898438 255 L 686.898438 321 L 674 321 Z M 674 255 " clip-rule="nonzero"/></clipPath><clipPath id="8d8a54815c"><path d="M 484 233.039062 L 540 233.039062 L 540 261 L 484 261 Z M 484 233.039062 " clip-rule="nonzero"/></clipPath></defs><g clip-path="url(#36859c2a6a)"><path fill="#ffffff" d="M 0 0.140625 L 1024 0.140625 L 1024 575.859375 L 0 575.859375 Z M 0 0.140625 " fill-opacity="1" fill-rule="nonzero"/><path fill="#ffffff" d="M 0 0.140625 L 1024 0.140625 L 1024 575.859375 L 0 575.859375 Z M 0 0.140625 " fill-opacity="1" fill-rule="nonzero"/></g><path fill="#1a495d" d="M 480.828125 303.898438 C 480.464844 306.636719 479.886719 309.09375 479.070312 311.488281 C 478.375 313.515625 477.832031 315.65625 476.5625 317.390625 C 474.148438 320.6875 470.738281 322.34375 466.703125 322.714844 C 463.53125 323.011719 460.691406 321.984375 458.316406 320.003906 C 456.207031 318.242188 455.453125 315.765625 455.761719 313.007812 C 455.804688 312.628906 455.953125 312.246094 455.644531 311.703125 C 454.71875 312.816406 453.816406 313.855469 452.960938 314.9375 C 450.867188 317.582031 448.621094 320.097656 446.390625 322.625 C 443.828125 325.527344 440.722656 325.984375 437.195312 325.410156 C 431.53125 324.484375 427.375 321.027344 423.390625 317.257812 C 420.429688 314.457031 417.496094 311.628906 414.328125 309.058594 C 414.203125 308.957031 414.042969 308.902344 413.917969 308.835938 C 413.515625 309.140625 413.773438 309.429688 413.832031 309.703125 C 414.621094 313.386719 414.03125 316.988281 412.851562 320.449219 C 411.71875 323.75 407.789062 325.898438 404.265625 325.421875 C 402.929688 325.242188 401.550781 325.195312 400.292969 324.582031 C 399.578125 324.234375 399.40625 324.613281 399.367188 325.289062 C 399.242188 327.4375 398.875 329.558594 398.46875 331.667969 C 398.167969 333.246094 397.289062 333.585938 395.941406 332.703125 C 392.136719 330.210938 389.769531 326.832031 389.265625 322.21875 C 389.03125 320.054688 388.460938 319.585938 386.300781 319.730469 C 382.832031 319.960938 379.480469 320.742188 376.1875 321.882812 C 370.886719 323.714844 366.828125 327.285156 363.101562 331.253906 C 361.699219 332.746094 360.335938 334.296875 358.898438 335.761719 C 355.9375 338.789062 352.566406 341.050781 348.207031 341.65625 C 345.382812 342.042969 343.148438 340.921875 341.359375 339.113281 C 338.058594 335.773438 337.015625 331.558594 337.367188 326.921875 C 337.773438 321.496094 340.285156 316.914062 343.003906 312.402344 C 343.195312 312.085938 343.363281 311.472656 343.972656 311.828125 C 344.453125 312.105469 344.351562 312.589844 344.226562 313.007812 C 344.0625 313.550781 343.84375 314.078125 343.617188 314.59375 C 341.871094 318.554688 339.921875 322.449219 339.976562 326.9375 C 339.980469 327.289062 339.945312 327.640625 339.976562 327.988281 C 340.503906 333.773438 343.914062 335.835938 349.691406 333.761719 C 354.554688 332.015625 357.566406 327.953125 360.863281 324.285156 C 364.269531 320.496094 367.703125 316.738281 372.289062 314.316406 C 375.882812 312.417969 379.707031 311.152344 383.714844 310.566406 C 385.433594 310.3125 387.203125 310.628906 388.945312 310.878906 C 390.878906 311.15625 392.507812 312.050781 394.242188 312.90625 C 397.761719 314.644531 401.449219 316.113281 405.453125 316.429688 C 406.644531 316.523438 407.816406 316.414062 408.960938 316.054688 C 409.855469 315.777344 410.164062 315.414062 409.539062 314.460938 C 408.199219 312.429688 406.546875 310.691406 404.851562 308.972656 C 398.878906 302.917969 392.625 297.144531 386.777344 290.96875 C 385.835938 289.980469 384.992188 288.925781 384.328125 287.726562 C 383.976562 287.097656 383.753906 286.429688 383.695312 285.734375 C 383.292969 280.835938 383.09375 275.953125 384.601562 271.167969 C 384.917969 270.15625 385.394531 269.429688 386.308594 268.816406 C 393.613281 263.917969 401.519531 260.140625 409.347656 256.207031 C 415.960938 252.882812 422.515625 249.417969 429.378906 246.628906 C 435.296875 244.21875 441.035156 241.347656 447.195312 239.546875 C 448.546875 239.152344 449.90625 238.867188 451.328125 238.828125 C 455.253906 238.71875 458.078125 241.191406 457.515625 245.671875 C 457.035156 249.527344 456.101562 253.25 454.558594 256.808594 C 452.0625 262.570312 448.90625 267.980469 445.539062 273.269531 C 445.199219 273.808594 444.886719 274.40625 443.878906 274.953125 C 444.34375 273.3125 444.65625 271.972656 445.28125 270.722656 C 446.949219 267.398438 448.652344 264.089844 450.316406 260.757812 C 451.976562 257.429688 452.753906 253.929688 452.261719 250.199219 C 451.988281 248.121094 451.355469 247.589844 449.226562 247.664062 C 446.320312 247.765625 443.664062 248.796875 441.027344 249.882812 C 433.570312 252.945312 426.175781 256.164062 418.972656 259.785156 C 410.644531 263.96875 402.40625 268.335938 394.175781 272.710938 C 391.707031 274.027344 389.402344 275.648438 387.003906 277.097656 C 386.449219 277.429688 386.351562 277.746094 386.570312 278.363281 C 387.0625 279.734375 387.976562 280.769531 388.980469 281.761719 C 391.113281 283.875 393.597656 285.507812 396.179688 286.996094 C 405.617188 292.429688 414.5 298.65625 422.582031 305.960938 C 425.214844 308.34375 427.820312 310.753906 430.628906 312.921875 C 433.28125 314.972656 436.246094 316.371094 439.675781 316.371094 C 442.308594 316.371094 444.65625 315.503906 446.601562 313.65625 C 450.355469 310.089844 453.710938 306.140625 457.34375 302.460938 C 457.730469 302.070312 458.011719 301.226562 458.78125 301.644531 C 459.539062 302.058594 459.847656 302.777344 459.589844 303.667969 C 459.503906 303.960938 459.4375 304.261719 459.371094 304.5625 C 458.242188 309.589844 461.167969 313.464844 466.402344 313.816406 C 469.691406 314.035156 472.722656 313.246094 475.546875 311.496094 C 476.921875 310.636719 477.355469 309.605469 477.171875 308.019531 C 476.734375 304.183594 476 300.398438 475.253906 296.617188 C 473.164062 286 470.492188 275.496094 468.917969 264.777344 C 468.101562 259.230469 467.492188 253.648438 466.710938 248.09375 C 466.222656 244.640625 467.609375 241.652344 468.851562 238.613281 C 469.019531 238.199219 469.332031 237.816406 469.839844 237.882812 C 470.566406 237.980469 470.828125 238.597656 470.945312 239.199219 C 471.347656 241.21875 471.75 243.238281 472.046875 245.273438 C 473.417969 254.730469 474.660156 264.210938 476.863281 273.515625 C 478.296875 279.574219 479.722656 285.625 480.796875 291.757812 C 480.90625 292.386719 481.28125 292.855469 481.648438 293.277344 C 481.914062 293.28125 481.957031 293.140625 481.941406 293.015625 C 481.589844 290.234375 481.859375 287.578125 482.898438 284.90625 C 483.6875 282.867188 484.304688 280.765625 485.488281 278.910156 C 488.988281 273.433594 494.113281 271.285156 500.433594 271.890625 C 506.199219 272.449219 511.421875 274.386719 515.617188 278.570312 C 515.949219 278.894531 516.664062 279.167969 516.265625 279.804688 C 515.898438 280.386719 515.355469 280.613281 514.570312 280.367188 C 511.023438 279.25 507.359375 278.941406 503.664062 278.984375 C 499.335938 279.03125 495.144531 279.863281 491.144531 281.535156 C 490.261719 281.902344 489.457031 282.449219 488.613281 282.914062 C 487.386719 283.585938 487.257812 284.734375 487.550781 285.875 C 488.894531 291.15625 491.886719 296.289062 498.011719 297.722656 C 498.761719 297.898438 499.476562 297.902344 500.207031 297.628906 C 507.34375 294.949219 513.816406 291.195312 519.316406 285.855469 C 519.695312 285.492188 520.003906 284.734375 520.671875 285.078125 C 521.421875 285.460938 521.375 286.285156 521.140625 286.953125 C 520.261719 289.425781 519.363281 291.894531 517.546875 293.886719 C 511.761719 300.238281 504.894531 304.921875 496.632812 307.449219 C 491.804688 308.921875 485.480469 308.332031 480.828125 303.898438 Z M 480.828125 303.898438 " fill-opacity="1" fill-rule="nonzero"/><path fill="#1a495d" d="M 662.199219 253.691406 C 662.710938 256.292969 663.15625 258.914062 663.746094 261.5 C 665.984375 271.269531 668.28125 281.03125 670.53125 290.800781 C 671.75 296.09375 673.0625 301.371094 672.863281 306.882812 C 672.753906 309.878906 671.894531 312.652344 670.847656 315.402344 C 670.332031 316.75 669.785156 318.085938 669.226562 319.414062 C 667.785156 322.851562 664.789062 323.933594 661.460938 324.433594 C 658.421875 324.890625 655.683594 324.050781 653.410156 322.042969 C 651.4375 320.296875 650.863281 317.824219 650.484375 315.324219 C 650.421875 314.902344 650.378906 314.480469 650.289062 313.707031 C 649.453125 316.023438 648.773438 318.027344 648.011719 320 C 647.316406 321.800781 646.535156 323.550781 645.132812 324.964844 C 643.066406 327.046875 641.0625 327.390625 638.488281 325.984375 C 637.234375 325.300781 636.132812 324.449219 635.527344 323.105469 C 635.132812 322.230469 634.8125 322.40625 634.425781 323.113281 C 633.515625 324.777344 632.335938 326.238281 631.023438 327.601562 C 627.027344 331.746094 621.519531 330.738281 619.117188 324.890625 C 618.269531 322.832031 618.117188 320.644531 618.003906 318.042969 C 616.941406 319.386719 616.109375 320.457031 615.257812 321.515625 C 613.296875 323.960938 611.210938 326.242188 608.074219 327.234375 C 602.917969 328.859375 596.707031 327.382812 594.335938 320.941406 C 593.460938 318.5625 592.511719 316.214844 592.09375 313.53125 C 591.535156 314.003906 591.574219 314.542969 591.46875 315.015625 C 590.378906 319.996094 588.679688 324.695312 585.257812 328.609375 C 584.300781 329.707031 583.246094 330.625 581.84375 331.1875 C 580.886719 331.566406 580.089844 332.332031 579.207031 332.90625 C 575.5 335.308594 571.570312 337.160156 567.171875 337.929688 C 566.105469 338.117188 565.023438 338.363281 564.042969 338.886719 C 563.890625 338.96875 563.71875 339.082031 563.558594 339.074219 C 561.476562 338.988281 559.496094 339.511719 557.503906 340.007812 C 557.09375 340.109375 556.386719 340.265625 556.230469 339.703125 C 556.050781 339.0625 556.816406 339.042969 557.195312 338.859375 C 565.320312 334.871094 572.800781 329.820312 580.273438 324.765625 C 581.875 323.683594 583.167969 322.226562 584.546875 320.878906 C 585.347656 320.097656 585.460938 319.28125 585.238281 318.261719 C 584.730469 315.933594 583.585938 313.933594 582.136719 312.09375 C 577.398438 306.082031 571.925781 300.785156 566.335938 295.578125 C 558.996094 288.734375 551.355469 282.195312 544.652344 274.691406 C 542.804688 272.625 541.109375 270.453125 539.878906 267.957031 C 539.667969 267.527344 539.414062 267.226562 538.933594 267.144531 C 537.714844 266.941406 537.441406 266.179688 537.5625 265.042969 C 537.761719 263.214844 537.890625 261.375 537.992188 259.539062 C 538.089844 257.710938 538.859375 257.257812 540.566406 258.074219 C 543.40625 259.433594 546.253906 260.785156 549.09375 262.148438 C 551.386719 263.25 553.921875 263.742188 556.164062 264.960938 C 556.828125 265.320312 557.753906 265.457031 557.621094 266.519531 C 557.496094 267.523438 556.769531 267.804688 555.863281 267.964844 C 554.613281 268.183594 553.386719 268.527344 552.152344 268.832031 C 550.667969 269.195312 550.464844 269.855469 551.527344 270.976562 C 554.039062 273.613281 556.722656 276.066406 559.414062 278.515625 C 565.960938 284.476562 572.660156 290.296875 578.535156 296.945312 C 581.074219 299.824219 583.574219 302.796875 585.347656 306.257812 C 586.972656 309.421875 586.90625 312.863281 586.875 316.292969 C 586.871094 316.636719 586.875 316.984375 586.875 317.355469 C 588.328125 316.164062 589.480469 312.871094 589.175781 310.757812 C 588.167969 303.820312 587.121094 296.886719 586.144531 289.941406 C 584.871094 280.871094 583.515625 271.8125 581.945312 262.785156 C 580.886719 256.695312 579.90625 250.601562 579.558594 244.421875 C 579.375 241.136719 581.03125 238.351562 582 235.378906 C 582.128906 234.980469 582.507812 234.605469 583.019531 234.710938 C 583.632812 234.832031 583.824219 235.363281 583.878906 235.898438 C 584.128906 238.164062 584.328125 240.433594 584.582031 242.695312 C 585.144531 247.707031 586.027344 252.671875 586.898438 257.636719 C 588.835938 268.683594 590.589844 279.761719 592.070312 290.882812 C 592.761719 296.09375 592.78125 301.371094 593.8125 306.546875 C 594.523438 310.113281 595.894531 313.296875 598.410156 315.976562 C 600.539062 318.246094 603.171875 318.828125 606.09375 318.425781 C 609.664062 317.933594 612.457031 316.039062 614.703125 313.304688 C 616.589844 311.003906 618.683594 308.863281 620.308594 306.347656 C 620.523438 306.015625 620.746094 305.488281 621.308594 305.6875 C 621.785156 305.851562 622.113281 306.226562 622.226562 306.730469 C 622.347656 307.253906 622.273438 307.777344 622.144531 308.292969 C 621.792969 309.648438 621.546875 311.046875 621.0625 312.351562 C 620.3125 314.390625 620.90625 316.113281 621.988281 317.8125 C 624.3125 321.460938 627.644531 321.042969 630.382812 318.875 C 633.457031 316.449219 635.175781 313.117188 636.863281 309.734375 C 637.449219 308.558594 638.058594 307.394531 638.664062 306.226562 C 638.828125 305.917969 639.027344 305.558594 639.4375 305.617188 C 639.871094 305.675781 640.070312 306.058594 640.167969 306.453125 C 640.351562 307.191406 640.28125 307.941406 640.089844 308.664062 C 639.59375 310.523438 639.21875 312.425781 638.441406 314.199219 C 638.101562 314.964844 638.257812 315.492188 638.886719 316.03125 C 640.816406 317.691406 643.164062 317.695312 645.078125 316.019531 C 647.050781 314.292969 647.878906 311.9375 648.722656 309.578125 C 649.414062 307.636719 650.117188 305.703125 650.859375 303.78125 C 651.109375 303.128906 651.480469 302.347656 652.347656 302.648438 C 653.199219 302.949219 653.191406 303.78125 653.023438 304.5625 C 651.832031 310.039062 656.335938 316.777344 664.003906 315.335938 C 665.292969 315.09375 666.582031 314.792969 667.726562 314.09375 C 668.449219 313.648438 668.792969 313.132812 668.648438 312.15625 C 668.011719 307.902344 667.0625 303.714844 665.910156 299.582031 C 664.605469 294.894531 663.558594 290.148438 662.515625 285.398438 C 661.207031 279.40625 659.503906 273.503906 658.371094 267.472656 C 657.363281 262.089844 656.023438 256.769531 655.476562 251.304688 C 655.261719 249.136719 655.527344 246.859375 654.535156 244.847656 C 653.394531 242.539062 654.207031 240.445312 654.90625 238.300781 C 655.234375 237.296875 655.515625 236.28125 655.910156 235.304688 C 656.402344 234.082031 657.140625 233.929688 658.105469 234.824219 C 658.449219 235.140625 658.675781 235.589844 658.953125 235.980469 C 661.992188 240.253906 663.589844 245.164062 665.261719 250.058594 C 665.964844 252.109375 666.414062 254.171875 666.597656 256.3125 C 666.632812 256.734375 666.695312 257.269531 666.203125 257.46875 C 665.671875 257.683594 665.445312 257.160156 665.175781 256.84375 C 664.238281 255.765625 663.316406 254.675781 662.390625 253.589844 C 662.328125 253.621094 662.261719 253.65625 662.199219 253.691406 Z M 662.199219 253.691406 " fill-opacity="1" fill-rule="nonzero"/><path fill="#1a495d" d="M 501.691406 327.777344 C 501.710938 324.21875 503.578125 319.5625 505.835938 315.023438 C 506.265625 314.160156 506.71875 313.3125 507.203125 312.480469 C 507.40625 312.136719 507.550781 311.492188 508.105469 311.738281 C 508.671875 311.988281 508.28125 312.507812 508.136719 312.878906 C 507.316406 315.003906 506.46875 317.117188 505.628906 319.238281 C 504.570312 321.914062 503.898438 324.667969 504.09375 327.570312 C 504.496094 333.652344 509.609375 335.234375 513.964844 332.878906 C 516.34375 331.59375 518.199219 329.636719 520.105469 327.761719 C 522.796875 325.117188 525.210938 322.21875 527.929688 319.601562 C 531.714844 315.957031 535.878906 312.855469 540.457031 310.316406 C 541.554688 309.707031 541.875 309.140625 541.28125 307.976562 C 540.710938 306.855469 540.773438 305.582031 540.957031 304.363281 C 541.238281 302.5 541.566406 300.640625 541.9375 298.796875 C 542.925781 293.863281 547.242188 291.617188 551.78125 293.753906 C 557.351562 296.375 561.65625 300.496094 565.214844 305.449219 C 565.5625 305.933594 565.746094 306.417969 565.511719 307.03125 C 564.792969 308.910156 564.117188 310.808594 563.394531 312.6875 C 562.992188 313.738281 562.21875 314.175781 561.0625 314.246094 C 558.660156 314.394531 556.265625 314.625 553.886719 315.027344 C 552.746094 315.21875 552.453125 315.78125 552.609375 316.839844 C 552.730469 317.660156 552.738281 318.5 552.734375 319.328125 C 552.734375 319.839844 552.765625 320.441406 552.15625 320.683594 C 551.464844 320.953125 550.988281 320.542969 550.578125 320.050781 C 549.957031 319.3125 549.3125 318.59375 548.734375 317.824219 C 548.074219 316.949219 547.335938 316.746094 546.234375 317.003906 C 542.5625 317.867188 539.472656 319.84375 536.425781 321.914062 C 531.054688 325.5625 526.539062 330.148438 522.15625 334.886719 C 520.433594 336.753906 518.632812 338.550781 516.679688 340.1875 C 515.078125 341.539062 513.117188 342.144531 511.164062 342.457031 C 508.277344 342.917969 506.171875 341.160156 504.613281 339.050781 C 502.476562 336.15625 501.628906 332.78125 501.691406 327.777344 Z M 554.429688 306.125 C 553.199219 304.328125 548.78125 301.289062 546.929688 300.914062 C 545.996094 300.722656 544.394531 301.441406 544.222656 302.125 C 543.960938 303.144531 547.171875 307.394531 548.25 307.261719 C 550.308594 307.007812 552.390625 306.761719 554.429688 306.125 Z M 554.429688 306.125 " fill-opacity="1" fill-rule="nonzero"/><g clip-path="url(#6b816371bc)"><path fill="#1a495d" d="M 682.835938 273.078125 C 683.398438 276.261719 683.875 279.460938 684.542969 282.621094 C 686.265625 290.777344 687.007812 298.984375 686.039062 307.300781 C 685.601562 311.050781 684.824219 314.726562 683.570312 318.292969 C 683.453125 318.621094 683.304688 318.945312 683.140625 319.25 C 682.964844 319.585938 682.835938 320.117188 682.363281 319.992188 C 681.871094 319.863281 682.023438 319.351562 682.070312 318.972656 C 682.210938 317.839844 682.378906 316.714844 682.503906 315.582031 C 682.992188 311.136719 682.394531 306.734375 681.761719 302.367188 C 680.238281 291.878906 677.949219 281.519531 676.226562 271.0625 C 675.921875 269.222656 675.429688 267.378906 675.710938 265.472656 C 675.730469 265.351562 675.726562 265.164062 675.648438 265.101562 C 674.460938 264.097656 675.074219 262.9375 675.371094 261.828125 C 675.820312 260.136719 676.328125 258.464844 676.785156 256.773438 C 676.953125 256.144531 677.183594 255.570312 677.90625 255.488281 C 678.664062 255.40625 679.019531 256.054688 679.226562 256.574219 C 679.921875 258.285156 681.074219 259.761719 681.722656 261.480469 C 683.132812 265.199219 685.058594 268.703125 686.242188 272.515625 C 686.34375 272.84375 686.460938 273.195312 686.445312 273.53125 C 686.410156 274.378906 686.03125 274.808594 685.179688 274.292969 C 684.480469 273.867188 683.820312 273.382812 683.140625 272.925781 C 683.039062 272.976562 682.9375 273.027344 682.835938 273.078125 Z M 682.835938 273.078125 " fill-opacity="1" fill-rule="nonzero"/></g><path fill="#1a495d" d="M 648.949219 254.671875 C 649.808594 254.75 650.398438 255.277344 650.152344 256.039062 C 649.40625 258.363281 648.082031 260.386719 646.199219 261.933594 C 645.574219 262.449219 644.554688 262.464844 643.738281 262.769531 C 632.691406 266.882812 621.984375 271.785156 611.207031 276.535156 C 607.636719 278.105469 604.117188 279.769531 600.65625 281.5625 C 600.214844 281.792969 599.746094 282.019531 599.304688 281.675781 C 598.824219 281.300781 599.046875 280.800781 599.226562 280.351562 C 599.949219 278.519531 600.683594 276.691406 601.410156 274.859375 C 601.628906 274.308594 601.980469 273.875 602.535156 273.640625 C 614.4375 268.636719 626.332031 263.609375 638.253906 258.648438 C 641.523438 257.289062 644.875 256.117188 648.191406 254.867188 C 648.433594 254.777344 648.699219 254.738281 648.949219 254.671875 Z M 648.949219 254.671875 " fill-opacity="1" fill-rule="nonzero"/><g clip-path="url(#8d8a54815c)"><path fill="#1a495d" d="M 537.867188 233.1875 C 538.808594 233.042969 539.132812 233.492188 539.457031 233.898438 C 539.8125 234.347656 539.675781 234.796875 539.378906 235.226562 C 538.90625 235.914062 538.414062 236.585938 537.984375 237.296875 C 537.113281 238.730469 535.695312 239.066406 534.207031 239.554688 C 529.882812 240.972656 525.578125 242.480469 521.359375 244.179688 C 510.921875 248.382812 500.449219 252.511719 490.410156 257.632812 C 488.855469 258.425781 487.375 259.375 485.851562 260.234375 C 485.488281 260.441406 485.09375 260.820312 484.664062 260.453125 C 484.3125 260.15625 484.464844 259.695312 484.578125 259.335938 C 485.023438 257.917969 485.515625 256.515625 485.984375 255.101562 C 486.226562 254.371094 486.828125 254.027344 487.449219 253.675781 C 493.121094 250.496094 499.171875 248.175781 505.203125 245.796875 C 514.574219 242.101562 523.941406 238.390625 533.398438 234.925781 C 534.996094 234.339844 536.59375 233.765625 537.867188 233.1875 Z M 537.867188 233.1875 " fill-opacity="1" fill-rule="nonzero"/></g><path fill="#1a495d" d="M 615.714844 247.722656 C 615.773438 245.101562 616.644531 242.65625 616.984375 240.109375 C 617.449219 236.609375 619.808594 234.6875 622.980469 235.117188 C 625.542969 235.464844 626.953125 237.203125 627.816406 239.429688 C 628.675781 241.652344 628.046875 243.617188 626.472656 245.339844 C 626.039062 245.816406 625.757812 245.617188 625.628906 245.160156 C 625.425781 244.449219 625.328125 243.707031 625.183594 242.980469 C 624.765625 240.910156 623.230469 239.367188 621.597656 239.378906 C 620.230469 239.382812 619.433594 240.238281 619.046875 241.535156 C 617.980469 245.101562 618.546875 248.882812 617.503906 252.441406 C 617.121094 253.746094 616.773438 255.058594 616.082031 256.234375 C 615.894531 256.554688 615.722656 257.027344 615.25 256.96875 C 614.839844 256.917969 614.816406 256.453125 614.679688 256.148438 C 613.734375 253.980469 612.847656 251.789062 611.855469 249.644531 C 611.0625 247.933594 610.050781 246.339844 608.875 244.859375 C 608.34375 244.195312 607.660156 243.730469 606.894531 243.382812 C 606.175781 243.0625 605.570312 243.074219 605.078125 243.824219 C 604.464844 244.765625 603.503906 245.246094 602.472656 244.816406 C 601.402344 244.371094 600.34375 243.714844 600.371094 242.246094 C 600.382812 241.679688 600.25 241.113281 600.199219 240.546875 C 599.992188 238.210938 600.90625 237.070312 603.257812 236.707031 C 606.722656 236.175781 610.378906 238.097656 612.273438 241.378906 C 613.472656 243.449219 614.585938 245.558594 615.714844 247.722656 Z M 615.714844 247.722656 " fill-opacity="1" fill-rule="nonzero"/><path fill="#1a495d" d="M 446.308594 281.132812 C 448.050781 281.230469 449.726562 281.382812 451.144531 282.5625 C 451.648438 282.976562 451.886719 283.414062 451.664062 284.039062 C 449.914062 288.941406 447.847656 293.589844 442.488281 295.667969 C 440.863281 296.300781 439.355469 297.246094 437.597656 297.527344 C 437.207031 297.589844 436.820312 297.675781 436.429688 297.683594 C 436.050781 297.695312 435.585938 297.777344 435.40625 297.308594 C 435.246094 296.890625 435.640625 296.691406 435.878906 296.453125 C 437.003906 295.320312 438.484375 294.695312 439.765625 293.785156 C 441.230469 292.738281 442.640625 291.640625 444.03125 290.503906 C 444.289062 290.292969 444.75 290.117188 444.628906 289.730469 C 444.496094 289.3125 444.023438 289.484375 443.699219 289.496094 C 440.9375 289.589844 438.207031 290 435.480469 290.402344 C 432.953125 290.777344 432.828125 290.652344 433.449219 288.230469 C 433.839844 286.707031 434.261719 285.1875 434.683594 283.671875 C 434.925781 282.808594 435.382812 282.1875 436.378906 282.09375 C 439.691406 281.785156 443 281.453125 446.308594 281.132812 Z M 446.308594 281.132812 " fill-opacity="1" fill-rule="nonzero"/><path fill="#1a495d" d="M 362.015625 288.34375 C 360.449219 288.347656 358.980469 288.742188 357.523438 289.253906 C 356.367188 289.660156 355.898438 289.269531 356.199219 288.078125 C 356.648438 286.292969 357.398438 284.59375 358.332031 283.027344 C 359.074219 281.785156 360.515625 281.492188 361.878906 281.285156 C 363.796875 280.996094 365.707031 281.019531 367.632812 281.335938 C 369.832031 281.699219 372.050781 281.949219 374.261719 282.253906 C 374.828125 282.332031 375.351562 282.488281 375.847656 282.824219 C 376.683594 283.390625 376.820312 283.953125 376.339844 284.910156 C 373.695312 290.179688 369.609375 293.898438 364.285156 296.308594 C 362.417969 297.15625 360.703125 298.355469 358.644531 298.761719 C 358.011719 298.886719 357.089844 299.222656 356.839844 298.609375 C 356.546875 297.878906 357.484375 297.476562 358.058594 297.171875 C 361.558594 295.328125 364.828125 293.152344 367.875 290.640625 C 368.113281 290.445312 368.355469 290.257812 368.574219 290.042969 C 368.785156 289.835938 369.140625 289.660156 369.050781 289.316406 C 368.960938 288.957031 368.578125 288.984375 368.285156 288.953125 C 366.195312 288.746094 364.105469 288.546875 362.015625 288.34375 Z M 362.015625 288.34375 " fill-opacity="1" fill-rule="nonzero"/><path fill="#1a495d" d="M 356.679688 263.472656 C 357.453125 262.136719 357.457031 261.046875 357.449219 259.960938 C 357.433594 256.425781 359.175781 253.804688 361.820312 251.695312 C 363.003906 250.75 365.339844 251.09375 366.84375 252.273438 C 368.496094 253.570312 369.371094 255.382812 370.164062 257.242188 C 370.417969 257.839844 369.191406 260.671875 368.617188 260.988281 C 368.046875 261.304688 367.8125 260.914062 367.628906 260.492188 C 367.335938 259.808594 367.058594 259.121094 366.792969 258.425781 C 366.570312 257.84375 366.246094 257.324219 365.8125 256.886719 C 364.859375 255.925781 363.8125 255.097656 362.339844 255.53125 C 361.390625 255.8125 359.832031 258.089844 359.847656 259.148438 C 359.886719 262.207031 359.050781 265.027344 357.644531 267.707031 C 357.484375 268.015625 357.308594 268.324219 357.09375 268.59375 C 356.167969 269.753906 355.578125 269.65625 354.917969 268.3125 C 353.882812 266.199219 353.300781 263.886719 351.953125 261.90625 C 350.675781 260.027344 350.710938 259.984375 348.507812 260.351562 C 347.378906 260.539062 346.597656 260.019531 346.230469 259.015625 C 345.707031 257.589844 345.652344 256.089844 346.082031 254.628906 C 346.488281 253.253906 347.117188 252.925781 348.566406 253.203125 C 351.316406 253.730469 352.917969 255.625 354.1875 257.929688 C 355.113281 259.609375 355.921875 261.34375 356.679688 263.472656 Z M 356.679688 263.472656 " fill-opacity="1" fill-rule="nonzero"/><path fill="#1a495d" d="M 390.824219 241.558594 C 391.984375 241.492188 392.976562 241.941406 393.882812 242.585938 C 394.890625 243.304688 394.789062 244.324219 394.4375 245.316406 C 394.074219 246.347656 393.644531 247.359375 393.179688 248.347656 C 392.8125 249.125 392.769531 249.65625 393.625 250.203125 C 394.464844 250.738281 395.820312 251.167969 395.636719 252.375 C 395.429688 253.753906 394.472656 254.898438 393.414062 255.851562 C 392.96875 256.253906 392.542969 255.996094 392.105469 255.726562 C 390.03125 254.457031 390.054688 254.5 388.183594 256.039062 C 384.617188 258.972656 380.765625 261.460938 376.550781 263.363281 C 376.507812 263.382812 376.472656 263.40625 376.429688 263.417969 C 375.644531 263.625 374.539062 264.164062 374.164062 263.386719 C 373.820312 262.671875 375.042969 262.433594 375.621094 262.054688 C 379.683594 259.378906 383.730469 256.695312 387.410156 253.496094 C 387.917969 253.050781 387.996094 252.761719 387.578125 252.207031 C 386.628906 250.953125 385.941406 249.515625 384.863281 248.347656 C 384.382812 247.828125 384.355469 247.152344 384.445312 246.480469 C 384.828125 243.5625 385.996094 242.308594 388.863281 241.78125 C 389.507812 241.660156 390.171875 241.628906 390.824219 241.558594 Z M 390.101562 245.277344 C 389.695312 245.394531 389.058594 245.082031 389.035156 245.863281 C 389.027344 246.203125 390.445312 247.925781 390.59375 247.808594 C 391.125 247.386719 391.359375 246.753906 391.398438 246.121094 C 391.457031 245.179688 390.65625 245.386719 390.101562 245.277344 Z M 390.101562 245.277344 " fill-opacity="1" fill-rule="nonzero"/><path fill="#1a495d" d="M 535.199219 273.984375 C 538.421875 274.058594 539.941406 275.75 539.398438 279.003906 C 539.152344 280.46875 539.464844 281.3125 540.8125 281.828125 C 541.089844 281.9375 541.339844 282.144531 541.578125 282.332031 C 542.105469 282.75 543.027344 283.039062 542.730469 283.882812 C 542.414062 284.78125 541.578125 285.28125 540.597656 285.402344 C 540.386719 285.429688 540.164062 285.34375 539.949219 285.335938 C 539.082031 285.320312 538.242188 284.339844 537.496094 284.875 C 536.890625 285.308594 536.648438 286.269531 536.265625 287.003906 C 533.453125 292.367188 528.929688 295.832031 523.640625 298.457031 C 523.445312 298.554688 523.226562 298.683594 523.027344 298.671875 C 522.496094 298.652344 521.714844 299.105469 521.503906 298.449219 C 521.324219 297.886719 522.164062 297.78125 522.578125 297.5 C 527.378906 294.234375 531.675781 290.503906 534.324219 285.175781 C 535.445312 282.921875 535.503906 282.957031 533.238281 281.878906 C 532.445312 281.503906 531.664062 281.113281 530.988281 280.535156 C 529.609375 279.355469 529.429688 277.617188 530.515625 276.132812 C 531.679688 274.539062 533.265625 273.898438 535.199219 273.984375 Z M 535.050781 276.625 C 534.691406 276.679688 534.085938 276.765625 533.480469 276.851562 C 533.109375 276.90625 532.757812 277.046875 532.710938 277.441406 C 532.675781 277.78125 533.007812 278.003906 533.265625 278.121094 C 534.257812 278.570312 535.277344 278.976562 536.289062 279.386719 C 536.613281 279.523438 536.765625 279.316406 536.871094 279.046875 C 537.316406 277.90625 536.496094 276.636719 535.050781 276.625 Z M 535.050781 276.625 " fill-opacity="1" fill-rule="nonzero"/><path fill="#1a495d" d="M 640.34375 287.359375 C 640.304688 287.984375 640.265625 288.484375 640.40625 289.019531 C 640.816406 290.566406 639.875 292.476562 638.296875 293.480469 C 637.199219 294.175781 635.628906 294.074219 634.421875 292.945312 C 633.449219 292.035156 632.875 292.21875 631.957031 293.027344 C 630.046875 294.703125 627.984375 294 627.21875 291.570312 C 626.671875 289.847656 626.292969 288.109375 626.21875 286.296875 C 626.183594 285.4375 626.097656 284.570312 625.582031 283.785156 C 625.054688 282.980469 625.355469 282.183594 626.128906 281.769531 C 626.972656 281.308594 627.609375 281.90625 627.859375 282.644531 C 628.292969 283.921875 628.519531 285.265625 628.59375 286.617188 C 628.632812 287.28125 628.714844 287.929688 628.960938 288.539062 C 629.292969 289.351562 629.980469 289.660156 630.777344 289.414062 C 631.582031 289.167969 632.113281 288.667969 631.867188 287.644531 C 631.511719 286.15625 631.25 284.644531 630.96875 283.140625 C 630.839844 282.449219 630.652344 281.566406 631.46875 281.304688 C 632.390625 281.007812 632.902344 281.804688 633.164062 282.578125 C 633.671875 284.066406 634.097656 285.582031 634.554688 287.089844 C 634.691406 287.558594 634.824219 288.046875 635.21875 288.347656 C 635.773438 288.769531 636.296875 289.742188 637.058594 289.152344 C 637.785156 288.585938 638.058594 287.601562 637.441406 286.667969 C 636.75 285.625 636.316406 284.492188 636.152344 283.257812 C 636.074219 282.671875 635.804688 281.9375 636.53125 281.617188 C 637.234375 281.304688 637.996094 281.59375 638.414062 282.175781 C 639.535156 283.746094 640.59375 285.378906 640.34375 287.359375 Z M 640.34375 287.359375 " fill-opacity="1" fill-rule="nonzero"/><path fill="#1a495d" d="M 433.878906 335.542969 C 433.882812 336.027344 433.710938 336.375 433.546875 336.738281 C 432.691406 338.671875 431.363281 340.316406 430.285156 342.109375 C 429.925781 342.710938 429.367188 342.953125 428.601562 342.578125 C 426.375 341.472656 424.117188 340.433594 421.871094 339.363281 C 421.519531 339.195312 421.167969 339.011719 420.832031 338.8125 C 419.292969 337.898438 419.148438 337.421875 420.058594 335.871094 C 420.964844 334.328125 421.671875 332.675781 422.726562 331.210938 C 423.402344 330.28125 424.214844 330.054688 425.234375 330.523438 C 427.730469 331.683594 430.222656 332.855469 432.71875 334.011719 C 433.414062 334.335938 433.816406 334.851562 433.878906 335.542969 Z M 433.878906 335.542969 " fill-opacity="1" fill-rule="nonzero"/><path fill="#1a495d" d="M 442.265625 329.664062 C 442.871094 329.785156 443.566406 330.355469 444.335938 330.761719 C 445.921875 331.59375 447.511719 332.429688 449.066406 333.316406 C 450.097656 333.90625 450.363281 334.757812 449.792969 335.875 C 448.851562 337.722656 447.675781 339.410156 446.457031 341.070312 C 445.882812 341.847656 445.226562 342.085938 444.332031 341.4375 C 442.652344 340.226562 440.726562 339.457031 438.90625 338.492188 C 436.972656 337.46875 436.710938 336.859375 437.777344 335.019531 C 438.65625 333.503906 439.589844 332.019531 440.519531 330.535156 C 440.851562 330.007812 441.238281 329.511719 442.265625 329.664062 Z M 442.265625 329.664062 " fill-opacity="1" fill-rule="nonzero"/><path fill="#1a495d" d="M 549.652344 252.5 C 550.082031 250.769531 550.71875 248.957031 551.550781 247.214844 C 551.78125 246.726562 552.308594 246.65625 552.746094 246.472656 C 557.121094 244.675781 561.492188 242.878906 565.867188 241.085938 C 566.566406 240.796875 567.273438 240.804688 567.800781 241.394531 C 568.316406 241.980469 568.101562 242.613281 567.714844 243.207031 C 567.308594 243.832031 566.933594 244.472656 566.519531 245.09375 C 565.664062 246.378906 564.6875 247.367188 563.066406 247.882812 C 558.847656 249.230469 554.898438 251.261719 550.929688 253.21875 C 549.984375 253.683594 549.636719 253.539062 549.652344 252.5 Z M 549.652344 252.5 " fill-opacity="1" fill-rule="nonzero"/><path fill="#1a495d" d="M 487.023438 335.25 C 489.164062 335.171875 491.148438 334.542969 493.089844 333.691406 C 493.789062 333.382812 494.742188 332.84375 495.214844 333.71875 C 495.722656 334.671875 494.6875 335.191406 494.019531 335.585938 C 491.546875 337.054688 488.894531 338.089844 486.007812 338.300781 C 484.441406 338.414062 483.101562 337.722656 482.109375 336.488281 C 481.304688 335.488281 481.421875 333.949219 482.351562 333.027344 C 482.972656 332.414062 483.636719 331.839844 484.308594 331.28125 C 484.761719 330.898438 484.839844 330.636719 484.234375 330.332031 C 483.519531 329.976562 482.96875 329.410156 482.40625 328.847656 C 481.878906 328.316406 481.617188 327.703125 481.664062 326.960938 C 481.824219 324.46875 483.195312 322.734375 485.191406 321.429688 C 485.839844 321.003906 487.746094 321.589844 488.191406 322.226562 C 488.417969 322.554688 488.410156 322.894531 488.207031 323.210938 C 487.902344 323.679688 487.5 324.003906 486.894531 323.875 C 486.285156 323.746094 485.71875 323.617188 485.195312 324.167969 C 484.484375 324.914062 483.726562 325.722656 483.957031 326.78125 C 484.1875 327.828125 485.164062 328.320312 486.15625 328.640625 C 486.28125 328.679688 486.410156 328.707031 486.535156 328.746094 C 488.9375 329.476562 489.074219 330 487.292969 331.714844 C 486.566406 332.414062 485.800781 333.070312 485.078125 333.773438 C 484.855469 333.992188 484.398438 334.152344 484.609375 334.597656 C 484.761719 334.921875 485.070312 335.117188 485.453125 335.144531 C 485.976562 335.179688 486.5 335.214844 487.023438 335.25 Z M 487.023438 335.25 " fill-opacity="1" fill-rule="nonzero"/><path fill="#1a495d" d="M 412.519531 279.679688 C 412.296875 275.492188 413.816406 271.851562 416.039062 268.449219 C 416.335938 267.996094 416.546875 267.070312 417.492188 267.59375 C 418.347656 268.066406 418.050781 268.710938 417.8125 269.40625 C 417.007812 271.75 415.675781 273.9375 415.65625 276.519531 C 415.652344 276.78125 415.640625 277.046875 415.652344 277.308594 C 415.695312 278.175781 415.578125 279.191406 416.765625 279.375 C 417.925781 279.554688 418.476562 278.664062 418.949219 277.820312 C 419.183594 277.410156 419.230469 276.898438 419.425781 276.460938 C 419.582031 276.105469 419.792969 275.726562 420.300781 275.832031 C 420.808594 275.9375 421.203125 276.191406 421.253906 276.765625 C 421.277344 277.070312 421.316406 277.390625 421.253906 277.683594 C 420.664062 280.546875 419.617188 283.136719 416.882812 284.65625 C 415.289062 285.542969 413.113281 284.511719 412.808594 282.6875 C 412.640625 281.695312 412.609375 280.683594 412.519531 279.679688 Z M 412.519531 279.679688 " fill-opacity="1" fill-rule="nonzero"/><path fill="#1a495d" d="M 374.339844 338.433594 C 374.261719 335.011719 375.257812 331.886719 376.96875 328.960938 C 377.144531 328.660156 377.367188 328.386719 377.59375 328.121094 C 377.953125 327.699219 378.371094 327.386719 378.957031 327.695312 C 379.519531 327.992188 379.800781 328.453125 379.691406 329.097656 C 379.515625 330.09375 379.246094 331.054688 378.707031 331.929688 C 378.105469 332.90625 377.726562 333.976562 377.464844 335.089844 C 377.332031 335.664062 377.273438 336.332031 377.800781 336.652344 C 378.410156 337.027344 379.15625 337.03125 379.757812 336.496094 C 380.3125 336 380.824219 335.460938 381.375 334.960938 C 381.75 334.625 382.09375 334.105469 382.714844 334.515625 C 383.253906 334.875 383.40625 335.398438 383.296875 336.007812 C 383.023438 337.59375 382.21875 338.9375 381.402344 340.292969 C 380.660156 341.527344 379.699219 342.394531 378.25 342.601562 C 375.902344 342.933594 374.359375 341.585938 374.34375 339.222656 C 374.339844 338.960938 374.339844 338.695312 374.339844 338.433594 Z M 374.339844 338.433594 " fill-opacity="1" fill-rule="nonzero"/><path fill="#1a495d" d="M 342.210938 288.992188 C 342.484375 285.507812 342.714844 282.019531 344.015625 278.710938 C 344.324219 277.933594 344.734375 277.210938 345.261719 276.566406 C 345.621094 276.125 346.117188 275.910156 346.664062 276.082031 C 347.242188 276.261719 347.1875 276.820312 347.21875 277.292969 C 347.273438 278.160156 346.941406 278.945312 346.554688 279.667969 C 345.363281 281.914062 345.292969 284.363281 345.164062 286.808594 C 345.152344 287.089844 345.058594 287.488281 345.425781 287.613281 C 345.761719 287.730469 345.980469 287.410156 346.164062 287.183594 C 346.578125 286.675781 346.972656 286.152344 347.339844 285.609375 C 347.617188 285.199219 347.945312 284.980469 348.4375 285.132812 C 348.914062 285.277344 349.207031 285.632812 349.164062 286.109375 C 348.921875 289.050781 348.132812 291.820312 345.929688 293.898438 C 344.707031 295.054688 343.425781 294.539062 342.730469 292.984375 C 342.144531 291.679688 342.1875 290.351562 342.210938 288.992188 Z M 342.210938 288.992188 " fill-opacity="1" fill-rule="nonzero"/><path fill="#1a495d" d="M 671.980469 243.851562 C 671.890625 242.316406 672.738281 240.964844 674.765625 240.054688 C 677.523438 238.816406 680.351562 237.777344 683.175781 236.71875 C 684.089844 236.375 684.882812 236.792969 685.527344 237.488281 C 685.734375 237.714844 685.796875 237.972656 685.636719 238.203125 C 684.8125 239.371094 684.140625 240.757812 682.65625 241.214844 C 679.339844 242.238281 676.160156 243.542969 673.171875 245.332031 C 672.230469 245.898438 671.890625 245.609375 671.980469 243.851562 Z M 671.980469 243.851562 " fill-opacity="1" fill-rule="nonzero"/></svg>