<svg xmlns="http://www.w3.org/2000/svg" xmlns:xlink="http://www.w3.org/1999/xlink" width="1366" zoomAndPan="magnify" viewBox="0 0 1024.5 576" height="768" preserveAspectRatio="xMidYMid meet" version="1.0"><defs><clipPath id="df67da75fe"><path d="M 0 0.140625 L 1024 0.140625 L 1024 575.859375 L 0 575.859375 Z M 0 0.140625 " clip-rule="nonzero"/></clipPath><clipPath id="49e3713d00"><path d="M 87 326.097656 L 995.496094 326.097656 L 995.496094 345.589844 L 87 345.589844 Z M 87 326.097656 " clip-rule="nonzero"/></clipPath><clipPath id="ac076f04b2"><path d="M 96.734375 326.097656 L 985.992188 326.097656 C 988.539062 326.097656 990.984375 327.109375 992.789062 328.914062 C 994.589844 330.714844 995.601562 333.160156 995.601562 335.707031 C 995.601562 338.257812 994.589844 340.703125 992.789062 342.503906 C 990.984375 344.304688 988.539062 345.320312 985.992188 345.320312 L 96.734375 345.320312 C 94.183594 345.320312 91.742188 344.304688 89.9375 342.503906 C 88.136719 340.703125 87.125 338.257812 87.125 335.707031 C 87.125 333.160156 88.136719 330.714844 89.9375 328.914062 C 91.742188 327.109375 94.183594 326.097656 96.734375 326.097656 Z M 96.734375 326.097656 " clip-rule="nonzero"/></clipPath><clipPath id="289c5d51d9"><path d="M 86.9375 326.097656 L 289.496094 326.097656 L 289.496094 344.265625 L 86.9375 344.265625 Z M 86.9375 326.097656 " clip-rule="nonzero"/></clipPath><clipPath id="a57f7f9e0e"><path d="M 96.023438 326.097656 L 280.34375 326.097656 C 282.75 326.097656 285.0625 327.054688 286.765625 328.757812 C 288.46875 330.460938 289.425781 332.773438 289.425781 335.183594 C 289.425781 337.589844 288.46875 339.902344 286.765625 341.605469 C 285.0625 343.308594 282.75 344.265625 280.34375 344.265625 L 96.023438 344.265625 C 93.613281 344.265625 91.304688 343.308594 89.597656 341.605469 C 87.894531 339.902344 86.9375 337.589844 86.9375 335.183594 C 86.9375 332.773438 87.894531 330.460938 89.597656 328.757812 C 91.304688 327.054688 93.613281 326.097656 96.023438 326.097656 Z M 96.023438 326.097656 " clip-rule="nonzero"/></clipPath><clipPath id="0c7c15273d"><path d="M 86.949219 326.097656 L 289.339844 326.097656 L 289.339844 344.089844 L 86.949219 344.089844 Z M 86.949219 326.097656 " clip-rule="nonzero"/></clipPath><clipPath id="9b10423d1f"><path d="M 96.03125 326.097656 L 280.328125 326.097656 C 282.738281 326.097656 285.046875 327.054688 286.75 328.757812 C 288.453125 330.460938 289.410156 332.773438 289.410156 335.179688 C 289.410156 337.589844 288.453125 339.902344 286.75 341.605469 C 285.046875 343.308594 282.738281 344.265625 280.328125 344.265625 L 96.03125 344.265625 C 93.621094 344.265625 91.3125 343.308594 89.609375 341.605469 C 87.90625 339.902344 86.949219 337.589844 86.949219 335.179688 C 86.949219 332.773438 87.90625 330.460938 89.609375 328.757812 C 91.3125 327.054688 93.621094 326.097656 96.03125 326.097656 Z M 96.03125 326.097656 " clip-rule="nonzero"/></clipPath></defs><g clip-path="url(#df67da75fe)"><path fill="#ffffff" d="M 0 0.140625 L 1024 0.140625 L 1024 575.859375 L 0 575.859375 Z M 0 0.140625 " fill-opacity="1" fill-rule="nonzero"/><path fill="#ffffff" d="M 0 0.140625 L 1024 0.140625 L 1024 575.859375 L 0 575.859375 Z M 0 0.140625 " fill-opacity="1" fill-rule="nonzero"/></g><g clip-path="url(#49e3713d00)"><g clip-path="url(#ac076f04b2)"><path stroke-linecap="butt" transform="matrix(0.749634, 0, 0, 0.749634, 87.123604, 326.097762)" fill="none" stroke-linejoin="miter" d="M 12.820616 -0.000140892 L 1199.076486 -0.000140892 C 1202.473977 -0.000140892 1205.735985 1.349476 1208.14341 3.756901 C 1210.545624 6.159114 1211.895241 9.421123 1211.895241 12.818614 C 1211.895241 16.221315 1210.545624 19.483324 1208.14341 21.885537 C 1205.735985 24.287751 1202.473977 25.642579 1199.076486 25.642579 L 12.820616 25.642579 C 9.417914 25.642579 6.161117 24.287751 3.753692 21.885537 C 1.351479 19.483324 0.00186183 16.221315 0.00186183 12.818614 C 0.00186183 9.421123 1.351479 6.159114 3.753692 3.756901 C 6.161117 1.349476 9.417914 -0.000140892 12.820616 -0.000140892 Z M 12.820616 -0.000140892 " stroke="#1a495d" stroke-width="4" stroke-opacity="1" stroke-miterlimit="4"/></g></g><g clip-path="url(#289c5d51d9)"><g clip-path="url(#a57f7f9e0e)"><path fill="#1a495d" d="M 86.9375 326.097656 L 289.425781 326.097656 L 289.425781 344.265625 L 86.9375 344.265625 Z M 86.9375 326.097656 " fill-opacity="1" fill-rule="nonzero"/></g></g><g clip-path="url(#0c7c15273d)"><g clip-path="url(#9b10423d1f)"><path stroke-linecap="butt" transform="matrix(0.749634, 0, 0, 0.749634, 86.948377, 326.097762)" fill="none" stroke-linejoin="miter" d="M 12.116407 -0.000140892 L 257.965495 -0.000140892 C 261.180605 -0.000140892 264.260232 1.276524 266.532174 3.548465 C 268.804115 5.820407 270.08078 8.905245 270.08078 12.115144 C 270.08078 15.330254 268.804115 18.415092 266.532174 20.687033 C 264.260232 22.958975 261.180605 24.235639 257.965495 24.235639 L 12.116407 24.235639 C 8.901298 24.235639 5.82167 22.958975 3.549729 20.687033 C 1.277787 18.415092 0.00112284 15.330254 0.00112284 12.115144 C 0.00112284 8.905245 1.277787 5.820407 3.549729 3.548465 C 5.82167 1.276524 8.901298 -0.000140892 12.116407 -0.000140892 Z M 12.116407 -0.000140892 " stroke="#1a495d" stroke-width="4" stroke-opacity="1" stroke-miterlimit="4"/></g></g></svg>