<svg xmlns="http://www.w3.org/2000/svg" xmlns:xlink="http://www.w3.org/1999/xlink" width="1366" zoomAndPan="magnify" viewBox="0 0 1024.5 576" height="768" preserveAspectRatio="xMidYMid meet" version="1.0"><defs><clipPath id="48e6a49e37"><path d="M 0 0.140625 L 1024 0.140625 L 1024 575.859375 L 0 575.859375 Z M 0 0.140625 " clip-rule="nonzero"/></clipPath><clipPath id="59caa329f4"><path d="M 459.328125 220 L 565 220 L 565 359.761719 L 459.328125 359.761719 Z M 459.328125 220 " clip-rule="nonzero"/></clipPath></defs><g clip-path="url(#48e6a49e37)"><path fill="#ffffff" d="M 0 0.140625 L 1024 0.140625 L 1024 575.859375 L 0 575.859375 Z M 0 0.140625 " fill-opacity="1" fill-rule="nonzero"/><path fill="#ffffff" d="M 0 0.140625 L 1024 0.140625 L 1024 575.859375 L 0 575.859375 Z M 0 0.140625 " fill-opacity="1" fill-rule="nonzero"/></g><g clip-path="url(#59caa329f4)"><path fill="#d41b5d" d="M 562.578125 224.125 C 561.941406 223.804688 561.269531 223.671875 560.5625 223.734375 C 559.851562 223.796875 559.214844 224.039062 558.644531 224.46875 C 543.664062 235.71875 524.101562 230.453125 505.191406 225.359375 C 488.464844 220.84375 472.664062 216.601562 461.003906 224.367188 C 460.480469 224.710938 460.070312 225.160156 459.773438 225.710938 C 459.476562 226.261719 459.328125 226.851562 459.328125 227.476562 L 459.328125 354.632812 C 459.328125 354.929688 459.355469 355.222656 459.414062 355.511719 C 459.472656 355.804688 459.558594 356.085938 459.671875 356.359375 C 459.785156 356.632812 459.925781 356.894531 460.089844 357.140625 C 460.253906 357.386719 460.441406 357.613281 460.648438 357.824219 C 460.859375 358.035156 461.085938 358.222656 461.335938 358.386719 C 461.582031 358.550781 461.839844 358.691406 462.113281 358.804688 C 462.386719 358.917969 462.671875 359.003906 462.960938 359.058594 C 463.253906 359.117188 463.546875 359.148438 463.84375 359.148438 C 464.136719 359.148438 464.433594 359.117188 464.722656 359.058594 C 465.011719 359.003906 465.296875 358.917969 465.570312 358.804688 C 465.84375 358.691406 466.105469 358.550781 466.351562 358.386719 C 466.597656 358.222656 466.824219 358.035156 467.035156 357.824219 C 467.242188 357.613281 467.429688 357.386719 467.597656 357.140625 C 467.761719 356.894531 467.898438 356.632812 468.011719 356.359375 C 468.125 356.085938 468.210938 355.804688 468.269531 355.511719 C 468.328125 355.222656 468.355469 354.929688 468.355469 354.632812 L 468.355469 296.765625 C 477.214844 293.347656 489.867188 296.734375 503.242188 300.324219 C 514.046875 303.230469 525.675781 306.375 536.894531 306.375 C 546.125 306.375 555.085938 304.257812 563.160156 298.203125 C 563.632812 297.847656 564.003906 297.40625 564.269531 296.878906 C 564.535156 296.347656 564.664062 295.785156 564.664062 295.195312 L 564.664062 227.476562 C 564.65625 226.769531 564.464844 226.113281 564.089844 225.507812 C 563.714844 224.90625 563.210938 224.445312 562.578125 224.125 Z M 562.578125 224.125 " fill-opacity="1" fill-rule="nonzero"/></g></svg>