<svg xmlns="http://www.w3.org/2000/svg" xmlns:xlink="http://www.w3.org/1999/xlink" width="1366" zoomAndPan="magnify" viewBox="0 0 1024.5 576" height="768" preserveAspectRatio="xMidYMid meet" version="1.0"><defs><clipPath id="6db5d98b9b"><path d="M 0 0.140625 L 1024 0.140625 L 1024 575.859375 L 0 575.859375 Z M 0 0.140625 " clip-rule="nonzero"/></clipPath><clipPath id="cfda5186ab"><path d="M 428.191406 213.308594 L 596 213.308594 L 596 362.484375 L 428.191406 362.484375 Z M 428.191406 213.308594 " clip-rule="nonzero"/></clipPath></defs><g clip-path="url(#6db5d98b9b)"><path fill="#ffffff" d="M 0 0.140625 L 1024 0.140625 L 1024 575.859375 L 0 575.859375 Z M 0 0.140625 " fill-opacity="1" fill-rule="nonzero"/><path fill="#ffffff" d="M 0 0.140625 L 1024 0.140625 L 1024 575.859375 L 0 575.859375 Z M 0 0.140625 " fill-opacity="1" fill-rule="nonzero"/></g><g clip-path="url(#cfda5186ab)"><path fill="#363636" d="M 587.515625 213.316406 L 436.484375 213.316406 C 431.921875 213.316406 428.222656 217.015625 428.222656 221.578125 C 428.222656 226.140625 431.921875 229.839844 436.484375 229.839844 L 438.476562 229.839844 L 487.523438 297.160156 L 487.523438 354.414062 C 487.523438 357.550781 489.300781 360.414062 492.109375 361.8125 C 493.273438 362.390625 494.53125 362.675781 495.78125 362.675781 C 497.554688 362.675781 499.3125 362.105469 500.773438 360.996094 L 533.207031 336.410156 C 535.265625 334.847656 536.476562 332.410156 536.476562 329.828125 L 536.476562 297.160156 L 585.523438 229.839844 L 587.515625 229.839844 C 592.078125 229.839844 595.777344 226.140625 595.777344 221.578125 C 595.777344 217.015625 592.078125 213.316406 587.515625 213.316406 Z M 521.539062 289.605469 C 520.507812 291.019531 519.953125 292.722656 519.953125 294.472656 L 519.953125 325.722656 L 504.046875 337.78125 L 504.046875 294.46875 C 504.046875 292.722656 503.492188 291.019531 502.460938 289.605469 L 458.921875 229.839844 L 565.078125 229.839844 Z M 521.539062 289.605469 " fill-opacity="1" fill-rule="nonzero"/></g></svg>