<svg xmlns="http://www.w3.org/2000/svg" xmlns:xlink="http://www.w3.org/1999/xlink" width="1366" zoomAndPan="magnify" viewBox="0 0 1024.5 576" height="768" preserveAspectRatio="xMidYMid meet" version="1.0"><defs><clipPath id="c2de9c4c52"><path d="M 0 0.140625 L 1024 0.140625 L 1024 575.859375 L 0 575.859375 Z M 0 0.140625 " clip-rule="nonzero"/></clipPath><clipPath id="abf1ddc862"><path d="M 419.050781 195.863281 L 604.957031 195.863281 L 604.957031 380.273438 L 419.050781 380.273438 Z M 419.050781 195.863281 " clip-rule="nonzero"/></clipPath></defs><g clip-path="url(#c2de9c4c52)"><path fill="#ffffff" d="M 0 0.140625 L 1024 0.140625 L 1024 575.859375 L 0 575.859375 Z M 0 0.140625 " fill-opacity="1" fill-rule="nonzero"/><path fill="#ffffff" d="M 0 0.140625 L 1024 0.140625 L 1024 575.859375 L 0 575.859375 Z M 0 0.140625 " fill-opacity="1" fill-rule="nonzero"/></g><path fill="#1a495d" d="M 550.382812 248.964844 C 549.804688 248.242188 548.9375 247.808594 548.074219 247.808594 L 475.921875 247.808594 C 474.914062 247.808594 474.046875 248.242188 473.613281 248.964844 L 456.300781 273.351562 C 456.15625 273.640625 456.011719 273.785156 455.867188 274.074219 C 455.867188 274.074219 455.867188 274.21875 455.867188 274.21875 C 455.867188 274.503906 455.722656 274.648438 455.722656 274.9375 C 455.722656 274.9375 455.722656 274.9375 455.722656 275.082031 C 455.722656 275.371094 455.722656 275.515625 455.867188 275.804688 C 455.867188 275.804688 455.867188 275.949219 455.867188 275.949219 C 456.011719 276.238281 456.15625 276.382812 456.300781 276.671875 L 509.6875 344.632812 C 509.6875 344.632812 509.6875 344.632812 509.832031 344.777344 C 509.976562 344.921875 509.976562 345.066406 510.121094 345.066406 C 510.121094 345.066406 510.265625 345.210938 510.265625 345.210938 C 510.265625 345.210938 510.410156 345.210938 510.410156 345.355469 C 510.410156 345.355469 510.554688 345.5 510.699219 345.5 C 510.84375 345.5 510.84375 345.644531 510.988281 345.644531 C 510.988281 345.644531 511.132812 345.644531 511.132812 345.789062 C 511.132812 345.789062 511.277344 345.789062 511.277344 345.789062 C 511.277344 345.789062 511.421875 345.789062 511.421875 345.789062 C 511.566406 345.789062 511.855469 345.789062 512 345.789062 C 512.140625 345.789062 512.429688 345.789062 512.574219 345.789062 C 512.574219 345.789062 512.71875 345.789062 512.71875 345.789062 C 512.71875 345.789062 512.863281 345.789062 512.863281 345.789062 C 512.863281 345.789062 513.007812 345.789062 513.007812 345.644531 C 513.152344 345.644531 513.152344 345.644531 513.296875 345.5 C 513.441406 345.5 513.441406 345.355469 513.585938 345.355469 C 513.585938 345.355469 513.730469 345.355469 513.730469 345.210938 C 513.730469 345.210938 513.875 345.066406 513.875 345.066406 C 514.019531 344.921875 514.164062 344.921875 514.164062 344.777344 C 514.164062 344.777344 514.164062 344.777344 514.308594 344.632812 L 567.699219 276.671875 C 568.417969 275.660156 568.5625 274.359375 567.839844 273.351562 Z M 477.367188 253.4375 L 505.214844 253.4375 L 486.167969 272.195312 L 464.089844 272.195312 Z M 512 254.882812 L 529.601562 272.195312 L 494.394531 272.195312 Z M 464.523438 277.96875 L 485.445312 277.96875 L 503.195312 327.320312 Z M 512 334.535156 L 491.507812 277.96875 L 532.34375 277.96875 Z M 520.800781 327.320312 L 538.550781 277.96875 L 559.472656 277.96875 Z M 537.683594 272.195312 L 518.636719 253.4375 L 546.628906 253.4375 L 559.90625 272.195312 Z M 537.683594 272.195312 " fill-opacity="1" fill-rule="nonzero"/><g clip-path="url(#abf1ddc862)"><path fill="#1a495d" d="M 594.105469 273.496094 L 598.722656 260.074219 C 599.585938 257.476562 598.578125 254.59375 596.269531 253.148438 L 584.148438 245.933594 L 584.003906 231.648438 C 584.003906 228.90625 581.984375 226.453125 579.386719 226.019531 L 565.53125 223.421875 L 560.625 210.148438 C 559.761719 207.839844 557.597656 206.398438 555.289062 206.398438 C 555 206.398438 554.710938 206.398438 554.277344 206.539062 L 540.425781 208.847656 L 531.335938 198.027344 C 530.179688 196.726562 528.59375 196.007812 527.003906 196.007812 C 525.996094 196.007812 525.128906 196.296875 524.121094 196.726562 L 512 203.65625 L 499.734375 196.585938 C 498.867188 196.007812 497.855469 195.863281 496.847656 195.863281 C 495.257812 195.863281 493.671875 196.585938 492.519531 197.882812 L 483.425781 208.707031 L 469.574219 206.398438 C 469.285156 206.398438 468.996094 206.253906 468.5625 206.253906 C 466.253906 206.253906 464.089844 207.695312 463.226562 210.003906 L 458.320312 223.28125 L 444.464844 225.875 C 441.726562 226.453125 439.847656 228.761719 439.847656 231.503906 L 439.703125 245.789062 L 427.582031 253.003906 C 425.273438 254.449219 424.121094 257.332031 425.128906 259.929688 L 429.746094 273.351562 L 420.800781 284.316406 C 419.070312 286.480469 419.070312 289.511719 420.800781 291.675781 L 429.746094 302.644531 L 425.128906 316.0625 C 424.265625 318.660156 425.273438 321.546875 427.582031 322.988281 L 439.703125 330.203125 L 439.847656 344.492188 C 439.847656 347.230469 441.867188 349.683594 444.464844 350.117188 L 458.320312 352.714844 L 463.226562 365.992188 C 464.089844 368.300781 466.253906 369.742188 468.5625 369.742188 C 468.851562 369.742188 469.140625 369.742188 469.574219 369.597656 L 483.425781 367.289062 L 492.519531 378.113281 C 493.671875 379.410156 495.257812 380.132812 496.847656 380.132812 C 497.855469 380.132812 498.722656 379.84375 499.734375 379.410156 L 512 372.339844 L 524.261719 379.410156 C 525.128906 379.988281 526.140625 380.132812 527.148438 380.132812 C 528.738281 380.132812 530.324219 379.410156 531.476562 378.113281 L 540.570312 367.289062 L 554.421875 369.597656 C 554.710938 369.597656 555 369.742188 555.433594 369.742188 C 557.742188 369.742188 559.90625 368.300781 560.769531 365.992188 L 565.675781 352.714844 L 579.53125 350.117188 C 582.273438 349.539062 584.148438 347.230469 584.148438 344.492188 L 584.292969 330.203125 L 596.414062 322.988281 C 598.722656 321.546875 599.875 318.660156 598.867188 316.0625 L 594.25 302.644531 L 603.195312 291.675781 C 604.925781 289.511719 604.925781 286.480469 603.195312 284.316406 Z M 572.171875 280.277344 L 518.78125 348.386719 C 517.191406 350.40625 514.59375 351.707031 512 351.707031 C 509.402344 351.707031 506.804688 350.40625 505.214844 348.386719 L 451.824219 280.277344 C 449.515625 277.246094 449.371094 273.207031 451.535156 270.175781 L 468.851562 245.644531 C 470.441406 243.335938 473.183594 242.039062 475.921875 242.039062 L 548.074219 242.039062 C 550.957031 242.039062 553.554688 243.335938 555.144531 245.644531 L 572.460938 270.175781 C 574.625 273.207031 574.625 277.390625 572.171875 280.277344 Z M 572.171875 280.277344 " fill-opacity="1" fill-rule="nonzero"/></g></svg>