<?xml version="1.0" encoding="utf-8"?>
<!DOCTYPE svg PUBLIC "-//W3C//DTD SVG 1.0//EN" "http://www.w3.org/TR/2001/REC-SVG-20010904/DTD/svg10.dtd">
<svg version="1.0" xmlns="http://www.w3.org/2000/svg" width="465px" height="312px" viewBox="0 0 465 312" preserveAspectRatio="xMidYMid meet">
 <g fill="#db0835">
  <path d="M39.1 310.7 c-5.4 -2.8 -6 -4.7 -11.7 -40.8 -3 -18.9 -10.2 -64.1 -15.9 -100.5 -5.8 -36.3 -10.5 -67.5 -10.5 -69.3 0 -4.4 2.3 -8.5 5.7 -10 1.5 -0.7 15.4 -3.3 30.7 -5.7 15.4 -2.5 28.1 -4.6 28.3 -4.8 0.2 -0.2 -0.9 -3 -2.6 -6.2 -4.1 -8.3 -5.4 -13.7 -5.4 -22.9 0.3 -29.9 27.1 -53.1 56.2 -48.6 28 4.3 45.9 29.3 41.8 58.2 -0.8 5.5 -0.8 5.6 1.5 5.3 34.6 -5.7 124.1 -19.4 126.4 -19.4 3.8 0 8.9 4.3 10 8.4 0.4 1.7 -0.1 5.1 -1.2 8.9 -1.2 4 -1.9 9.1 -1.9 14.2 0.1 10.1 3.1 17 10.5 23.9 7.6 7.1 12.7 9.1 23.5 9.1 8.2 0 9.7 -0.3 15.7 -3.3 7.7 -3.8 13 -9.2 16.6 -17.1 2.1 -4.5 2.6 -7.1 2.6 -13.6 0 -8.8 -2.2 -15.1 -8.3 -23.5 -4.9 -6.7 -3.7 -14.5 2.8 -18 2 -1 63.7 -11 68.2 -11 3.8 0 8.6 4.4 9.9 8.8 2.2 8.2 32.1 201.9 31.6 205 -0.6 4 -2 5.8 -5.7 7.8 -3.7 1.9 -65.6 11.6 -69.5 10.9 -3.5 -0.6 -6.8 -3.7 -8.3 -7.8 -0.9 -2.3 -0.7 -4.3 1 -9.8 2.8 -9.3 2.4 -20.3 -1.1 -27.4 -3.6 -7.4 -11.4 -14.7 -18.5 -17.4 -4.9 -1.9 -7.6 -2.2 -14.5 -1.9 -13.5 0.5 -22.7 6.2 -29.1 18 -3.2 6 -3.4 6.8 -3.4 16.3 0 10.8 1 13.6 7.6 23 4.1 5.8 4.6 9.2 1.7 13.5 -1.3 1.9 -3.5 4 -4.8 4.7 -2 1.1 -272.1 44.3 -276.3 44.3 -0.7 0 -2.3 -0.6 -3.6 -1.3z m57.4 -22.1 c48.5 -7.3 115.7 -16.9 131.5 -18.7 5.8 -0.7 10.9 -1.5 11.3 -1.9 0.5 -0.4 -0.9 -11.6 -2.9 -24.9 -3.2 -20.5 -4 -24.1 -5.4 -23.6 -30.3 11.8 -63.3 -7.5 -68.1 -39.7 -4.2 -28.5 19.5 -55.8 48.3 -55.8 4.9 0 5.8 -0.3 5.8 -1.7 0 -3.2 -7.3 -48.8 -7.9 -49.5 -0.3 -0.4 -13 1.3 -28.1 3.7 -34.4 5.5 -35.1 5.6 -39.7 1 -3.2 -3.2 -3.5 -3.9 -3 -7.8 0.3 -2.3 1.3 -7.1 2.2 -10.7 4.1 -15.7 -2.9 -31.1 -17.7 -39.1 -5.8 -3.1 -7 -3.4 -15.3 -3.4 -7.8 0 -9.8 0.4 -15.2 2.9 -7.5 3.4 -13.4 9.5 -17.1 17.4 -2.1 4.6 -2.6 7.2 -2.7 13.7 0 9.3 1.6 13.9 7.7 22.7 3.6 5.1 4 6.2 3.5 9.9 -0.6 4.7 -3.7 8.4 -8.1 9.8 -1.7 0.5 -15.8 2.9 -31.4 5.2 l-28.3 4.3 0.5 2.6 c0.3 1.4 7.1 44.4 15.1 95.5 8 51.2 14.8 93.6 15.1 94.4 0.3 0.9 1.4 1.1 3.7 0.7 1.7 -0.3 22.6 -3.5 46.2 -7z m184.9 -29.6 c13.8 -2.2 25.1 -4.2 25.4 -4.4 0.2 -0.2 -0.8 -2.7 -2.2 -5.5 -7.3 -14.4 -7.4 -30.8 -0.1 -45.1 1.4 -2.7 5.2 -7.8 8.5 -11.3 26.4 -28.3 72.3 -16.6 83.4 21.2 1.8 6 2.1 16.4 0.6 22.6 -0.5 2.2 -0.8 4.1 -0.6 4.2 0.4 0.4 50.9 -7.7 51.5 -8.2 0.5 -0.6 -29.5 -191.5 -30.3 -192.2 -0.4 -0.4 -42.9 5.8 -49.4 7.3 l-2.2 0.4 2.4 4.8 c12.9 25.5 3.3 55.4 -22 67.8 -14.4 7.2 -28.8 7 -43.9 -0.5 -18.7 -9.2 -29.8 -30.3 -26.7 -50.4 0.6 -3.9 1 -7.3 0.8 -7.4 -0.2 -0.2 -11.6 1.5 -25.4 3.7 -13.9 2.2 -25.5 4 -25.8 4 -0.9 0 0.1 8 4.1 32.8 4.5 27.2 4.5 28.4 0.1 32.8 -1.9 1.9 -4.2 3.4 -5.2 3.5 -1.1 0 -6.6 0.1 -12.4 0.2 -12.3 0.2 -17.6 2.2 -24.8 9.5 -17.5 17.5 -10.9 48.4 12.4 57.2 8 3 19.3 2.5 27.8 -1.4 3.2 -1.4 6.9 -2.6 8.3 -2.6 3.8 0 7.9 2.6 9.6 6.2 0.8 1.8 3.1 13.9 5.1 26.8 4.1 26.5 4.3 28 5.4 28 0.4 0 11.9 -1.8 25.6 -4z"/>
 </g>
</svg>